Gelasio-Bold.ufo
<glyph name="exclam" format="1">
  <advance width="770"/>
  <unicode hex="0021"/>
  <outline>
    <contour>
      <point x="328" y="512" type="curve" name="hr00"/>
      <point x="440" y="512" type="line"/>
      <point x="471" y="1063"/>
      <point x="608" y="1129"/>
      <point x="608" y="1293" type="curve" smooth="yes"/>
      <point x="608" y="1426"/>
      <point x="509" y="1530"/>
      <point x="385" y="1530" type="curve" smooth="yes"/>
      <point x="259" y="1530"/>
      <point x="162" y="1426"/>
      <point x="162" y="1293" type="curve" smooth="yes"/>
      <point x="162" y="1129"/>
      <point x="281" y="1063"/>
    </contour>
    <contour>
      <point x="191" y="176" type="curve" smooth="yes"/>
      <point x="191" y="72"/>
      <point x="275" y="-20"/>
      <point x="384" y="-20" type="curve" smooth="yes"/>
      <point x="493" y="-20"/>
      <point x="579" y="72"/>
      <point x="579" y="176" type="curve" smooth="yes"/>
      <point x="579" y="279"/>
      <point x="493" y="362"/>
      <point x="384" y="362" type="curve" smooth="yes"/>
      <point x="275" y="362"/>
      <point x="191" y="279"/>
    </contour>
  </outline>
</glyph>
<glyph name="numbersign" format="1">
  <advance width="1440"/>
  <unicode hex="0023"/>
  <outline>
    <contour>
      <point x="295" y="0" type="line" name="hr00"/>
      <point x="440" y="0" type="line"/>
      <point x="516" y="400" type="line"/>
      <point x="807" y="400" type="line"/>
      <point x="732" y="0" type="line"/>
      <point x="877" y="0" type="line"/>
      <point x="953" y="400" type="line"/>
      <point x="1210" y="400" type="line"/>
      <point x="1210" y="526" type="line"/>
      <point x="977" y="526" type="line"/>
      <point x="1048" y="900" type="line"/>
      <point x="1280" y="900" type="line"/>
      <point x="1280" y="1026" type="line"/>
      <point x="1072" y="1026" type="line"/>
      <point x="1146" y="1419" type="line"/>
      <point x="999" y="1419" type="line"/>
      <point x="925" y="1026" type="line"/>
      <point x="635" y="1026" type="line"/>
      <point x="709" y="1419" type="line"/>
      <point x="562" y="1419" type="line"/>
      <point x="488" y="1026" type="line"/>
      <point x="210" y="1026" type="line"/>
      <point x="210" y="900" type="line"/>
      <point x="464" y="900" type="line"/>
      <point x="394" y="526" type="line"/>
      <point x="160" y="526" type="line"/>
      <point x="160" y="400" type="line"/>
      <point x="370" y="400" type="line"/>
    </contour>
    <contour>
      <point x="540" y="526" type="line"/>
      <point x="611" y="900" type="line"/>
      <point x="901" y="900" type="line"/>
      <point x="831" y="526" type="line"/>
    </contour>
  </outline>
</glyph>
<glyph name="dollar" format="1">
  <advance width="1313"/>
  <unicode hex="0024"/>
  <outline>
    <contour>
      <point x="129" y="48" type="curve" smooth="yes" name="hr01"/>
      <point x="126" y="1"/>
      <point x="203" y="-21"/>
      <point x="261" y="41" type="curve" smooth="yes"/>
      <point x="299" y="80"/>
      <point x="312" y="55"/>
      <point x="368" y="36" type="curve" smooth="yes"/>
      <point x="404" y="23"/>
      <point x="495" y="-10"/>
      <point x="596" y="-24" type="curve"/>
      <point x="596" y="-238" type="line"/>
      <point x="712" y="-238" type="line"/>
      <point x="712" y="-29" type="line" name="hr02"/>
      <point x="1054" y="-22"/>
      <point x="1261" y="113"/>
      <point x="1261" y="346" type="curve" smooth="yes"/>
      <point x="1261" y="550"/>
      <point x="1049" y="686"/>
      <point x="833" y="790" type="curve" smooth="yes"/>
      <point x="655" y="875"/>
      <point x="465" y="951"/>
      <point x="465" y="1114" type="curve" smooth="yes"/>
      <point x="465" y="1237"/>
      <point x="556" y="1274"/>
      <point x="720" y="1274" type="curve" smooth="yes"/>
      <point x="841" y="1274"/>
      <point x="999" y="1211"/>
      <point x="1052" y="980" type="curve" smooth="yes"/>
      <point x="1058" y="953"/>
      <point x="1181" y="935"/>
      <point x="1167" y="1026" type="curve"/>
      <point x="1153" y="1129"/>
      <point x="1142" y="1277"/>
      <point x="1142" y="1301" type="curve" smooth="yes"/>
      <point x="1142" y="1326"/>
      <point x="1071" y="1347"/>
      <point x="1041" y="1330" type="curve" smooth="yes"/>
      <point x="1018" y="1316"/>
      <point x="1021" y="1295"/>
      <point x="966" y="1304" type="curve" smooth="yes"/>
      <point x="933" y="1309"/>
      <point x="830" y="1346"/>
      <point x="711" y="1350" type="curve"/>
      <point x="711" y="1548" type="line"/>
      <point x="595" y="1548" type="line"/>
      <point x="595" y="1346" type="line"/>
      <point x="352" y="1324"/>
      <point x="160" y="1210"/>
      <point x="160" y="997" type="curve" smooth="yes"/>
      <point x="160" y="774"/>
      <point x="365" y="652"/>
      <point x="542" y="560" type="curve" smooth="yes"/>
      <point x="739" y="458"/>
      <point x="944" y="390"/>
      <point x="944" y="222" type="curve" smooth="yes"/>
      <point x="944" y="82"/>
      <point x="806" y="55"/>
      <point x="666" y="55" type="curve" smooth="yes"/>
      <point x="556" y="55"/>
      <point x="381" y="130"/>
      <point x="305" y="273" type="curve"/>
      <point x="251" y="380"/>
      <point x="238" y="413"/>
      <point x="231" y="445" type="curve" smooth="yes"/>
      <point x="219" y="501"/>
      <point x="101" y="499"/>
      <point x="111" y="426" type="curve"/>
      <point x="120" y="351"/>
      <point x="138" y="180"/>
    </contour>
  </outline>
</glyph>
<glyph name="percent" format="1">
  <advance width="1800"/>
  <unicode hex="0025"/>
  <outline>
    <contour>
      <point x="469" y="711" type="curve" name="hr01" smooth="yes"/>
      <point x="706" y="711"/>
      <point x="860" y="852"/>
      <point x="860" y="1076" type="curve" smooth="yes"/>
      <point x="860" y="1305"/>
      <point x="710" y="1449"/>
      <point x="473" y="1449" type="curve" smooth="yes"/>
      <point x="242" y="1449"/>
      <point x="90" y="1305"/>
      <point x="90" y="1076" type="curve" smooth="yes"/>
      <point x="90" y="852"/>
      <point x="238" y="711"/>
    </contour>
    <contour>
      <point x="445" y="0" type="line"/>
      <point x="590" y="0" type="line"/>
      <point x="1349" y="1419" type="line" name="hr02"/>
      <point x="1202" y="1419" type="line"/>
    </contour>
    <contour>
      <point x="473" y="788" type="curve" smooth="yes"/>
      <point x="376" y="788"/>
      <point x="344" y="882"/>
      <point x="344" y="1076" type="curve" smooth="yes"/>
      <point x="344" y="1274"/>
      <point x="376" y="1372"/>
      <point x="473" y="1372" type="curve" name="hr03" smooth="yes"/>
      <point x="577" y="1372"/>
      <point x="605" y="1304"/>
      <point x="605" y="1076" type="curve" smooth="yes"/>
      <point x="605" y="882"/>
      <point x="577" y="788"/>
    </contour>
    <contour>
      <point x="939" y="330" type="curve" name="hr05" smooth="yes"/>
      <point x="939" y="106"/>
      <point x="1087" y="-35"/>
      <point x="1318" y="-35" type="curve" smooth="yes"/>
      <point x="1555" y="-35"/>
      <point x="1709" y="106"/>
      <point x="1709" y="330" type="curve" smooth="yes"/>
      <point x="1709" y="559"/>
      <point x="1559" y="703"/>
      <point x="1322" y="703" type="curve" smooth="yes"/>
      <point x="1091" y="703"/>
      <point x="939" y="559"/>
    </contour>
    <contour>
      <point x="1193" y="330" type="curve" smooth="yes"/>
      <point x="1193" y="528"/>
      <point x="1225" y="626"/>
      <point x="1322" y="626" type="curve" smooth="yes"/>
      <point x="1426" y="626"/>
      <point x="1454" y="558"/>
      <point x="1454" y="330" type="curve" smooth="yes"/>
      <point x="1454" y="136"/>
      <point x="1426" y="42"/>
      <point x="1322" y="42" type="curve" smooth="yes"/>
      <point x="1225" y="42"/>
      <point x="1193" y="136"/>
    </contour>
  </outline>
</glyph>
<glyph name="ampersand" format="1">
  <advance width="1636"/>
  <unicode hex="0026"/>
  <outline>
    <contour>
      <point x="67" y="307" type="curve" name="hr01" smooth="yes"/>
      <point x="89" y="146"/>
      <point x="271" y="-39"/>
      <point x="632" y="-39" type="curve" name="hr02" smooth="yes"/>
      <point x="786" y="-39"/>
      <point x="922" y="20"/>
      <point x="1026" y="107" type="curve"/>
      <point x="1084" y="46"/>
      <point x="1125" y="3"/>
      <point x="1129" y="0" type="curve" name="hr03"/>
      <point x="1596" y="0" type="line" smooth="yes"/>
      <point x="1619" y="0"/>
      <point x="1630" y="21"/>
      <point x="1630" y="41" type="curve" smooth="yes"/>
      <point x="1630" y="71"/>
      <point x="1622" y="76"/>
      <point x="1594" y="78" type="curve" smooth="yes"/>
      <point x="1502" y="86"/>
      <point x="1410" y="162"/>
      <point x="1360" y="212" type="curve" smooth="yes"/>
      <point x="1340" y="231"/>
      <point x="1302" y="271"/>
      <point x="1253" y="321" type="curve"/>
      <point x="1357" y="494"/>
      <point x="1372" y="613"/>
      <point x="1425" y="711" type="curve"/>
      <point x="1448" y="779"/>
      <point x="1506" y="818"/>
      <point x="1563" y="818" type="curve" smooth="yes"/>
      <point x="1585" y="818"/>
      <point x="1596" y="831"/>
      <point x="1597" y="855" type="curve"/>
      <point x="1596" y="875"/>
      <point x="1585" y="896"/>
      <point x="1562" y="896" type="curve" smooth="yes"/>
      <point x="1109" y="896" type="line" smooth="yes"/>
      <point x="1086" y="896"/>
      <point x="1074" y="875"/>
      <point x="1076" y="855" type="curve"/>
      <point x="1076" y="834"/>
      <point x="1080" y="821"/>
      <point x="1106" y="818" type="curve" smooth="yes"/>
      <point x="1161" y="811"/>
      <point x="1261" y="795"/>
      <point x="1259" y="718" type="curve"/>
      <point x="1257" y="703"/>
      <point x="1260" y="574"/>
      <point x="1166" y="412" type="curve"/>
      <point x="1042" y="541"/>
      <point x="891" y="700"/>
      <point x="787" y="811" type="curve"/>
      <point x="938" y="902"/>
      <point x="1125" y="1049"/>
      <point x="1100" y="1232" type="curve" smooth="yes"/>
      <point x="1082" y="1368"/>
      <point x="935" y="1458"/>
      <point x="703" y="1458" type="curve" smooth="yes"/>
      <point x="460" y="1458"/>
      <point x="223" y="1334"/>
      <point x="259" y="1073" type="curve" name="hr04"/>
      <point x="275" y="949"/>
      <point x="347" y="849"/>
      <point x="428" y="758" type="curve"/>
      <point x="201" y="648"/>
      <point x="36" y="537"/>
    </contour>
    <contour>
      <point x="712" y="892" type="curve"/>
      <point x="699" y="907"/>
      <point x="688" y="919"/>
      <point x="681" y="928" type="curve"/>
      <point x="602" y="1013"/>
      <point x="573" y="1088"/>
      <point x="564" y="1152" type="curve" smooth="yes"/>
      <point x="544" y="1298"/>
      <point x="596" y="1369"/>
      <point x="726" y="1369" type="curve" name="hr06" smooth="yes"/>
      <point x="836" y="1369"/>
      <point x="887" y="1259"/>
      <point x="884" y="1192" type="curve"/>
      <point x="883" y="1119"/>
      <point x="861" y="969"/>
    </contour>
    <contour>
      <point x="413" y="351" type="curve" name="hr08" smooth="yes"/>
      <point x="391" y="514"/>
      <point x="440" y="603"/>
      <point x="515" y="663" type="curve"/>
      <point x="540" y="637"/>
      <point x="564" y="611"/>
      <point x="586" y="585" type="curve" smooth="yes"/>
      <point x="652" y="507"/>
      <point x="816" y="330"/>
      <point x="947" y="190" type="curve"/>
      <point x="865" y="137"/>
      <point x="780" y="131"/>
      <point x="691" y="131" type="curve" smooth="yes"/>
      <point x="536" y="131"/>
      <point x="428" y="240"/>
    </contour>
  </outline>
</glyph>
<glyph name="quotesingle" format="1">
  <advance width="551"/>
  <unicode hex="0027"/>
  <outline>
    <contour>
      <point x="222" y="928" type="curve" name="hr00"/>
      <point x="318" y="928" type="line"/>
      <point x="344" y="1304"/>
      <point x="403" y="1415"/>
      <point x="403" y="1512" type="curve" smooth="yes"/>
      <point x="403" y="1590"/>
      <point x="386" y="1671"/>
      <point x="270" y="1671" type="curve" smooth="yes"/>
      <point x="154" y="1671"/>
      <point x="137" y="1590"/>
      <point x="137" y="1512" type="curve" smooth="yes"/>
      <point x="137" y="1415"/>
      <point x="196" y="1304"/>
    </contour>
  </outline>
</glyph>
<glyph name="parenleft" format="1">
  <advance width="915"/>
  <unicode hex="0028"/>
  <outline>
    <contour>
      <point x="115" y="596" type="curve" smooth="yes" name="hr00"/>
      <point x="115" y="-115"/>
      <point x="561" y="-340"/>
      <point x="828" y="-340" type="curve"/>
      <point x="828" y="-237" type="line"/>
      <point x="723" y="-237"/>
      <point x="450" y="-164"/>
      <point x="450" y="596" type="curve" smooth="yes"/>
      <point x="450" y="1356"/>
      <point x="723" y="1429"/>
      <point x="828" y="1429" type="curve"/>
      <point x="828" y="1532" type="line"/>
      <point x="561" y="1532"/>
      <point x="115" y="1307"/>
    </contour>
  </outline>
</glyph>
<glyph name="asterisk" format="1">
  <advance width="987"/>
  <unicode hex="002A"/>
  <outline>
    <contour>
      <point x="263" y="548" type="curve" smooth="yes" name="hr01"/>
      <point x="303" y="548"/>
      <point x="344" y="572"/>
      <point x="372" y="612" type="curve" smooth="yes"/>
      <point x="395" y="645"/>
      <point x="466" y="863"/>
      <point x="494" y="928" type="curve"/>
      <point x="522" y="866"/>
      <point x="594" y="643"/>
      <point x="616" y="612" type="curve" smooth="yes"/>
      <point x="643" y="574"/>
      <point x="685" y="549"/>
      <point x="726" y="549" type="curve" smooth="yes"/>
      <point x="789" y="549"/>
      <point x="838" y="603"/>
      <point x="838" y="662" type="curve" smooth="yes"/>
      <point x="838" y="776"/>
      <point x="645" y="892"/>
      <point x="561" y="976" type="curve"/>
      <point x="629" y="986"/>
      <point x="824" y="978"/>
      <point x="876" y="993" type="curve" smooth="yes"/>
      <point x="934" y="1010"/>
      <point x="975" y="1051"/>
      <point x="975" y="1105" type="curve" smooth="yes"/>
      <point x="975" y="1184"/>
      <point x="916" y="1225"/>
      <point x="858" y="1225" type="curve" smooth="yes"/>
      <point x="815" y="1225"/>
      <point x="805" y="1220"/>
      <point x="673" y="1137" type="curve" smooth="yes" name="hr02"/>
      <point x="621" y="1104"/>
      <point x="570" y="1072"/>
      <point x="536" y="1054" type="curve"/>
      <point x="565" y="1205"/>
      <point x="617" y="1305"/>
      <point x="617" y="1385" type="curve" smooth="yes"/>
      <point x="617" y="1462"/>
      <point x="571" y="1521"/>
      <point x="495" y="1521" type="curve" smooth="yes"/>
      <point x="417" y="1521"/>
      <point x="373" y="1462"/>
      <point x="373" y="1385" type="curve" smooth="yes"/>
      <point x="373" y="1319"/>
      <point x="428" y="1205"/>
      <point x="452" y="1054" type="curve"/>
      <point x="384" y="1088"/>
      <point x="224" y="1199"/>
      <point x="182" y="1216" type="curve" smooth="yes"/>
      <point x="164" y="1223"/>
      <point x="147" y="1225"/>
      <point x="130" y="1225" type="curve" smooth="yes"/>
      <point x="72" y="1225"/>
      <point x="12" y="1184"/>
      <point x="12" y="1108" type="curve" smooth="yes"/>
      <point x="12" y="1052"/>
      <point x="54" y="1011"/>
      <point x="110" y="993" type="curve" smooth="yes"/>
      <point x="154" y="978"/>
      <point x="363" y="985"/>
      <point x="428" y="976" type="curve"/>
      <point x="400" y="948"/>
      <point x="352" y="906"/>
      <point x="307" y="866" type="curve" smooth="yes"/>
      <point x="250" y="815"/>
      <point x="192" y="764"/>
      <point x="180" y="748" type="curve" smooth="yes"/>
      <point x="162" y="723"/>
      <point x="150" y="691"/>
      <point x="150" y="662" type="curve" smooth="yes"/>
      <point x="150" y="597"/>
      <point x="204" y="548"/>
    </contour>
  </outline>
</glyph>
<glyph name="plus" format="1">
  <advance width="1440"/>
  <unicode hex="002B"/>
  <outline>
    <contour>
      <point x="240" y="501" type="line" name="hr00"/>
      <point x="642" y="501" type="line"/>
      <point x="642" y="75" type="line"/>
      <point x="808" y="75" type="line"/>
      <point x="808" y="501" type="line"/>
      <point x="1210" y="501" type="line"/>
      <point x="1210" y="647" type="line"/>
      <point x="808" y="647" type="line"/>
      <point x="808" y="1062" type="line"/>
      <point x="642" y="1062" type="line"/>
      <point x="642" y="647" type="line"/>
      <point x="240" y="647" type="line"/>
    </contour>
  </outline>
</glyph>
<glyph name="comma" format="1">
  <advance width="672"/>
  <unicode hex="002C"/>
  <outline>
    <contour>
      <point x="147" y="159" type="curve" smooth="yes" name="hr00"/>
      <point x="147" y="48"/>
      <point x="247" y="-16"/>
      <point x="319" y="-16" type="curve"/>
      <point x="319" y="-137"/>
      <point x="250" y="-265"/>
      <point x="212" y="-301" type="curve" smooth="yes"/>
      <point x="148" y="-362"/>
      <point x="236" y="-394"/>
      <point x="270" y="-372" type="curve" smooth="yes"/>
      <point x="375" y="-304"/>
      <point x="527" y="-117"/>
      <point x="527" y="95" type="curve" smooth="yes"/>
      <point x="527" y="261"/>
      <point x="449" y="340"/>
      <point x="347" y="340" type="curve" smooth="yes"/>
      <point x="238" y="340"/>
      <point x="147" y="287"/>
    </contour>
  </outline>
</glyph>
<glyph name="period" format="1">
  <advance width="672"/>
  <unicode hex="002E"/>
  <outline>
    <contour>
      <point x="139" y="176" type="curve" smooth="yes" name="hr00"/>
      <point x="139" y="72"/>
      <point x="223" y="-20"/>
      <point x="332" y="-20" type="curve" smooth="yes"/>
      <point x="441" y="-20"/>
      <point x="527" y="72"/>
      <point x="527" y="176" type="curve" smooth="yes"/>
      <point x="527" y="279"/>
      <point x="441" y="362"/>
      <point x="332" y="362" type="curve" smooth="yes"/>
      <point x="223" y="362"/>
      <point x="139" y="279"/>
    </contour>
  </outline>
</glyph>
<glyph name="slash" format="1">
  <advance width="967"/>
  <unicode hex="002F"/>
  <outline>
    <contour>
      <point x="115" y="-340" type="line" name="hr00"/>
      <point x="270" y="-340" type="line"/>
      <point x="849" y="1700" type="line"/>
      <point x="692" y="1700" type="line"/>
    </contour>
  </outline>
</glyph>
<glyph name="zero" format="1">
  <advance width="1436"/>
  <unicode hex="0030"/>
  <outline>
    <contour>
      <point x="103" y="582" type="curve" smooth="yes" name="hr00"/>
      <point x="103" y="206"/>
      <point x="332" y="-29"/>
      <point x="716" y="-29" type="curve" smooth="yes"/>
      <point x="1104" y="-29"/>
      <point x="1333" y="206"/>
      <point x="1333" y="582" type="curve" smooth="yes"/>
      <point x="1333" y="965"/>
      <point x="1112" y="1205"/>
      <point x="723" y="1205" type="curve" smooth="yes"/>
      <point x="339" y="1205"/>
      <point x="103" y="965"/>
    </contour>
    <contour>
      <point x="719" y="66" type="curve" smooth="yes"/>
      <point x="509" y="66"/>
      <point x="458" y="234"/>
      <point x="458" y="582" type="curve" smooth="yes"/>
      <point x="458" y="936"/>
      <point x="505" y="1110"/>
      <point x="715" y="1110" type="curve" smooth="yes"/>
      <point x="924" y="1110"/>
      <point x="976" y="936"/>
      <point x="976" y="582" type="curve" smooth="yes"/>
      <point x="976" y="234"/>
      <point x="928" y="66"/>
    </contour>
  </outline>
</glyph>
<glyph name="one" format="1">
  <advance width="1004"/>
  <unicode hex="0031"/>
  <outline>
    <contour>
      <point x="161" y="41" type="curve" name="hr00" smooth="yes"/>
      <point x="161" y="26"/>
      <point x="172" y="0"/>
      <point x="195" y="0" type="curve" smooth="yes"/>
      <point x="860" y="0" type="line" smooth="yes"/>
      <point x="883" y="0"/>
      <point x="894" y="26"/>
      <point x="894" y="41" type="curve" smooth="yes"/>
      <point x="894" y="71"/>
      <point x="886" y="75"/>
      <point x="858" y="78" type="curve" smooth="yes"/>
      <point x="797" y="83"/>
      <point x="686" y="89"/>
      <point x="686" y="175" type="curve" smooth="yes"/>
      <point x="687" y="1189" type="line"/>
      <point x="488" y="1189" type="line"/>
      <point x="396" y="1116"/>
      <point x="236" y="1038"/>
      <point x="175" y="1033" type="curve" smooth="yes"/>
      <point x="147" y="1030"/>
      <point x="139" y="1006"/>
      <point x="139" y="976" type="curve" smooth="yes"/>
      <point x="139" y="961"/>
      <point x="150" y="945"/>
      <point x="173" y="945" type="curve" smooth="yes"/>
      <point x="218" y="945"/>
      <point x="303" y="951"/>
      <point x="360" y="960" type="curve"/>
      <point x="359" y="142" type="line" smooth="yes"/>
      <point x="359" y="98"/>
      <point x="258" y="83"/>
      <point x="194" y="78" type="curve"/>
      <point x="168" y="75"/>
      <point x="161" y="62"/>
    </contour>
  </outline>
</glyph>
<glyph name="two" format="1">
  <advance width="1282"/>
  <unicode hex="0032"/>
  <outline>
    <contour>
      <point x="115" y="0" type="line" name="hr00"/>
      <point x="1157" y="0" type="line"/>
      <point x="1167" y="249" type="line"/>
      <point x="506" y="249" type="line"/>
      <point x="792" y="393"/>
      <point x="1141" y="575"/>
      <point x="1141" y="851" type="curve" smooth="yes"/>
      <point x="1141" y="1079"/>
      <point x="966" y="1205"/>
      <point x="619" y="1205" type="curve" smooth="yes"/>
      <point x="368" y="1205"/>
      <point x="199" y="1092"/>
      <point x="140" y="972" type="curve" smooth="yes"/>
      <point x="56" y="802"/>
      <point x="173" y="730"/>
      <point x="270" y="730" type="curve" smooth="yes"/>
      <point x="340" y="730"/>
      <point x="355" y="779"/>
      <point x="368" y="822" type="curve"/>
      <point x="436" y="1002" type="line"/>
      <point x="450" y="1046"/>
      <point x="486" y="1109"/>
      <point x="604" y="1109" type="curve" smooth="yes"/>
      <point x="759" y="1109"/>
      <point x="792" y="951"/>
      <point x="792" y="850" type="curve" smooth="yes"/>
      <point x="792" y="515"/>
      <point x="425" y="317"/>
      <point x="139" y="88" type="curve" smooth="yes"/>
      <point x="124" y="76"/>
      <point x="115" y="51"/>
      <point x="115" y="32" type="curve" smooth="yes"/>
    </contour>
  </outline>
</glyph>
<glyph name="three" format="1">
  <advance width="1280"/>
  <unicode hex="0033"/>
  <outline>
    <contour>
      <point x="77" y="-78" type="curve" name="hr01" smooth="yes"/>
      <point x="77" y="-277"/>
      <point x="307" y="-392"/>
      <point x="559" y="-392" type="curve" smooth="yes"/>
      <point x="989" y="-392"/>
      <point x="1209" y="-181"/>
      <point x="1209" y="73" type="curve" smooth="yes"/>
      <point x="1209" y="307"/>
      <point x="1033" y="454"/>
      <point x="773" y="456" type="curve"/>
      <point x="976" y="486"/>
      <point x="1128" y="634"/>
      <point x="1128" y="840" type="curve" name="hr02" smooth="yes"/>
      <point x="1128" y="1058"/>
      <point x="939" y="1205"/>
      <point x="618" y="1205" type="curve" smooth="yes"/>
      <point x="350" y="1205"/>
      <point x="106" y="1079"/>
      <point x="106" y="896" type="curve" smooth="yes"/>
      <point x="106" y="762"/>
      <point x="304" y="690"/>
      <point x="356" y="834" type="curve" smooth="yes"/>
      <point x="370" y="873"/>
      <point x="386" y="940"/>
      <point x="406" y="1002" type="curve"/>
      <point x="446" y="1084"/>
      <point x="501" y="1108"/>
      <point x="572" y="1108" type="curve" smooth="yes"/>
      <point x="754" y="1108"/>
      <point x="796" y="922"/>
      <point x="796" y="821" type="curve" smooth="yes"/>
      <point x="796" y="606"/>
      <point x="648" y="505"/>
      <point x="507" y="505" type="curve" smooth="yes"/>
      <point x="434" y="505" type="line" smooth="yes"/>
      <point x="418" y="505"/>
      <point x="410" y="496"/>
      <point x="410" y="449" type="curve" smooth="yes"/>
      <point x="410" y="401"/>
      <point x="418" y="393"/>
      <point x="434" y="393" type="curve" smooth="yes"/>
      <point x="527" y="393" type="line" smooth="yes"/>
      <point x="708" y="393"/>
      <point x="842" y="312"/>
      <point x="842" y="46" type="curve" smooth="yes"/>
      <point x="842" y="-155"/>
      <point x="744" y="-297"/>
      <point x="550" y="-297" type="curve" smooth="yes"/>
      <point x="370" y="-297"/>
      <point x="307" y="-197"/>
      <point x="307" y="-197" type="curve"/>
      <point x="370" y="46" type="line"/>
      <point x="360" y="79"/>
      <point x="324" y="117"/>
      <point x="238" y="117" type="curve" smooth="yes"/>
      <point x="179" y="117"/>
      <point x="77" y="49"/>
    </contour>
  </outline>
</glyph>
<glyph name="four" format="1">
  <advance width="1329"/>
  <unicode hex="0034"/>
  <outline>
    <contour>
      <point x="59" y="36" type="curve" name="hr00"/>
      <point x="79" y="0" type="line"/>
      <point x="713" y="0" type="line"/>
      <point x="713" y="-384" type="line"/>
      <point x="1026" y="-384" type="line"/>
      <point x="1026" y="0" type="line"/>
      <point x="1224" y="0" type="line" smooth="yes"/>
      <point x="1240" y="0"/>
      <point x="1244" y="74"/>
      <point x="1244" y="124" type="curve" smooth="yes"/>
      <point x="1244" y="153"/>
      <point x="1236" y="164"/>
      <point x="1227" y="164" type="curve" smooth="yes"/>
      <point x="1026" y="164" type="line"/>
      <point x="1026" y="523" type="line" smooth="yes"/>
      <point x="1026" y="537"/>
      <point x="1018" y="551"/>
      <point x="995" y="551" type="curve" smooth="yes"/>
      <point x="784" y="551" type="line" smooth="yes"/>
      <point x="761" y="551"/>
      <point x="713" y="532"/>
      <point x="713" y="480" type="curve" smooth="yes"/>
      <point x="713" y="164" type="line"/>
      <point x="270" y="164" type="line"/>
      <point x="905" y="1081" type="line"/>
      <point x="920" y="1104"/>
      <point x="872" y="1214"/>
      <point x="743" y="1214" type="curve" smooth="yes"/>
      <point x="684" y="1214"/>
      <point x="626" y="1203"/>
      <point x="600" y="1168" type="curve"/>
      <point x="62" y="92" type="line" smooth="yes"/>
      <point x="55" y="77"/>
      <point x="52" y="55"/>
    </contour>
  </outline>
</glyph>
<glyph name="five" format="1">
  <advance width="1227"/>
  <unicode hex="0035"/>
  <outline>
    <contour>
      <point x="57" y="-78" type="curve" smooth="yes" name="hr00"/>
      <point x="57" y="-277"/>
      <point x="315" y="-392"/>
      <point x="517" y="-392" type="curve" smooth="yes"/>
      <point x="904" y="-392"/>
      <point x="1156" y="-163"/>
      <point x="1156" y="146" type="curve" smooth="yes"/>
      <point x="1156" y="427"/>
      <point x="993" y="607"/>
      <point x="672" y="607" type="curve" smooth="yes"/>
      <point x="529" y="607"/>
      <point x="391" y="557"/>
      <point x="306" y="499" type="curve"/>
      <point x="384" y="911" type="line"/>
      <point x="1064" y="911" type="line"/>
      <point x="1080" y="1190" type="line"/>
      <point x="275" y="1190" type="line"/>
      <point x="170" y="373" type="line"/>
      <point x="238" y="340" type="line"/>
      <point x="316" y="427"/>
      <point x="422" y="486"/>
      <point x="543" y="486" type="curve" smooth="yes"/>
      <point x="733" y="486"/>
      <point x="809" y="365"/>
      <point x="809" y="136" type="curve" smooth="yes"/>
      <point x="809" y="-174"/>
      <point x="709" y="-297"/>
      <point x="530" y="-297" type="curve" smooth="yes"/>
      <point x="350" y="-297"/>
      <point x="287" y="-197"/>
      <point x="287" y="-197" type="curve"/>
      <point x="350" y="46" type="line"/>
      <point x="340" y="79"/>
      <point x="304" y="117"/>
      <point x="218" y="117" type="curve" smooth="yes"/>
      <point x="159" y="117"/>
      <point x="57" y="49"/>
    </contour>
  </outline>
</glyph>
<glyph name="six" format="1">
  <advance width="1327"/>
  <unicode hex="0036"/>
  <outline>
    <contour>
      <point x="102" y="582" type="curve" smooth="yes" name="hr00"/>
      <point x="102" y="245"/>
      <point x="260" y="-29"/>
      <point x="659" y="-29" type="curve" smooth="yes"/>
      <point x="1018" y="-29"/>
      <point x="1239" y="211"/>
      <point x="1239" y="502" type="curve" smooth="yes"/>
      <point x="1239" y="765"/>
      <point x="1093" y="963"/>
      <point x="782" y="963" type="curve" smooth="yes"/>
      <point x="645" y="963"/>
      <point x="546" y="919"/>
      <point x="472" y="867" type="curve"/>
      <point x="510" y="1110"/>
      <point x="628" y="1389"/>
      <point x="992" y="1457" type="curve"/>
      <point x="991" y="1549" type="line"/>
      <point x="355" y="1506"/>
      <point x="102" y="959"/>
    </contour>
    <contour>
      <point x="655" y="66" type="curve" smooth="yes"/>
      <point x="498" y="66"/>
      <point x="454" y="298"/>
      <point x="454" y="602" type="curve" smooth="yes"/>
      <point x="454" y="648"/>
      <point x="455" y="704"/>
      <point x="460" y="766" type="curve"/>
      <point x="511" y="812"/>
      <point x="576" y="845"/>
      <point x="656" y="845" type="curve" smooth="yes"/>
      <point x="813" y="845"/>
      <point x="882" y="706"/>
      <point x="882" y="472" type="curve" smooth="yes"/>
      <point x="882" y="234"/>
      <point x="832" y="66"/>
    </contour>
  </outline>
</glyph>
<glyph name="seven" format="1">
  <advance width="1135"/>
  <unicode hex="0037"/>
  <outline>
    <contour>
      <point x="302" y="-382" type="line" name="hr00"/>
      <point x="544" y="-383" type="line"/>
      <point x="1096" y="1152" type="line"/>
      <point x="1053" y="1190" type="line"/>
      <point x="96" y="1190" type="line"/>
      <point x="61" y="716" type="line"/>
      <point x="61" y="693"/>
      <point x="97" y="682"/>
      <point x="112" y="682" type="curve" smooth="yes"/>
      <point x="133" y="682"/>
      <point x="161" y="690"/>
      <point x="168" y="715" type="curve" smooth="yes"/>
      <point x="198" y="817"/>
      <point x="202" y="911"/>
      <point x="324" y="911" type="curve"/>
      <point x="860" y="911" type="line"/>
    </contour>
  </outline>
</glyph>
<glyph name="eight" format="1">
  <advance width="1384"/>
  <unicode hex="0038"/>
  <outline>
    <contour>
      <point x="106" y="373" type="curve" smooth="yes" name="hr01"/>
      <point x="106" y="124"/>
      <point x="331" y="-30"/>
      <point x="698" y="-30" type="curve" smooth="yes"/>
      <point x="1042" y="-30"/>
      <point x="1280" y="141"/>
      <point x="1280" y="358" type="curve" smooth="yes"/>
      <point x="1280" y="594"/>
      <point x="1107" y="708"/>
      <point x="908" y="806" type="curve"/>
      <point x="1049" y="855"/>
      <point x="1197" y="954"/>
      <point x="1197" y="1111" type="curve" smooth="yes" name="hr02"/>
      <point x="1197" y="1305"/>
      <point x="1039" y="1449"/>
      <point x="693" y="1449" type="curve" smooth="yes"/>
      <point x="342" y="1449"/>
      <point x="176" y="1271"/>
      <point x="176" y="1102" type="curve" smooth="yes"/>
      <point x="176" y="933"/>
      <point x="281" y="811"/>
      <point x="421" y="716" type="curve"/>
      <point x="289" y="683"/>
      <point x="106" y="581"/>
    </contour>
    <contour>
      <point x="731" y="890" type="line"/>
      <point x="549" y="971"/>
      <point x="463" y="1051"/>
      <point x="463" y="1157" type="curve" smooth="yes" name="hr04"/>
      <point x="463" y="1300"/>
      <point x="547" y="1354"/>
      <point x="690" y="1354" type="curve" smooth="yes"/>
      <point x="852" y="1354"/>
      <point x="915" y="1243"/>
      <point x="915" y="1122" type="curve" smooth="yes"/>
      <point x="915" y="964"/>
      <point x="867" y="893"/>
      <point x="807" y="854" type="curve"/>
    </contour>
    <contour>
      <point x="415" y="382" type="curve" smooth="yes" name="hr05"/>
      <point x="415" y="528"/>
      <point x="447" y="617"/>
      <point x="499" y="667" type="curve"/>
      <point x="562" y="631"/>
      <point x="629" y="600"/>
      <point x="695" y="571" type="curve"/>
      <point x="823" y="518"/>
      <point x="983" y="447"/>
      <point x="983" y="303" type="curve" smooth="yes"/>
      <point x="983" y="148"/>
      <point x="877" y="65"/>
      <point x="711" y="65" type="curve" smooth="yes"/>
      <point x="516" y="65"/>
      <point x="415" y="211"/>
    </contour>
  </outline>
</glyph>
<glyph name="less" format="1">
  <advance width="1440"/>
  <unicode hex="003C"/>
  <outline>
    <contour>
      <point x="221" y="514" type="line" name="hr00"/>
      <point x="1219" y="-11" type="line"/>
      <point x="1219" y="163" type="line"/>
      <point x="419" y="570" type="line"/>
      <point x="1219" y="984" type="line"/>
      <point x="1219" y="1160" type="line"/>
      <point x="221" y="633" type="line"/>
    </contour>
  </outline>
</glyph>
<glyph name="equal" format="1">
  <advance width="1440"/>
  <unicode hex="003D"/>
  <outline>
    <contour>
      <point x="240" y="700" type="line" name="hr00"/>
      <point x="1210" y="700" type="line"/>
      <point x="1210" y="846" type="line"/>
      <point x="240" y="846" type="line"/>
    </contour>
    <contour>
      <point x="240" y="272" type="line"/>
      <point x="1210" y="272" type="line"/>
      <point x="1210" y="418" type="line"/>
      <point x="240" y="418" type="line"/>
    </contour>
  </outline>
</glyph>
<glyph name="question" format="1">
  <advance width="1122"/>
  <unicode hex="003F"/>
  <outline>
    <contour>
      <point x="440" y="467" type="line" name="hr00"/>
      <point x="602" y="467" type="line"/>
      <point x="602" y="532" type="line"/>
      <point x="604" y="792"/>
      <point x="1040" y="830"/>
      <point x="1041" y="1160" type="curve" smooth="yes"/>
      <point x="1042" y="1371"/>
      <point x="871" y="1528"/>
      <point x="537" y="1528" type="curve" smooth="yes"/>
      <point x="309" y="1528"/>
      <point x="122" y="1402"/>
      <point x="75" y="1284" type="curve"/>
      <point x="19" y="1135"/>
      <point x="119" y="1049"/>
      <point x="174" y="1049" type="curve" smooth="yes"/>
      <point x="247" y="1049"/>
      <point x="286" y="1057"/>
      <point x="298" y="1087" type="curve"/>
      <point x="319" y="1367" type="line"/>
      <point x="319" y="1367"/>
      <point x="381" y="1443"/>
      <point x="509" y="1443" type="curve" smooth="yes"/>
      <point x="699" y="1443"/>
      <point x="733" y="1262"/>
      <point x="734" y="1137" type="curve" smooth="yes"/>
      <point x="737" y="832"/>
      <point x="441" y="866"/>
      <point x="440" y="542" type="curve" smooth="yes"/>
    </contour>
    <contour>
      <point x="323" y="176" type="curve" smooth="yes"/>
      <point x="323" y="72"/>
      <point x="407" y="-20"/>
      <point x="516" y="-20" type="curve" smooth="yes"/>
      <point x="625" y="-20"/>
      <point x="711" y="72"/>
      <point x="711" y="176" type="curve" smooth="yes"/>
      <point x="711" y="279"/>
      <point x="625" y="362"/>
      <point x="516" y="362" type="curve" smooth="yes"/>
      <point x="407" y="362"/>
      <point x="323" y="279"/>
    </contour>
  </outline>
</glyph>
<glyph name="at" format="1">
  <advance width="1980"/>
  <unicode hex="0040"/>
  <outline>
    <contour>
      <point x="127" y="351" type="curve" name="hr01" smooth="yes"/>
      <point x="127" y="-162"/>
      <point x="555" y="-338"/>
      <point x="889" y="-338" type="curve" smooth="yes"/>
      <point x="1211" y="-338"/>
      <point x="1394" y="-198"/>
      <point x="1491" y="-92" type="curve"/>
      <point x="1430" y="-30" type="line"/>
      <point x="1430" y="-30"/>
      <point x="1248" y="-227"/>
      <point x="904" y="-227" type="curve" smooth="yes"/>
      <point x="699" y="-227"/>
      <point x="275" y="-147"/>
      <point x="275" y="351" type="curve" smooth="yes"/>
      <point x="275" y="860"/>
      <point x="619" y="1280"/>
      <point x="1111" y="1280" type="curve" smooth="yes"/>
      <point x="1386" y="1280"/>
      <point x="1657" y="1132"/>
      <point x="1657" y="807" type="curve" smooth="yes"/>
      <point x="1657" y="442"/>
      <point x="1369" y="221"/>
      <point x="1244" y="221" type="curve" smooth="yes"/>
      <point x="1185" y="221"/>
      <point x="1168" y="248"/>
      <point x="1168" y="279" type="curve" name="hr02" smooth="yes"/>
      <point x="1168" y="314"/>
      <point x="1181" y="352"/>
      <point x="1188" y="369" type="curve" smooth="yes"/>
      <point x="1434" y="977" type="line"/>
      <point x="1232" y="977" type="line" name="hr03"/>
      <point x="1186" y="838" type="line"/>
      <point x="1189" y="907"/>
      <point x="1130" y="1003"/>
      <point x="1015" y="1003" type="curve" smooth="yes"/>
      <point x="721" y="1003"/>
      <point x="532" y="668"/>
      <point x="532" y="389" type="curve" smooth="yes"/>
      <point x="532" y="181"/>
      <point x="657" y="100"/>
      <point x="775" y="100" type="curve" smooth="yes"/>
      <point x="854" y="100"/>
      <point x="972" y="177"/>
      <point x="1011" y="259" type="curve" name="hr04"/>
      <point x="1013" y="180"/>
      <point x="1061" y="92"/>
      <point x="1183" y="92" type="curve" name="hr05" smooth="yes"/>
      <point x="1379" y="92"/>
      <point x="1780" y="346"/>
      <point x="1780" y="822" type="curve" smooth="yes"/>
      <point x="1780" y="1241"/>
      <point x="1443" y="1398"/>
      <point x="1131" y="1398" type="curve" smooth="yes"/>
      <point x="661" y="1398"/>
      <point x="127" y="1027"/>
    </contour>
    <contour>
      <point x="731" y="403" type="curve" name="hr07" smooth="yes"/>
      <point x="731" y="516"/>
      <point x="843" y="874"/>
      <point x="1029" y="874" type="curve" smooth="yes"/>
      <point x="1137" y="874"/>
      <point x="1132" y="779"/>
      <point x="1125" y="726" type="curve"/>
      <point x="1006" y="416" type="line" smooth="yes"/>
      <point x="985" y="361"/>
      <point x="893" y="231"/>
      <point x="814" y="231" type="curve" smooth="yes"/>
      <point x="738" y="231"/>
      <point x="731" y="314"/>
    </contour>
  </outline>
</glyph>
<glyph name="A" format="1">
  <advance width="1552"/>
  <unicode hex="0041"/>
  <outline>
    <contour>
      <point x="4" y="0" type="curve" name="hr01" smooth="yes"/>
      <point x="467" y="0" type="line" smooth="yes"/>
      <point x="490" y="0"/>
      <point x="491" y="36"/>
      <point x="491" y="51" type="curve" smooth="yes"/>
      <point x="491" y="72"/>
      <point x="484" y="86"/>
      <point x="458" y="88" type="curve" smooth="yes"/>
      <point x="375" y="95"/>
      <point x="293" y="86"/>
      <point x="293" y="120" type="curve" smooth="yes"/>
      <point x="293" y="124"/>
      <point x="293" y="128"/>
      <point x="295" y="132" type="curve" smooth="yes"/>
      <point x="389" y="379" type="line"/>
      <point x="922" y="379" type="line"/>
      <point x="1015" y="160" type="line" smooth="yes"/>
      <point x="1022" y="142"/>
      <point x="1030" y="130"/>
      <point x="1030" y="116" type="curve" smooth="yes"/>
      <point x="1030" y="93"/>
      <point x="959" y="91"/>
      <point x="873" y="88" type="curve" smooth="yes"/>
      <point x="847" y="87"/>
      <point x="840" y="72"/>
      <point x="840" y="51" type="curve" smooth="yes"/>
      <point x="840" y="36"/>
      <point x="851" y="0"/>
      <point x="874" y="0" type="curve" smooth="yes"/>
      <point x="1545" y="0" type="line" smooth="yes"/>
      <point x="1567" y="0"/>
      <point x="1579" y="36"/>
      <point x="1579" y="51" type="curve" smooth="yes"/>
      <point x="1579" y="132"/>
      <point x="1449" y="40"/>
      <point x="1392" y="165" type="curve" name="hr02" smooth="yes"/>
      <point x="784" y="1452" type="line"/>
      <point x="710" y="1452" type="line"/>
      <point x="169" y="165" type="line" smooth="yes"/>
      <point x="117" y="38"/>
      <point x="-20" y="131"/>
      <point x="-20" y="51" type="curve" name="hr03" smooth="yes"/>
      <point x="-20" y="36"/>
      <point x="-18" y="0"/>
    </contour>
    <contour>
      <point x="433" y="495" type="line"/>
      <point x="654" y="1040" type="line"/>
      <point x="872" y="495" type="line"/>
    </contour>
    <contour>
      <point x="714" y="-200" type="move" name="btm"/>
    </contour>
    <contour>
      <point x="752" y="2000" type="move" name="top"/>
    </contour>
  </outline>
</glyph>
<glyph name="B" format="1">
  <advance width="1550"/>
  <unicode hex="0042"/>
  <outline>
    <contour>
      <point x="75" y="51" type="curve" name="hr00" smooth="yes"/>
      <point x="75" y="36"/>
      <point x="86" y="0"/>
      <point x="109" y="0" type="curve" smooth="yes"/>
      <point x="727" y="0" type="line"/>
      <point x="730" y="0" type="line"/>
      <point x="855" y="0" type="line" smooth="yes"/>
      <point x="1249" y="0"/>
      <point x="1441" y="139"/>
      <point x="1441" y="421" type="curve" smooth="yes"/>
      <point x="1441" y="672"/>
      <point x="1163" y="772"/>
      <point x="987" y="768" type="curve"/>
      <point x="1132" y="778"/>
      <point x="1344" y="893"/>
      <point x="1344" y="1110" type="curve" smooth="yes"/>
      <point x="1344" y="1329"/>
      <point x="1145" y="1419"/>
      <point x="794" y="1419" type="curve" smooth="yes"/>
      <point x="100" y="1419" type="line" smooth="yes"/>
      <point x="77" y="1419"/>
      <point x="66" y="1383"/>
      <point x="66" y="1368" type="curve" smooth="yes"/>
      <point x="66" y="1338"/>
      <point x="74" y="1334"/>
      <point x="102" y="1331" type="curve"/>
      <point x="175" y="1326"/>
      <point x="284" y="1320"/>
      <point x="284" y="1234" type="curve" smooth="yes"/>
      <point x="283" y="152" type="line" smooth="yes"/>
      <point x="283" y="108"/>
      <point x="187" y="93"/>
      <point x="108" y="88" type="curve"/>
      <point x="82" y="85"/>
      <point x="75" y="72"/>
    </contour>
    <contour>
      <point x="620" y="802" type="line"/>
      <point x="620" y="1322" type="line"/>
      <point x="733" y="1322" type="line" smooth="yes"/>
      <point x="902" y="1322"/>
      <point x="1017" y="1256"/>
      <point x="1017" y="1073" type="curve" smooth="yes"/>
      <point x="1017" y="869"/>
      <point x="861" y="802"/>
      <point x="706" y="802" type="curve" smooth="yes"/>
    </contour>
    <contour>
      <point x="620" y="138" type="curve"/>
      <point x="620" y="706" type="line"/>
      <point x="709" y="706" type="line" smooth="yes"/>
      <point x="853" y="706"/>
      <point x="1077" y="713"/>
      <point x="1077" y="418" type="curve" smooth="yes"/>
      <point x="1077" y="141"/>
      <point x="915" y="101"/>
      <point x="776" y="101" type="curve" smooth="yes"/>
      <point x="621" y="101"/>
      <point x="620" y="138"/>
    </contour>
    <contour>
      <point x="761" y="-200" type="move" name="btm"/>
    </contour>
    <contour>
      <point x="761" y="2000" type="move" name="top"/>
    </contour>
  </outline>
</glyph>
<glyph name="C" format="1">
  <advance width="1464"/>
  <unicode hex="0043"/>
  <outline>
    <contour>
      <point x="81" y="706" type="curve" name="hr00" smooth="yes"/>
      <point x="81" y="144"/>
      <point x="491" y="-30"/>
      <point x="892" y="-30" type="curve" smooth="yes"/>
      <point x="1130" y="-30"/>
      <point x="1330" y="80"/>
      <point x="1334" y="108" type="curve" smooth="yes"/>
      <point x="1362" y="402" type="line"/>
      <point x="1362" y="425"/>
      <point x="1307" y="436"/>
      <point x="1291" y="436" type="curve" smooth="yes"/>
      <point x="1269" y="436"/>
      <point x="1248" y="429"/>
      <point x="1243" y="403" type="curve" smooth="yes"/>
      <point x="1214" y="220"/>
      <point x="1094" y="65"/>
      <point x="891" y="65" type="curve" smooth="yes"/>
      <point x="731" y="65"/>
      <point x="460" y="152"/>
      <point x="460" y="706" type="curve" smooth="yes"/>
      <point x="460" y="1289"/>
      <point x="706" y="1353"/>
      <point x="869" y="1353" type="curve" smooth="yes"/>
      <point x="1097" y="1353"/>
      <point x="1179" y="1210"/>
      <point x="1214" y="1039" type="curve" smooth="yes"/>
      <point x="1220" y="1013"/>
      <point x="1283" y="1008"/>
      <point x="1305" y="1011" type="curve" smooth="yes"/>
      <point x="1322" y="1013"/>
      <point x="1364" y="1028"/>
      <point x="1361" y="1051" type="curve"/>
      <point x="1344" y="1361" type="line"/>
      <point x="1290" y="1360"/>
      <point x="1196" y="1449"/>
      <point x="871" y="1449" type="curve" smooth="yes"/>
      <point x="519" y="1449"/>
      <point x="81" y="1235"/>
    </contour>
    <contour>
      <point x="829" y="-200" type="move" name="btm"/>
    </contour>
    <contour>
      <point x="837" y="2000" type="move" name="top"/>
    </contour>
  </outline>
</glyph>
<glyph name="D" format="1">
  <advance width="1708"/>
  <unicode hex="0044"/>
  <outline>
    <contour>
      <point x="105" y="51" type="curve" smooth="yes" name="hr00"/>
      <point x="105" y="36"/>
      <point x="116" y="0"/>
      <point x="139" y="0" type="curve" smooth="yes"/>
      <point x="897" y="0" type="line" smooth="yes"/>
      <point x="1197" y="0"/>
      <point x="1635" y="217"/>
      <point x="1635" y="738" type="curve" smooth="yes"/>
      <point x="1635" y="1083"/>
      <point x="1369" y="1417"/>
      <point x="825" y="1419" type="curve"/>
      <point x="129" y="1419" type="line" smooth="yes"/>
      <point x="106" y="1419"/>
      <point x="95" y="1383"/>
      <point x="95" y="1368" type="curve" smooth="yes"/>
      <point x="95" y="1338"/>
      <point x="103" y="1334"/>
      <point x="131" y="1331" type="curve" smooth="yes"/>
      <point x="192" y="1326"/>
      <point x="283" y="1320"/>
      <point x="283" y="1234" type="curve" smooth="yes"/>
      <point x="283" y="152" type="line" smooth="yes"/>
      <point x="283" y="108"/>
      <point x="202" y="93"/>
      <point x="138" y="88" type="curve"/>
      <point x="112" y="85"/>
      <point x="105" y="72"/>
    </contour>
    <contour>
      <point x="620" y="168" type="curve" smooth="yes"/>
      <point x="621" y="1322" type="line"/>
      <point x="818" y="1322" type="line" smooth="yes"/>
      <point x="1051" y="1322"/>
      <point x="1245" y="1229"/>
      <point x="1245" y="734" type="curve" smooth="yes"/>
      <point x="1245" y="161"/>
      <point x="1071" y="101"/>
      <point x="828" y="101" type="curve" smooth="yes"/>
      <point x="654" y="101"/>
      <point x="620" y="140"/>
    </contour>
    <contour>
      <point x="835" y="2000" type="move" name="top"/>
    </contour>
    <contour>
      <point x="835" y="-200" type="move" name="btm"/>
    </contour>
  </outline>
</glyph>
<glyph name="E" format="1">
  <advance width="1477"/>
  <unicode hex="0045"/>
  <outline>
    <contour>
      <point x="104" y="51" type="curve" smooth="yes" name="hr00"/>
      <point x="104" y="36"/>
      <point x="115" y="0"/>
      <point x="138" y="0" type="curve" smooth="yes"/>
      <point x="1403" y="0" type="line"/>
      <point x="1403" y="372" type="line"/>
      <point x="1400" y="395"/>
      <point x="1379" y="406"/>
      <point x="1354" y="406" type="curve" smooth="yes"/>
      <point x="1333" y="406"/>
      <point x="1292" y="398"/>
      <point x="1286" y="373" type="curve" smooth="yes"/>
      <point x="1237" y="172"/>
      <point x="1196" y="101"/>
      <point x="1076" y="101" type="curve" smooth="yes"/>
      <point x="708" y="101" type="line"/>
      <point x="664" y="105"/>
      <point x="619" y="124"/>
      <point x="619" y="197" type="curve" smooth="yes"/>
      <point x="619" y="682" type="line"/>
      <point x="892" y="682" type="line" smooth="yes"/>
      <point x="948" y="682"/>
      <point x="993" y="546"/>
      <point x="996" y="503" type="curve"/>
      <point x="999" y="477"/>
      <point x="1024" y="470"/>
      <point x="1045" y="470" type="curve" smooth="yes"/>
      <point x="1060" y="470"/>
      <point x="1086" y="481"/>
      <point x="1086" y="504" type="curve" smooth="yes"/>
      <point x="1086" y="947" type="line" smooth="yes"/>
      <point x="1086" y="970"/>
      <point x="1060" y="981"/>
      <point x="1045" y="981" type="curve" smooth="yes"/>
      <point x="1024" y="981"/>
      <point x="1002" y="975"/>
      <point x="999" y="949" type="curve" smooth="yes"/>
      <point x="994" y="909"/>
      <point x="950" y="785"/>
      <point x="898" y="778" type="curve"/>
      <point x="619" y="778" type="line"/>
      <point x="619" y="1320" type="line"/>
      <point x="1016" y="1320" type="line" smooth="yes"/>
      <point x="1124" y="1320"/>
      <point x="1142" y="1243"/>
      <point x="1222" y="1093" type="curve" smooth="yes"/>
      <point x="1238" y="1063"/>
      <point x="1265" y="1060"/>
      <point x="1286" y="1060" type="curve" smooth="yes"/>
      <point x="1301" y="1060"/>
      <point x="1325" y="1071"/>
      <point x="1323" y="1094" type="curve" smooth="yes"/>
      <point x="1288" y="1419" type="line"/>
      <point x="129" y="1419" type="line" smooth="yes"/>
      <point x="106" y="1419"/>
      <point x="95" y="1383"/>
      <point x="95" y="1368" type="curve" smooth="yes"/>
      <point x="95" y="1338"/>
      <point x="103" y="1334"/>
      <point x="131" y="1331" type="curve" smooth="yes"/>
      <point x="192" y="1326"/>
      <point x="283" y="1320"/>
      <point x="283" y="1234" type="curve" smooth="yes"/>
      <point x="283" y="152" type="line" smooth="yes"/>
      <point x="283" y="108"/>
      <point x="201" y="93"/>
      <point x="137" y="88" type="curve"/>
      <point x="111" y="85"/>
      <point x="104" y="72"/>
    </contour>
    <contour>
      <point x="795" y="2000" type="move" name="top"/>
    </contour>
    <contour>
      <point x="748" y="-200" type="move" name="btm"/>
    </contour>
  </outline>
</glyph>
<glyph name="F" format="1">
  <advance width="1374"/>
  <unicode hex="0046"/>
  <outline>
    <contour>
      <point x="74" y="51" type="curve" smooth="yes" name="hr00"/>
      <point x="74" y="36"/>
      <point x="85" y="0"/>
      <point x="108" y="0" type="curve" smooth="yes"/>
      <point x="843" y="0" type="line" smooth="yes"/>
      <point x="866" y="0"/>
      <point x="877" y="36"/>
      <point x="877" y="51" type="curve" smooth="yes"/>
      <point x="877" y="81"/>
      <point x="863" y="88"/>
      <point x="841" y="88" type="curve" smooth="yes"/>
      <point x="756" y="88"/>
      <point x="619" y="111"/>
      <point x="619" y="197" type="curve" smooth="yes"/>
      <point x="619" y="650" type="line"/>
      <point x="892" y="650" type="line" smooth="yes"/>
      <point x="948" y="650"/>
      <point x="993" y="514"/>
      <point x="996" y="471" type="curve"/>
      <point x="999" y="445"/>
      <point x="1024" y="438"/>
      <point x="1045" y="438" type="curve" smooth="yes"/>
      <point x="1060" y="438"/>
      <point x="1086" y="449"/>
      <point x="1086" y="472" type="curve" smooth="yes"/>
      <point x="1086" y="915" type="line" smooth="yes"/>
      <point x="1086" y="938"/>
      <point x="1060" y="949"/>
      <point x="1045" y="949" type="curve" smooth="yes"/>
      <point x="1024" y="949"/>
      <point x="1002" y="943"/>
      <point x="999" y="917" type="curve" smooth="yes"/>
      <point x="994" y="877"/>
      <point x="950" y="753"/>
      <point x="898" y="746" type="curve"/>
      <point x="619" y="746" type="line"/>
      <point x="619" y="1320" type="line"/>
      <point x="996" y="1320" type="line" smooth="yes"/>
      <point x="1104" y="1320"/>
      <point x="1126" y="1219"/>
      <point x="1206" y="1069" type="curve" smooth="yes"/>
      <point x="1222" y="1039"/>
      <point x="1262" y="1036"/>
      <point x="1283" y="1036" type="curve" smooth="yes"/>
      <point x="1298" y="1036"/>
      <point x="1320" y="1047"/>
      <point x="1320" y="1070" type="curve"/>
      <point x="1281" y="1418" type="line"/>
      <point x="99" y="1419" type="line" smooth="yes"/>
      <point x="76" y="1419"/>
      <point x="65" y="1383"/>
      <point x="65" y="1368" type="curve" smooth="yes"/>
      <point x="65" y="1338"/>
      <point x="73" y="1334"/>
      <point x="101" y="1331" type="curve"/>
      <point x="174" y="1326"/>
      <point x="283" y="1320"/>
      <point x="283" y="1234" type="curve" smooth="yes"/>
      <point x="283" y="152" type="line" smooth="yes"/>
      <point x="283" y="108"/>
      <point x="186" y="93"/>
      <point x="107" y="88" type="curve"/>
      <point x="81" y="85"/>
      <point x="74" y="72"/>
    </contour>
    <contour>
      <point x="703" y="2000" type="move" name="top"/>
    </contour>
    <contour>
      <point x="703" y="-200" type="move" name="btm"/>
    </contour>
  </outline>
</glyph>
<glyph name="G" format="1">
  <advance width="1653"/>
  <unicode hex="0047"/>
  <outline>
    <contour>
      <point x="96" y="706" type="curve" smooth="yes" name="hr00"/>
      <point x="96" y="153"/>
      <point x="589" y="-30"/>
      <point x="905" y="-30" type="curve" smooth="yes"/>
      <point x="1219" y="-30"/>
      <point x="1441" y="79"/>
      <point x="1471" y="123" type="curve"/>
      <point x="1470" y="489" type="line" smooth="yes"/>
      <point x="1470" y="533"/>
      <point x="1520" y="547"/>
      <point x="1579" y="553" type="curve" smooth="yes"/>
      <point x="1605" y="556"/>
      <point x="1612" y="569"/>
      <point x="1612" y="590" type="curve" smooth="yes"/>
      <point x="1612" y="605"/>
      <point x="1601" y="641"/>
      <point x="1578" y="641" type="curve" smooth="yes"/>
      <point x="953" y="641" type="line" smooth="yes"/>
      <point x="930" y="641"/>
      <point x="919" y="605"/>
      <point x="919" y="590" type="curve" smooth="yes"/>
      <point x="919" y="560"/>
      <point x="927" y="555"/>
      <point x="955" y="553" type="curve" smooth="yes"/>
      <point x="1032" y="546"/>
      <point x="1141" y="542"/>
      <point x="1141" y="456" type="curve" smooth="yes"/>
      <point x="1141" y="194" type="line" smooth="yes"/>
      <point x="1141" y="131"/>
      <point x="1108" y="65"/>
      <point x="922" y="65" type="curve" smooth="yes"/>
      <point x="755" y="65"/>
      <point x="475" y="217"/>
      <point x="475" y="706" type="curve" smooth="yes"/>
      <point x="475" y="1260"/>
      <point x="769" y="1353"/>
      <point x="913" y="1353" type="curve" smooth="yes"/>
      <point x="1157" y="1353"/>
      <point x="1257" y="1207"/>
      <point x="1303" y="1039" type="curve"/>
      <point x="1308" y="1013"/>
      <point x="1367" y="1008"/>
      <point x="1389" y="1011" type="curve" smooth="yes"/>
      <point x="1406" y="1013"/>
      <point x="1447" y="1028"/>
      <point x="1445" y="1051" type="curve" smooth="yes"/>
      <point x="1423" y="1361" type="line"/>
      <point x="1353" y="1392"/>
      <point x="1175" y="1449"/>
      <point x="915" y="1449" type="curve" smooth="yes"/>
      <point x="571" y="1449"/>
      <point x="96" y="1256"/>
    </contour>
    <contour>
      <point x="876" y="2000" type="move" name="top"/>
    </contour>
    <contour>
      <point x="828" y="-200" type="move" name="btm"/>
    </contour>
  </outline>
</glyph>
<glyph name="I" format="1">
  <advance width="913"/>
  <unicode hex="0049"/>
  <outline>
    <contour>
      <point x="109" y="51" type="curve" name="hr00" smooth="yes"/>
      <point x="109" y="36"/>
      <point x="120" y="0"/>
      <point x="143" y="0" type="curve" smooth="yes"/>
      <point x="778" y="0" type="line" smooth="yes"/>
      <point x="801" y="0"/>
      <point x="812" y="36"/>
      <point x="812" y="51" type="curve" smooth="yes"/>
      <point x="812" y="81"/>
      <point x="804" y="85"/>
      <point x="776" y="88" type="curve" smooth="yes"/>
      <point x="715" y="93"/>
      <point x="624" y="99"/>
      <point x="624" y="185" type="curve" smooth="yes"/>
      <point x="625" y="1267" type="line" smooth="yes"/>
      <point x="625" y="1311"/>
      <point x="702" y="1326"/>
      <point x="770" y="1331" type="curve" smooth="yes"/>
      <point x="796" y="1334"/>
      <point x="803" y="1347"/>
      <point x="803" y="1368" type="curve" smooth="yes"/>
      <point x="803" y="1383"/>
      <point x="792" y="1419"/>
      <point x="769" y="1419" type="curve" smooth="yes"/>
      <point x="134" y="1419" type="line" smooth="yes"/>
      <point x="111" y="1419"/>
      <point x="100" y="1383"/>
      <point x="100" y="1368" type="curve" smooth="yes"/>
      <point x="100" y="1338"/>
      <point x="108" y="1334"/>
      <point x="136" y="1331" type="curve" smooth="yes"/>
      <point x="197" y="1326"/>
      <point x="288" y="1320"/>
      <point x="288" y="1234" type="curve" smooth="yes"/>
      <point x="287" y="152" type="line" smooth="yes"/>
      <point x="287" y="108"/>
      <point x="206" y="93"/>
      <point x="142" y="88" type="curve" smooth="yes"/>
      <point x="116" y="85"/>
      <point x="109" y="72"/>
    </contour>
    <contour>
      <point x="456" y="-200" type="move" name="btm"/>
    </contour>
    <contour>
      <point x="456" y="2000" type="move" name="top"/>
    </contour>
  </outline>
</glyph>
<glyph name="J" format="1">
  <advance width="1219"/>
  <unicode hex="004A"/>
  <outline>
    <contour>
      <point x="177" y="94" type="curve" smooth="yes" name="hr00"/>
      <point x="271" y="13"/>
      <point x="393" y="-30"/>
      <point x="489" y="-30" type="curve" smooth="yes"/>
      <point x="716" y="-30"/>
      <point x="1021" y="48"/>
      <point x="1021" y="439" type="curve" smooth="yes"/>
      <point x="1021" y="1267" type="line" smooth="yes"/>
      <point x="1021" y="1311"/>
      <point x="1086" y="1327"/>
      <point x="1187" y="1331" type="curve" smooth="yes"/>
      <point x="1213" y="1332"/>
      <point x="1220" y="1347"/>
      <point x="1220" y="1368" type="curve" smooth="yes"/>
      <point x="1220" y="1383"/>
      <point x="1209" y="1419"/>
      <point x="1186" y="1419" type="curve" smooth="yes"/>
      <point x="481" y="1419" type="line" smooth="yes"/>
      <point x="458" y="1419"/>
      <point x="447" y="1383"/>
      <point x="447" y="1368" type="curve" smooth="yes"/>
      <point x="447" y="1338"/>
      <point x="455" y="1334"/>
      <point x="483" y="1331" type="curve"/>
      <point x="564" y="1326"/>
      <point x="685" y="1320"/>
      <point x="685" y="1234" type="curve" smooth="yes"/>
      <point x="684" y="406" type="line" smooth="yes"/>
      <point x="684" y="161"/>
      <point x="621" y="59"/>
      <point x="480" y="59" type="curve" smooth="yes"/>
      <point x="430" y="59"/>
      <point x="387" y="69"/>
      <point x="351" y="84" type="curve"/>
      <point x="377" y="211"/>
      <point x="408" y="404"/>
      <point x="410" y="461" type="curve" smooth="yes"/>
      <point x="411" y="496"/>
      <point x="363" y="541"/>
      <point x="286" y="541" type="curve" smooth="yes"/>
      <point x="210" y="541"/>
      <point x="121" y="486"/>
      <point x="100" y="431" type="curve" smooth="yes"/>
      <point x="60" y="329"/>
      <point x="74" y="183"/>
    </contour>
    <contour>
      <point x="788" y="1988" type="move" name="top"/>
    </contour>
    <contour>
      <point x="565" y="-200" type="move" name="btm"/>
    </contour>
  </outline>
</glyph>
<glyph name="K" format="1">
  <advance width="1673"/>
  <unicode hex="004B"/>
  <outline>
    <contour>
      <point x="105" y="51" type="curve" smooth="yes" name="hr00"/>
      <point x="105" y="36"/>
      <point x="116" y="0"/>
      <point x="139" y="0" type="curve" smooth="yes"/>
      <point x="764" y="0" type="line" smooth="yes"/>
      <point x="787" y="0"/>
      <point x="798" y="36"/>
      <point x="798" y="51" type="curve" smooth="yes"/>
      <point x="798" y="81"/>
      <point x="790" y="85"/>
      <point x="762" y="88" type="curve" smooth="yes"/>
      <point x="701" y="93"/>
      <point x="620" y="99"/>
      <point x="620" y="185" type="curve" smooth="yes"/>
      <point x="621" y="1267" type="line" smooth="yes"/>
      <point x="621" y="1311"/>
      <point x="702" y="1326"/>
      <point x="756" y="1331" type="curve" smooth="yes"/>
      <point x="782" y="1334"/>
      <point x="789" y="1347"/>
      <point x="789" y="1368" type="curve" smooth="yes"/>
      <point x="789" y="1383"/>
      <point x="778" y="1419"/>
      <point x="755" y="1419" type="curve" smooth="yes"/>
      <point x="130" y="1419" type="line" smooth="yes"/>
      <point x="107" y="1419"/>
      <point x="96" y="1383"/>
      <point x="96" y="1368" type="curve" smooth="yes"/>
      <point x="96" y="1338"/>
      <point x="104" y="1334"/>
      <point x="132" y="1331" type="curve" smooth="yes"/>
      <point x="193" y="1326"/>
      <point x="284" y="1320"/>
      <point x="284" y="1234" type="curve" smooth="yes"/>
      <point x="283" y="162" type="line" smooth="yes"/>
      <point x="283" y="118"/>
      <point x="202" y="93"/>
      <point x="138" y="88" type="curve"/>
      <point x="112" y="85"/>
      <point x="105" y="72"/>
    </contour>
    <contour>
      <point x="622" y="692" type="line"/>
      <point x="843" y="708"/>
      <point x="1034" y="0"/>
      <point x="1248" y="0" type="curve" smooth="yes"/>
      <point x="1612" y="0" type="line" smooth="yes"/>
      <point x="1634" y="0"/>
      <point x="1646" y="31"/>
      <point x="1646" y="46" type="curve" smooth="yes"/>
      <point x="1646" y="76"/>
      <point x="1638" y="86"/>
      <point x="1610" y="89" type="curve" smooth="yes"/>
      <point x="1561" y="94"/>
      <point x="1483" y="156"/>
      <point x="1386" y="293" type="curve" smooth="yes"/>
      <point x="1260" y="472"/>
      <point x="1010" y="779"/>
      <point x="905" y="826" type="curve"/>
      <point x="1350" y="1260" type="line" smooth="yes"/>
      <point x="1397" y="1306"/>
      <point x="1483" y="1330"/>
      <point x="1551" y="1330" type="curve" smooth="yes"/>
      <point x="1573" y="1330"/>
      <point x="1584" y="1343"/>
      <point x="1584" y="1367" type="curve" smooth="yes"/>
      <point x="1584" y="1382"/>
      <point x="1573" y="1418"/>
      <point x="1550" y="1418" type="curve" smooth="yes"/>
      <point x="1068" y="1418" type="line" smooth="yes"/>
      <point x="1045" y="1418"/>
      <point x="1034" y="1382"/>
      <point x="1034" y="1367" type="curve" smooth="yes"/>
      <point x="1034" y="1346"/>
      <point x="1039" y="1333"/>
      <point x="1065" y="1330" type="curve" smooth="yes"/>
      <point x="1109" y="1326"/>
      <point x="1211" y="1319"/>
      <point x="1171" y="1276" type="curve" smooth="yes"/>
    </contour>
    <contour>
      <point x="862" y="2000" type="move" name="top"/>
    </contour>
    <contour>
      <point x="941" y="-200" type="move" name="btm"/>
    </contour>
  </outline>
</glyph>
<glyph name="L" format="1">
  <advance width="1405"/>
  <unicode hex="004C"/>
  <outline>
    <contour>
      <point x="105" y="51" type="curve" name="hr00" smooth="yes"/>
      <point x="105" y="36"/>
      <point x="116" y="0"/>
      <point x="139" y="0" type="curve" smooth="yes"/>
      <point x="1306" y="0" type="line"/>
      <point x="1365" y="439" type="line" smooth="yes"/>
      <point x="1368" y="462"/>
      <point x="1333" y="473"/>
      <point x="1308" y="473" type="curve" smooth="yes"/>
      <point x="1287" y="473"/>
      <point x="1237" y="464"/>
      <point x="1229" y="440" type="curve" smooth="yes"/>
      <point x="1179" y="296"/>
      <point x="1079" y="101"/>
      <point x="986" y="101" type="curve" smooth="yes"/>
      <point x="712" y="101" type="line" smooth="yes"/>
      <point x="663" y="101"/>
      <point x="620" y="111"/>
      <point x="620" y="177" type="curve" smooth="yes"/>
      <point x="620" y="1237" type="line" smooth="yes"/>
      <point x="620" y="1311"/>
      <point x="701" y="1331"/>
      <point x="815" y="1331" type="curve" smooth="yes"/>
      <point x="841" y="1331"/>
      <point x="848" y="1347"/>
      <point x="848" y="1368" type="curve" smooth="yes"/>
      <point x="848" y="1383"/>
      <point x="837" y="1419"/>
      <point x="814" y="1419" type="curve" smooth="yes"/>
      <point x="129" y="1419" type="line" smooth="yes"/>
      <point x="106" y="1419"/>
      <point x="95" y="1383"/>
      <point x="95" y="1368" type="curve" smooth="yes"/>
      <point x="95" y="1338"/>
      <point x="103" y="1333"/>
      <point x="131" y="1331" type="curve" smooth="yes"/>
      <point x="202" y="1326"/>
      <point x="283" y="1320"/>
      <point x="283" y="1234" type="curve" smooth="yes"/>
      <point x="283" y="162" type="line" smooth="yes"/>
      <point x="283" y="118"/>
      <point x="202" y="93"/>
      <point x="138" y="88" type="curve"/>
      <point x="112" y="85"/>
      <point x="105" y="72"/>
    </contour>
    <contour>
      <point x="711" y="-200" type="move" name="btm"/>
    </contour>
    <contour>
      <point x="711" y="2000" type="move" name="top"/>
    </contour>
  </outline>
</glyph>
<glyph name="M" format="1">
  <advance width="2095"/>
  <unicode hex="004D"/>
  <outline>
    <contour>
      <point x="74" y="51" type="curve" name="hr00" smooth="yes"/>
      <point x="74" y="36"/>
      <point x="85" y="0"/>
      <point x="108" y="0" type="curve" smooth="yes"/>
      <point x="573" y="0" type="line" smooth="yes"/>
      <point x="596" y="0"/>
      <point x="607" y="36"/>
      <point x="607" y="51" type="curve" smooth="yes"/>
      <point x="607" y="81"/>
      <point x="599" y="85"/>
      <point x="571" y="88" type="curve"/>
      <point x="498" y="93"/>
      <point x="379" y="99"/>
      <point x="379" y="185" type="curve" smooth="yes"/>
      <point x="379" y="1281" type="line"/>
      <point x="417" y="1281" type="line"/>
      <point x="935" y="0" type="line"/>
      <point x="936" y="3" type="line"/>
      <point x="936" y="0" type="line"/>
      <point x="986" y="0" type="line"/>
      <point x="1478" y="1281" type="line"/>
      <point x="1506" y="1281" type="line"/>
      <point x="1506" y="152" type="line" smooth="yes"/>
      <point x="1506" y="108"/>
      <point x="1415" y="93"/>
      <point x="1351" y="88" type="curve"/>
      <point x="1325" y="85"/>
      <point x="1318" y="72"/>
      <point x="1318" y="51" type="curve" smooth="yes"/>
      <point x="1318" y="36"/>
      <point x="1329" y="0"/>
      <point x="1352" y="0" type="curve" smooth="yes"/>
      <point x="1997" y="0" type="line" smooth="yes"/>
      <point x="2020" y="0"/>
      <point x="2031" y="36"/>
      <point x="2031" y="51" type="curve" smooth="yes"/>
      <point x="2031" y="81"/>
      <point x="2023" y="85"/>
      <point x="1995" y="88" type="curve" smooth="yes"/>
      <point x="1934" y="93"/>
      <point x="1844" y="99"/>
      <point x="1844" y="185" type="curve" smooth="yes"/>
      <point x="1844" y="1267" type="line" smooth="yes"/>
      <point x="1844" y="1311"/>
      <point x="1921" y="1326"/>
      <point x="1989" y="1331" type="curve"/>
      <point x="2015" y="1334"/>
      <point x="2022" y="1347"/>
      <point x="2022" y="1368" type="curve" smooth="yes"/>
      <point x="2022" y="1383"/>
      <point x="2011" y="1419"/>
      <point x="1988" y="1419" type="curve" smooth="yes"/>
      <point x="1411" y="1419" type="line"/>
      <point x="1411" y="1398"/>
      <point x="1401" y="1350"/>
      <point x="1394" y="1331" type="curve" smooth="yes"/>
      <point x="1070" y="497" type="line"/>
      <point x="762" y="1333" type="line"/>
      <point x="753" y="1354"/>
      <point x="745" y="1393"/>
      <point x="741" y="1414" type="curve"/>
      <point x="741" y="1419" type="line"/>
      <point x="99" y="1419" type="line"/>
      <point x="76" y="1418"/>
      <point x="65" y="1383"/>
      <point x="65" y="1368" type="curve" smooth="yes"/>
      <point x="65" y="1338"/>
      <point x="73" y="1334"/>
      <point x="101" y="1331" type="curve"/>
      <point x="174" y="1326"/>
      <point x="282" y="1320"/>
      <point x="282" y="1234" type="curve" smooth="yes"/>
      <point x="282" y="184" type="line" smooth="yes"/>
      <point x="282" y="100"/>
      <point x="186" y="93"/>
      <point x="107" y="88" type="curve"/>
      <point x="81" y="85"/>
      <point x="74" y="72"/>
    </contour>
    <contour>
      <point x="985" y="-200" type="move" name="btm"/>
    </contour>
    <contour>
      <point x="1020" y="2000" type="move" name="top"/>
    </contour>
  </outline>
</glyph>
<glyph name="N" format="1">
  <advance width="1718"/>
  <unicode hex="004E"/>
  <outline>
    <contour>
      <point x="68" y="51" type="curve" smooth="yes" name="hr01"/>
      <point x="68" y="36"/>
      <point x="79" y="0"/>
      <point x="102" y="0" type="curve" smooth="yes"/>
      <point x="617" y="0" type="line" smooth="yes"/>
      <point x="640" y="0"/>
      <point x="651" y="36"/>
      <point x="651" y="51" type="curve" smooth="yes"/>
      <point x="651" y="81"/>
      <point x="643" y="85"/>
      <point x="615" y="88" type="curve" smooth="yes"/>
      <point x="554" y="93"/>
      <point x="413" y="99"/>
      <point x="413" y="185" type="curve" smooth="yes"/>
      <point x="413" y="1080" type="line"/>
      <point x="430" y="1080" type="line"/>
      <point x="1311" y="-8" type="line" smooth="yes" name="hr02"/>
      <point x="1321" y="-20"/>
      <point x="1344" y="-30"/>
      <point x="1365" y="-30" type="curve" smooth="yes"/>
      <point x="1406" y="-30"/>
      <point x="1479" y="-12"/>
      <point x="1475" y="40" type="curve" smooth="yes"/>
      <point x="1472" y="78"/>
      <point x="1469" y="88"/>
      <point x="1469" y="113" type="curve" smooth="yes"/>
      <point x="1469" y="1239" type="line" smooth="yes"/>
      <point x="1469" y="1306"/>
      <point x="1583" y="1325"/>
      <point x="1644" y="1331" type="curve" smooth="yes"/>
      <point x="1670" y="1334"/>
      <point x="1677" y="1347"/>
      <point x="1677" y="1368" type="curve" smooth="yes"/>
      <point x="1677" y="1383"/>
      <point x="1666" y="1419"/>
      <point x="1643" y="1419" type="curve" smooth="yes"/>
      <point x="1168" y="1419" type="line" smooth="yes"/>
      <point x="1145" y="1419"/>
      <point x="1134" y="1383"/>
      <point x="1134" y="1368" type="curve" smooth="yes"/>
      <point x="1134" y="1338"/>
      <point x="1142" y="1334"/>
      <point x="1170" y="1331" type="curve" smooth="yes"/>
      <point x="1231" y="1326"/>
      <point x="1352" y="1320"/>
      <point x="1352" y="1234" type="curve" smooth="yes"/>
      <point x="1352" y="483" type="line"/>
      <point x="1340" y="483" type="line"/>
      <point x="581" y="1419" type="line"/>
      <point x="123" y="1419" type="line" smooth="yes"/>
      <point x="100" y="1419"/>
      <point x="89" y="1383"/>
      <point x="89" y="1368" type="curve" smooth="yes"/>
      <point x="89" y="1338"/>
      <point x="97" y="1334"/>
      <point x="125" y="1331" type="curve" smooth="yes"/>
      <point x="186" y="1326"/>
      <point x="286" y="1320"/>
      <point x="286" y="1234" type="curve" smooth="yes"/>
      <point x="286" y="172" type="line" smooth="yes"/>
      <point x="286" y="108"/>
      <point x="165" y="93"/>
      <point x="101" y="88" type="curve" name="hr03"/>
      <point x="75" y="85"/>
      <point x="68" y="72"/>
    </contour>
    <contour>
      <point x="850" y="2000" type="move" name="top"/>
    </contour>
    <contour>
      <point x="850" y="-200" type="move" name="btm"/>
    </contour>
  </outline>
</glyph>
<glyph name="O" format="1">
  <advance width="1679"/>
  <unicode hex="004F"/>
  <outline>
    <contour>
      <point x="83" y="716" type="curve" smooth="yes" name="hr00"/>
      <point x="83" y="306"/>
      <point x="376" y="-29"/>
      <point x="839" y="-29" type="curve" smooth="yes"/>
      <point x="1302" y="-29"/>
      <point x="1596" y="306"/>
      <point x="1596" y="716" type="curve" smooth="yes"/>
      <point x="1596" y="1126"/>
      <point x="1303" y="1449"/>
      <point x="839" y="1449" type="curve" smooth="yes"/>
      <point x="375" y="1449"/>
      <point x="83" y="1126"/>
    </contour>
    <contour>
      <point x="843" y="65" type="curve" smooth="yes"/>
      <point x="590" y="65"/>
      <point x="469" y="312"/>
      <point x="469" y="714" type="curve" smooth="yes"/>
      <point x="469" y="1116"/>
      <point x="584" y="1356"/>
      <point x="837" y="1356" type="curve" smooth="yes"/>
      <point x="1090" y="1356"/>
      <point x="1210" y="1116"/>
      <point x="1210" y="714" type="curve" smooth="yes"/>
      <point x="1210" y="312"/>
      <point x="1096" y="65"/>
    </contour>
    <contour>
      <point x="839" y="2000" type="move" name="top"/>
    </contour>
    <contour>
      <point x="839" y="-200" type="move" name="btm"/>
    </contour>
  </outline>
</glyph>
<glyph name="P" format="1">
  <advance width="1436"/>
  <unicode hex="0050"/>
  <outline>
    <contour>
      <point x="115" y="51" type="curve" smooth="yes" name="hr01"/>
      <point x="115" y="36"/>
      <point x="126" y="0"/>
      <point x="149" y="0" type="curve" smooth="yes"/>
      <point x="844" y="0" type="line" smooth="yes"/>
      <point x="867" y="0"/>
      <point x="878" y="36"/>
      <point x="878" y="51" type="curve" smooth="yes"/>
      <point x="878" y="81"/>
      <point x="870" y="85"/>
      <point x="842" y="88" type="curve"/>
      <point x="765" y="93"/>
      <point x="621" y="99"/>
      <point x="621" y="185" type="curve" smooth="yes"/>
      <point x="621" y="555" type="line"/>
      <point x="803" y="555" type="line" smooth="yes"/>
      <point x="1210" y="555"/>
      <point x="1396" y="742"/>
      <point x="1396" y="1010" type="curve" smooth="yes"/>
      <point x="1396" y="1321"/>
      <point x="1158" y="1429"/>
      <point x="833" y="1429" type="curve" smooth="yes"/>
      <point x="724" y="1429"/>
      <point x="571" y="1419"/>
      <point x="425" y="1419" type="curve" name="hr02"/>
      <point x="130" y="1419" type="line" smooth="yes"/>
      <point x="107" y="1419"/>
      <point x="96" y="1383"/>
      <point x="96" y="1368" type="curve" smooth="yes"/>
      <point x="96" y="1338"/>
      <point x="104" y="1334"/>
      <point x="132" y="1331" type="curve" smooth="yes"/>
      <point x="193" y="1326"/>
      <point x="283" y="1320"/>
      <point x="283" y="1234" type="curve" smooth="yes"/>
      <point x="283" y="152" type="line" smooth="yes"/>
      <point x="283" y="108"/>
      <point x="212" y="93"/>
      <point x="148" y="88" type="curve"/>
      <point x="122" y="85"/>
      <point x="115" y="72"/>
    </contour>
    <contour>
      <point x="621" y="651" type="line"/>
      <point x="621" y="1332" type="line"/>
      <point x="720" y="1332" type="line" smooth="yes"/>
      <point x="920" y="1332"/>
      <point x="1028" y="1265"/>
      <point x="1028" y="989" type="curve" smooth="yes"/>
      <point x="1028" y="721"/>
      <point x="864" y="651"/>
      <point x="720" y="651" type="curve" smooth="yes"/>
    </contour>
    <contour>
      <point x="728" y="2000" type="move" name="top"/>
    </contour>
    <contour>
      <point x="728" y="-200" type="move" name="btm"/>
    </contour>
  </outline>
</glyph>
<glyph name="Q" format="1">
  <advance width="1679"/>
  <unicode hex="0051"/>
  <outline>
    <contour>
      <point x="653" y="-12" type="curve" name="hr00"/>
      <point x="717" y="-370"/>
      <point x="1000" y="-419"/>
      <point x="1220" y="-419" type="curve" smooth="yes"/>
      <point x="1329" y="-419"/>
      <point x="1433" y="-393"/>
      <point x="1433" y="-393" type="curve"/>
      <point x="1433" y="-303" type="line"/>
      <point x="1097" y="-309"/>
      <point x="1044" y="-119"/>
      <point x="1035" y="-5" type="curve"/>
      <point x="1377" y="79"/>
      <point x="1585" y="371"/>
      <point x="1585" y="716" type="curve" smooth="yes"/>
      <point x="1585" y="1126"/>
      <point x="1292" y="1449"/>
      <point x="828" y="1449" type="curve" smooth="yes"/>
      <point x="364" y="1449"/>
      <point x="72" y="1126"/>
      <point x="72" y="716" type="curve" smooth="yes"/>
      <point x="72" y="360"/>
      <point x="292" y="61"/>
    </contour>
    <contour>
      <point x="832" y="65" type="curve" smooth="yes"/>
      <point x="579" y="65"/>
      <point x="458" y="312"/>
      <point x="458" y="714" type="curve" smooth="yes"/>
      <point x="458" y="1116"/>
      <point x="573" y="1356"/>
      <point x="826" y="1356" type="curve" smooth="yes"/>
      <point x="1079" y="1356"/>
      <point x="1199" y="1116"/>
      <point x="1199" y="714" type="curve" smooth="yes"/>
      <point x="1199" y="312"/>
      <point x="1085" y="65"/>
    </contour>
    <contour>
      <point x="839" y="-200" type="move" name="btm"/>
    </contour>
    <contour>
      <point x="839" y="2000" type="move" name="top"/>
    </contour>
  </outline>
</glyph>
<glyph name="R" format="1">
  <advance width="1632"/>
  <unicode hex="0052"/>
  <outline>
    <contour>
      <point x="114" y="51" type="curve" smooth="yes" name="hr01"/>
      <point x="114" y="36"/>
      <point x="125" y="0"/>
      <point x="148" y="0" type="curve" smooth="yes"/>
      <point x="763" y="0" type="line" smooth="yes"/>
      <point x="786" y="0"/>
      <point x="797" y="36"/>
      <point x="797" y="51" type="curve" smooth="yes"/>
      <point x="797" y="81"/>
      <point x="789" y="85"/>
      <point x="761" y="88" type="curve"/>
      <point x="688" y="93"/>
      <point x="619" y="99"/>
      <point x="619" y="185" type="curve" smooth="yes"/>
      <point x="619" y="615" type="line"/>
      <point x="801" y="615" type="line"/>
      <point x="903" y="500"/>
      <point x="984" y="200"/>
      <point x="1086" y="70" type="curve"/>
      <point x="1114" y="37"/>
      <point x="1148" y="0"/>
      <point x="1219" y="0" type="curve" smooth="yes"/>
      <point x="1571" y="0" type="line" smooth="yes"/>
      <point x="1593" y="0"/>
      <point x="1606" y="17"/>
      <point x="1607" y="32" type="curve" smooth="yes"/>
      <point x="1609" y="62"/>
      <point x="1603" y="86"/>
      <point x="1575" y="89" type="curve" smooth="yes"/>
      <point x="1487" y="99"/>
      <point x="1392" y="245"/>
      <point x="1335" y="317" type="curve"/>
      <point x="1258" y="418"/>
      <point x="1196" y="560"/>
      <point x="1121" y="656" type="curve"/>
      <point x="1322" y="723"/>
      <point x="1406" y="846"/>
      <point x="1406" y="1050" type="curve" smooth="yes"/>
      <point x="1406" y="1337"/>
      <point x="1184" y="1429"/>
      <point x="816" y="1429" type="curve" smooth="yes"/>
      <point x="639" y="1429"/>
      <point x="563" y="1419"/>
      <point x="366" y="1419" type="curve" smooth="yes" name="hr02"/>
      <point x="129" y="1419" type="line" smooth="yes"/>
      <point x="106" y="1419"/>
      <point x="95" y="1383"/>
      <point x="95" y="1368" type="curve" smooth="yes"/>
      <point x="95" y="1338"/>
      <point x="103" y="1334"/>
      <point x="131" y="1331" type="curve" smooth="yes"/>
      <point x="192" y="1326"/>
      <point x="283" y="1320"/>
      <point x="283" y="1234" type="curve" smooth="yes"/>
      <point x="283" y="152" type="line" smooth="yes"/>
      <point x="283" y="108"/>
      <point x="211" y="93"/>
      <point x="147" y="88" type="curve"/>
      <point x="121" y="85"/>
      <point x="114" y="72"/>
    </contour>
    <contour>
      <point x="619" y="711" type="line"/>
      <point x="619" y="1325" type="line"/>
      <point x="645" y="1328"/>
      <point x="673" y="1332"/>
      <point x="733" y="1332" type="curve" smooth="yes"/>
      <point x="941" y="1332"/>
      <point x="1027" y="1271"/>
      <point x="1027" y="1019" type="curve" smooth="yes"/>
      <point x="1027" y="751"/>
      <point x="918" y="711"/>
      <point x="753" y="711" type="curve" smooth="yes"/>
    </contour>
    <contour>
      <point x="851" y="2000" type="move" name="top"/>
    </contour>
    <contour>
      <point x="904" y="-200" type="move" name="btm"/>
    </contour>
  </outline>
</glyph>
<glyph name="S" format="1">
  <advance width="1329"/>
  <unicode hex="0053"/>
  <outline>
    <contour>
      <point x="129" y="53" type="curve" name="hr01" smooth="yes"/>
      <point x="126" y="3"/>
      <point x="203" y="-20"/>
      <point x="261" y="46" type="curve" smooth="yes"/>
      <point x="299" y="88"/>
      <point x="312" y="61"/>
      <point x="368" y="41" type="curve" smooth="yes"/>
      <point x="415" y="24"/>
      <point x="550" y="-30"/>
      <point x="683" y="-30" type="curve" smooth="yes"/>
      <point x="1043" y="-30"/>
      <point x="1261" y="117"/>
      <point x="1261" y="372" type="curve" name="hr02" smooth="yes"/>
      <point x="1261" y="591"/>
      <point x="1049" y="743"/>
      <point x="833" y="848" type="curve" smooth="yes"/>
      <point x="655" y="935"/>
      <point x="465" y="1035"/>
      <point x="465" y="1194" type="curve" smooth="yes"/>
      <point x="465" y="1326"/>
      <point x="576" y="1366"/>
      <point x="720" y="1366" type="curve" smooth="yes"/>
      <point x="841" y="1366"/>
      <point x="999" y="1298"/>
      <point x="1052" y="1051" type="curve" smooth="yes"/>
      <point x="1058" y="1022"/>
      <point x="1181" y="1003"/>
      <point x="1167" y="1100" type="curve"/>
      <point x="1153" y="1210"/>
      <point x="1142" y="1369"/>
      <point x="1142" y="1394" type="curve" name="hr03" smooth="yes"/>
      <point x="1142" y="1421"/>
      <point x="1071" y="1444"/>
      <point x="1041" y="1425" type="curve" smooth="yes"/>
      <point x="1018" y="1411"/>
      <point x="1021" y="1388"/>
      <point x="966" y="1398" type="curve" name="hr04" smooth="yes"/>
      <point x="931" y="1404"/>
      <point x="817" y="1448"/>
      <point x="688" y="1448" type="curve" smooth="yes"/>
      <point x="374" y="1448"/>
      <point x="160" y="1326"/>
      <point x="160" y="1069" type="curve" smooth="yes"/>
      <point x="160" y="831"/>
      <point x="363" y="692"/>
      <point x="542" y="601" type="curve" smooth="yes"/>
      <point x="738" y="502"/>
      <point x="944" y="413"/>
      <point x="944" y="240" type="curve" smooth="yes"/>
      <point x="944" y="90"/>
      <point x="806" y="61"/>
      <point x="666" y="61" type="curve" smooth="yes"/>
      <point x="556" y="61"/>
      <point x="381" y="141"/>
      <point x="305" y="294" type="curve"/>
      <point x="251" y="409"/>
      <point x="238" y="444"/>
      <point x="231" y="478" type="curve" smooth="yes"/>
      <point x="219" y="538"/>
      <point x="101" y="536"/>
      <point x="111" y="458" type="curve"/>
      <point x="120" y="378"/>
      <point x="138" y="195"/>
    </contour>
    <contour>
      <point x="656" y="-200" type="move" name="btm"/>
    </contour>
    <contour>
      <point x="661" y="2000" type="move" name="top"/>
    </contour>
  </outline>
</glyph>
<glyph name="U" format="1">
  <advance width="1706"/>
  <unicode hex="0055"/>
  <outline>
    <contour>
      <point x="256" y="566" type="line" name="hr00" smooth="yes"/>
      <point x="256" y="194"/>
      <point x="415" y="-29"/>
      <point x="901" y="-29" type="curve" smooth="yes"/>
      <point x="1242" y="-29"/>
      <point x="1463" y="169"/>
      <point x="1463" y="566" type="curve" smooth="yes"/>
      <point x="1463" y="1230" type="line" smooth="yes"/>
      <point x="1463" y="1294"/>
      <point x="1531" y="1326"/>
      <point x="1634" y="1331" type="curve" smooth="yes"/>
      <point x="1660" y="1332"/>
      <point x="1667" y="1347"/>
      <point x="1667" y="1368" type="curve" smooth="yes"/>
      <point x="1667" y="1383"/>
      <point x="1656" y="1419"/>
      <point x="1633" y="1419" type="curve" smooth="yes"/>
      <point x="1177" y="1419" type="line" smooth="yes"/>
      <point x="1154" y="1419"/>
      <point x="1143" y="1383"/>
      <point x="1143" y="1368" type="curve" smooth="yes"/>
      <point x="1143" y="1338"/>
      <point x="1151" y="1334"/>
      <point x="1179" y="1331" type="curve" smooth="yes"/>
      <point x="1235" y="1326"/>
      <point x="1353" y="1311"/>
      <point x="1353" y="1244" type="curve" smooth="yes"/>
      <point x="1353" y="564" type="line" smooth="yes"/>
      <point x="1353" y="297"/>
      <point x="1254" y="65"/>
      <point x="918" y="65" type="curve" smooth="yes"/>
      <point x="684" y="65"/>
      <point x="603" y="227"/>
      <point x="603" y="574" type="curve" smooth="yes"/>
      <point x="603" y="1267" type="line" smooth="yes"/>
      <point x="603" y="1311"/>
      <point x="690" y="1326"/>
      <point x="758" y="1331" type="curve" smooth="yes"/>
      <point x="784" y="1334"/>
      <point x="791" y="1347"/>
      <point x="791" y="1368" type="curve" smooth="yes"/>
      <point x="791" y="1383"/>
      <point x="780" y="1419"/>
      <point x="757" y="1419" type="curve" smooth="yes"/>
      <point x="112" y="1419" type="line" smooth="yes"/>
      <point x="89" y="1419"/>
      <point x="78" y="1383"/>
      <point x="78" y="1368" type="curve" smooth="yes"/>
      <point x="78" y="1338"/>
      <point x="86" y="1334"/>
      <point x="114" y="1331" type="curve" smooth="yes"/>
      <point x="175" y="1326"/>
      <point x="256" y="1320"/>
      <point x="256" y="1234" type="curve" smooth="yes"/>
    </contour>
    <contour>
      <point x="837" y="-200" type="move" name="btm"/>
    </contour>
    <contour>
      <point x="926" y="2000" type="move" name="top"/>
    </contour>
  </outline>
</glyph>
<glyph name="V" format="1">
  <advance width="1561"/>
  <unicode hex="0056"/>
  <outline>
    <contour>
      <point x="761" y="-18" type="line" name="hr00"/>
      <point x="884" y="-18" type="line"/>
      <point x="1404" y="1254" type="line" smooth="yes"/>
      <point x="1425" y="1306"/>
      <point x="1456" y="1326"/>
      <point x="1575" y="1331" type="curve" smooth="yes"/>
      <point x="1603" y="1332"/>
      <point x="1611" y="1338"/>
      <point x="1611" y="1368" type="curve" smooth="yes"/>
      <point x="1611" y="1383"/>
      <point x="1599" y="1419"/>
      <point x="1577" y="1419" type="curve" smooth="yes"/>
      <point x="1112" y="1419" type="line" smooth="yes"/>
      <point x="1089" y="1419"/>
      <point x="1078" y="1383"/>
      <point x="1078" y="1368" type="curve" smooth="yes"/>
      <point x="1078" y="1347"/>
      <point x="1085" y="1334"/>
      <point x="1111" y="1331" type="curve"/>
      <point x="1202" y="1326"/>
      <point x="1285" y="1304"/>
      <point x="1269" y="1257" type="curve"/>
      <point x="919" y="347" type="line"/>
      <point x="516" y="1287" type="line"/>
      <point x="499" y="1334"/>
      <point x="563" y="1326"/>
      <point x="654" y="1331" type="curve"/>
      <point x="680" y="1334"/>
      <point x="687" y="1347"/>
      <point x="687" y="1368" type="curve" smooth="yes"/>
      <point x="687" y="1383"/>
      <point x="676" y="1419"/>
      <point x="653" y="1419" type="curve" smooth="yes"/>
      <point x="-2" y="1419" type="line" smooth="yes"/>
      <point x="-24" y="1419"/>
      <point x="-36" y="1383"/>
      <point x="-36" y="1368" type="curve" smooth="yes"/>
      <point x="-36" y="1338"/>
      <point x="-28" y="1334"/>
      <point x="0" y="1331" type="curve" smooth="yes"/>
      <point x="49" y="1326"/>
      <point x="128" y="1342"/>
      <point x="161" y="1254" type="curve"/>
    </contour>
    <contour>
      <point x="745" y="2000" type="move" name="top"/>
    </contour>
    <contour>
      <point x="745" y="-200" type="move" name="btm"/>
    </contour>
  </outline>
</glyph>
<glyph name="W" format="1">
  <advance width="2306"/>
  <unicode hex="0057"/>
  <outline>
    <contour>
      <point x="660" y="-18" type="line" name="hr00"/>
      <point x="783" y="-18" type="line"/>
      <point x="1122" y="987" type="line"/>
      <point x="1534" y="-18" type="line"/>
      <point x="1657" y="-18" type="line"/>
      <point x="2107" y="1180" type="line" smooth="yes"/>
      <point x="2139" y="1269"/>
      <point x="2164" y="1331"/>
      <point x="2305" y="1331" type="curve" smooth="yes"/>
      <point x="2333" y="1331"/>
      <point x="2341" y="1338"/>
      <point x="2341" y="1368" type="curve" smooth="yes"/>
      <point x="2341" y="1383"/>
      <point x="2329" y="1419"/>
      <point x="2307" y="1419" type="curve" smooth="yes"/>
      <point x="1822" y="1419" type="line" smooth="yes"/>
      <point x="1799" y="1419"/>
      <point x="1788" y="1383"/>
      <point x="1788" y="1368" type="curve" smooth="yes"/>
      <point x="1788" y="1347"/>
      <point x="1795" y="1334"/>
      <point x="1821" y="1331" type="curve"/>
      <point x="2004" y="1331"/>
      <point x="2017" y="1280"/>
      <point x="2000" y="1233" type="curve" smooth="yes"/>
      <point x="1708" y="448" type="line"/>
      <point x="1323" y="1389" type="line"/>
      <point x="1149" y="1389" type="line"/>
      <point x="824" y="418" type="line"/>
      <point x="509" y="1230" type="line" smooth="yes"/>
      <point x="492" y="1277"/>
      <point x="508" y="1331"/>
      <point x="650" y="1331" type="curve"/>
      <point x="676" y="1334"/>
      <point x="683" y="1347"/>
      <point x="683" y="1368" type="curve" smooth="yes"/>
      <point x="683" y="1383"/>
      <point x="672" y="1419"/>
      <point x="649" y="1419" type="curve" smooth="yes"/>
      <point x="-1" y="1419" type="line" smooth="yes"/>
      <point x="-23" y="1419"/>
      <point x="-35" y="1383"/>
      <point x="-35" y="1368" type="curve" smooth="yes"/>
      <point x="-35" y="1338"/>
      <point x="-27" y="1335"/>
      <point x="1" y="1331" type="curve" smooth="yes"/>
      <point x="93" y="1317"/>
      <point x="124" y="1293"/>
      <point x="158" y="1205" type="curve" smooth="yes"/>
    </contour>
    <contour>
      <point x="1223" y="-200" type="move" name="btm"/>
    </contour>
    <contour>
      <point x="1235" y="2000" type="move" name="top"/>
    </contour>
  </outline>
</glyph>
<glyph name="X" format="1">
  <advance width="1657"/>
  <unicode hex="0058"/>
  <outline>
    <contour>
      <point x="47" y="51" type="curve" name="hr00" smooth="yes"/>
      <point x="47" y="36"/>
      <point x="59" y="0"/>
      <point x="81" y="0" type="curve" smooth="yes"/>
      <point x="558" y="0" type="line" smooth="yes"/>
      <point x="581" y="0"/>
      <point x="592" y="36"/>
      <point x="592" y="51" type="curve" smooth="yes"/>
      <point x="592" y="72"/>
      <point x="585" y="85"/>
      <point x="559" y="88" type="curve"/>
      <point x="481" y="92"/>
      <point x="415" y="113"/>
      <point x="415" y="145" type="curve" smooth="yes"/>
      <point x="415" y="150"/>
      <point x="417" y="156"/>
      <point x="421" y="162" type="curve" smooth="yes"/>
      <point x="742" y="580" type="line"/>
      <point x="1046" y="170" type="line"/>
      <point x="1061" y="148"/>
      <point x="1070" y="133"/>
      <point x="1070" y="119" type="curve" smooth="yes"/>
      <point x="1070" y="97"/>
      <point x="1005" y="85"/>
      <point x="914" y="88" type="curve"/>
      <point x="888" y="85"/>
      <point x="881" y="72"/>
      <point x="881" y="51" type="curve" smooth="yes"/>
      <point x="881" y="36"/>
      <point x="892" y="0"/>
      <point x="915" y="0" type="curve" smooth="yes"/>
      <point x="1620" y="0" type="line" smooth="yes"/>
      <point x="1642" y="0"/>
      <point x="1654" y="36"/>
      <point x="1654" y="51" type="curve" smooth="yes"/>
      <point x="1654" y="81"/>
      <point x="1646" y="85"/>
      <point x="1618" y="88" type="curve" smooth="yes"/>
      <point x="1569" y="93"/>
      <point x="1488" y="86"/>
      <point x="1437" y="165" type="curve"/>
      <point x="969" y="786" type="line"/>
      <point x="1357" y="1254" type="line"/>
      <point x="1414" y="1330"/>
      <point x="1490" y="1326"/>
      <point x="1538" y="1331" type="curve" smooth="yes"/>
      <point x="1566" y="1334"/>
      <point x="1574" y="1338"/>
      <point x="1574" y="1368" type="curve" smooth="yes"/>
      <point x="1574" y="1383"/>
      <point x="1562" y="1419"/>
      <point x="1540" y="1419" type="curve" smooth="yes"/>
      <point x="1085" y="1419" type="line" smooth="yes"/>
      <point x="1062" y="1419"/>
      <point x="1051" y="1383"/>
      <point x="1051" y="1368" type="curve" smooth="yes"/>
      <point x="1051" y="1347"/>
      <point x="1058" y="1334"/>
      <point x="1084" y="1331" type="curve"/>
      <point x="1156" y="1327"/>
      <point x="1209" y="1307"/>
      <point x="1209" y="1277" type="curve" smooth="yes"/>
      <point x="1209" y="1271"/>
      <point x="1207" y="1264"/>
      <point x="1202" y="1257" type="curve" smooth="yes"/>
      <point x="909" y="871" type="line"/>
      <point x="615" y="1277" type="line" smooth="yes"/>
      <point x="612" y="1282"/>
      <point x="610" y="1286"/>
      <point x="610" y="1290" type="curve" smooth="yes"/>
      <point x="610" y="1318"/>
      <point x="639" y="1325"/>
      <point x="757" y="1331" type="curve"/>
      <point x="783" y="1334"/>
      <point x="790" y="1347"/>
      <point x="790" y="1368" type="curve" smooth="yes"/>
      <point x="790" y="1383"/>
      <point x="779" y="1419"/>
      <point x="756" y="1419" type="curve" smooth="yes"/>
      <point x="61" y="1419" type="line" smooth="yes"/>
      <point x="39" y="1419"/>
      <point x="27" y="1383"/>
      <point x="27" y="1368" type="curve" smooth="yes"/>
      <point x="27" y="1338"/>
      <point x="35" y="1334"/>
      <point x="63" y="1331" type="curve" smooth="yes"/>
      <point x="112" y="1326"/>
      <point x="183" y="1333"/>
      <point x="234" y="1254" type="curve"/>
      <point x="685" y="657" type="line"/>
      <point x="264" y="165" type="line" smooth="yes"/>
      <point x="208" y="99"/>
      <point x="132" y="93"/>
      <point x="83" y="88" type="curve" smooth="yes"/>
      <point x="55" y="85"/>
      <point x="47" y="81"/>
    </contour>
    <contour>
      <point x="776" y="-200" type="move" name="btm"/>
    </contour>
    <contour>
      <point x="776" y="2000" type="move" name="top"/>
    </contour>
  </outline>
</glyph>
<glyph name="Y" format="1">
  <advance width="1499"/>
  <unicode hex="0059"/>
  <outline>
    <contour>
      <point x="391" y="51" type="curve" name="hr00" smooth="yes"/>
      <point x="391" y="36"/>
      <point x="402" y="0"/>
      <point x="425" y="0" type="curve" smooth="yes"/>
      <point x="1120" y="0" type="line" smooth="yes"/>
      <point x="1142" y="0"/>
      <point x="1154" y="36"/>
      <point x="1154" y="51" type="curve" smooth="yes"/>
      <point x="1154" y="81"/>
      <point x="1136" y="85"/>
      <point x="1108" y="88" type="curve"/>
      <point x="1041" y="93"/>
      <point x="936" y="79"/>
      <point x="936" y="165" type="curve" smooth="yes"/>
      <point x="936" y="535" type="line"/>
      <point x="1341" y="1254" type="line" smooth="yes"/>
      <point x="1386" y="1335"/>
      <point x="1442" y="1336"/>
      <point x="1492" y="1341" type="curve" smooth="yes"/>
      <point x="1520" y="1344"/>
      <point x="1528" y="1348"/>
      <point x="1528" y="1378" type="curve" smooth="yes"/>
      <point x="1528" y="1393"/>
      <point x="1516" y="1419"/>
      <point x="1494" y="1419" type="curve" smooth="yes"/>
      <point x="1079" y="1419" type="line" smooth="yes"/>
      <point x="1056" y="1419"/>
      <point x="1045" y="1393"/>
      <point x="1045" y="1378" type="curve" smooth="yes"/>
      <point x="1045" y="1357"/>
      <point x="1052" y="1343"/>
      <point x="1078" y="1341" type="curve" smooth="yes"/>
      <point x="1172" y="1333"/>
      <point x="1229" y="1324"/>
      <point x="1229" y="1299" type="curve" smooth="yes"/>
      <point x="1229" y="1295"/>
      <point x="1227" y="1288"/>
      <point x="1221" y="1277" type="curve" smooth="yes"/>
      <point x="879" y="658" type="line"/>
      <point x="553" y="1287" type="line" smooth="yes"/>
      <point x="551" y="1291"/>
      <point x="548" y="1297"/>
      <point x="548" y="1301" type="curve" smooth="yes"/>
      <point x="548" y="1334"/>
      <point x="597" y="1334"/>
      <point x="701" y="1341" type="curve"/>
      <point x="727" y="1344"/>
      <point x="734" y="1357"/>
      <point x="734" y="1378" type="curve" smooth="yes"/>
      <point x="734" y="1393"/>
      <point x="723" y="1419"/>
      <point x="700" y="1419" type="curve" smooth="yes"/>
      <point x="-5" y="1419" type="line" smooth="yes"/>
      <point x="-27" y="1419"/>
      <point x="-39" y="1393"/>
      <point x="-39" y="1378" type="curve" smooth="yes"/>
      <point x="-39" y="1348"/>
      <point x="-31" y="1344"/>
      <point x="-3" y="1341" type="curve" smooth="yes"/>
      <point x="46" y="1336"/>
      <point x="98" y="1334"/>
      <point x="148" y="1254" type="curve" smooth="yes"/>
      <point x="599" y="525" type="line"/>
      <point x="599" y="152" type="line" smooth="yes"/>
      <point x="599" y="81"/>
      <point x="501" y="93"/>
      <point x="434" y="88" type="curve"/>
      <point x="409" y="85"/>
      <point x="391" y="72"/>
    </contour>
    <contour>
      <point x="761" y="-200" type="move" name="btm"/>
    </contour>
    <contour>
      <point x="850" y="2000" type="move" name="top"/>
    </contour>
  </outline>
</glyph>
<glyph name="Z" format="1">
  <advance width="1411"/>
  <unicode hex="005A"/>
  <outline>
    <contour>
      <point x="73" y="30" type="line" smooth="yes" name="hr00"/>
      <point x="73" y="21"/>
      <point x="77" y="0"/>
      <point x="107" y="0" type="curve" smooth="yes"/>
      <point x="1242" y="0" type="line"/>
      <point x="1262" y="1"/>
      <point x="1277" y="14"/>
      <point x="1289" y="41" type="curve"/>
      <point x="1339" y="429" type="line"/>
      <point x="1339" y="452"/>
      <point x="1283" y="463"/>
      <point x="1268" y="463" type="curve" smooth="yes"/>
      <point x="1247" y="463"/>
      <point x="1234" y="456"/>
      <point x="1231" y="430" type="curve"/>
      <point x="1183" y="254"/>
      <point x="1062" y="83"/>
      <point x="973" y="83" type="curve" smooth="yes"/>
      <point x="479" y="83" type="line"/>
      <point x="577" y="214" type="line"/>
      <point x="1299" y="1340" type="line" smooth="yes"/>
      <point x="1305" y="1350"/>
      <point x="1309" y="1366"/>
      <point x="1309" y="1377" type="curve" smooth="yes"/>
      <point x="1309" y="1393" type="line" smooth="yes"/>
      <point x="1309" y="1412"/>
      <point x="1290" y="1419"/>
      <point x="1275" y="1419" type="curve" smooth="yes"/>
      <point x="213" y="1419" type="line"/>
      <point x="193" y="1418"/>
      <point x="178" y="1405"/>
      <point x="166" y="1378" type="curve"/>
      <point x="137" y="1020" type="line"/>
      <point x="137" y="997"/>
      <point x="183" y="986"/>
      <point x="198" y="986" type="curve" smooth="yes"/>
      <point x="219" y="986"/>
      <point x="229" y="994"/>
      <point x="235" y="1019" type="curve" smooth="yes"/>
      <point x="272" y="1165"/>
      <point x="354" y="1336"/>
      <point x="442" y="1336" type="curve" smooth="yes"/>
      <point x="904" y="1336" type="line"/>
      <point x="805" y="1205" type="line"/>
      <point x="115" y="123" type="line"/>
      <point x="79" y="69"/>
      <point x="73" y="49"/>
      <point x="73" y="36" type="curve" smooth="yes"/>
    </contour>
    <contour>
      <point x="723" y="2000" type="move" name="top"/>
    </contour>
    <contour>
      <point x="649" y="-200" type="move" name="btm"/>
    </contour>
  </outline>
</glyph>
<glyph name="bracketleft" format="1">
  <advance width="915"/>
  <unicode hex="005B"/>
  <outline>
    <contour>
      <point x="186" y="-327" type="line" name="hr00"/>
      <point x="753" y="-328" type="line"/>
      <point x="753" y="-211" type="line"/>
      <point x="504" y="-211" type="line"/>
      <point x="504" y="1419" type="line"/>
      <point x="753" y="1419" type="line"/>
      <point x="753" y="1536" type="line"/>
      <point x="186" y="1535" type="line"/>
    </contour>
  </outline>
</glyph>
<glyph name="asciicircum" format="1">
  <advance width="1440"/>
  <unicode hex="005E"/>
  <outline>
    <contour>
      <point x="184" y="299" type="line" name="hr00"/>
      <point x="388" y="299" type="line"/>
      <point x="718" y="1130" type="line"/>
      <point x="1049" y="299" type="line"/>
      <point x="1255" y="299" type="line"/>
      <point x="778" y="1428" type="line"/>
      <point x="659" y="1428" type="line"/>
    </contour>
  </outline>
</glyph>
<glyph name="underscore" format="1">
  <advance width="1440"/>
  <unicode hex="005F"/>
  <outline>
    <contour>
      <point x="-25" y="-190" type="line" name="hr00"/>
      <point x="-25" y="-296" type="line"/>
      <point x="1465" y="-296" type="line"/>
      <point x="1465" y="-190" type="line"/>
    </contour>
  </outline>
</glyph>
<glyph name="grave" format="1">
  <advance width="1024"/>
  <unicode hex="0060"/>
  <outline>
    <contour>
      <point x="653" y="1121" type="curve" name="hr00"/>
      <point x="709" y="1179" type="line"/>
      <point x="555" y="1368"/>
      <point x="466" y="1521"/>
      <point x="435" y="1551" type="curve" smooth="yes"/>
      <point x="398" y="1586"/>
      <point x="308" y="1608"/>
      <point x="257" y="1554" type="curve" smooth="yes"/>
      <point x="207" y="1501"/>
      <point x="221" y="1417"/>
      <point x="258" y="1383" type="curve" smooth="yes"/>
      <point x="289" y="1353"/>
      <point x="449" y="1274"/>
    </contour>
    <contour>
      <point x="521" y="2000" type="move" name="_top"/>
    </contour>
  </outline>
</glyph>
<glyph name="a" format="1">
  <advance width="1221"/>
  <unicode hex="0061"/>
  <outline>
    <contour>
      <point x="81" y="235" type="curve" name="hr00" smooth="yes"/>
      <point x="85" y="48"/>
      <point x="259" y="-24"/>
      <point x="379" y="-24" type="curve" smooth="yes"/>
      <point x="519" y="-24"/>
      <point x="644" y="21"/>
      <point x="731" y="112" type="curve"/>
      <point x="731" y="109" type="line" smooth="yes"/>
      <point x="730" y="87"/>
      <point x="715" y="-25"/>
      <point x="883" y="-25" type="curve" smooth="yes"/>
      <point x="1046" y="-25"/>
      <point x="1148" y="22"/>
      <point x="1170" y="37" type="curve"/>
      <point x="1186" y="50"/>
      <point x="1167" y="118"/>
      <point x="1136" y="109" type="curve" smooth="yes"/>
      <point x="1112" y="102"/>
      <point x="1097" y="101"/>
      <point x="1078" y="101" type="curve" smooth="yes"/>
      <point x="1056" y="101"/>
      <point x="1040" y="141"/>
      <point x="1040" y="193" type="curve" smooth="yes"/>
      <point x="1040" y="736" type="line" smooth="yes"/>
      <point x="1040" y="895"/>
      <point x="911" y="1014"/>
      <point x="606" y="1014" type="curve" smooth="yes"/>
      <point x="454" y="1014"/>
      <point x="131" y="944"/>
      <point x="131" y="781" type="curve" smooth="yes"/>
      <point x="131" y="703"/>
      <point x="199" y="645"/>
      <point x="268" y="645" type="curve" smooth="yes"/>
      <point x="312" y="645"/>
      <point x="328" y="674"/>
      <point x="346" y="702" type="curve" smooth="yes"/>
      <point x="371" y="741"/>
      <point x="427" y="870"/>
      <point x="446" y="900" type="curve"/>
      <point x="446" y="900"/>
      <point x="478" y="919"/>
      <point x="563" y="919" type="curve" smooth="yes"/>
      <point x="652" y="919"/>
      <point x="713" y="890"/>
      <point x="713" y="763" type="curve" smooth="yes"/>
      <point x="713" y="738"/>
      <point x="712" y="676"/>
      <point x="712" y="598" type="curve"/>
      <point x="441" y="570"/>
      <point x="75" y="507"/>
    </contour>
    <contour>
      <point x="420" y="252" type="curve" smooth="yes"/>
      <point x="420" y="460"/>
      <point x="577" y="498"/>
      <point x="712" y="518" type="curve"/>
      <point x="712" y="196" type="line"/>
      <point x="686" y="164"/>
      <point x="636" y="120"/>
      <point x="551" y="120" type="curve" smooth="yes"/>
      <point x="463" y="120"/>
      <point x="420" y="185"/>
    </contour>
    <contour>
      <point x="622" y="-200" type="move" name="btm"/>
    </contour>
    <contour>
      <point x="590" y="2000" type="move" name="top"/>
    </contour>
  </outline>
</glyph>
<glyph name="b" format="1">
  <advance width="1323"/>
  <unicode hex="0062"/>
  <outline>
    <contour>
      <point x="160" y="25" type="line" smooth="yes" name="hr00"/>
      <point x="160" y="-4"/>
      <point x="167" y="-32"/>
      <point x="195" y="-32" type="curve" smooth="yes"/>
      <point x="215" y="-32"/>
      <point x="230" y="-33"/>
      <point x="259" y="-8" type="curve" smooth="yes"/>
      <point x="278" y="8"/>
      <point x="302" y="24"/>
      <point x="328" y="40" type="curve"/>
      <point x="449" y="-21"/>
      <point x="618" y="-29"/>
      <point x="732" y="-29" type="curve" smooth="yes"/>
      <point x="1076" y="-29"/>
      <point x="1242" y="224"/>
      <point x="1242" y="493" type="curve" smooth="yes"/>
      <point x="1242" y="763"/>
      <point x="1123" y="1014"/>
      <point x="794" y="1014" type="curve" smooth="yes"/>
      <point x="678" y="1014"/>
      <point x="534" y="970"/>
      <point x="466" y="877" type="curve"/>
      <point x="476" y="1015" type="line"/>
      <point x="476" y="1500" type="line"/>
      <point x="478" y="1503"/>
      <point x="478" y="1506"/>
      <point x="476" y="1508" type="curve"/>
      <point x="473" y="1540"/>
      <point x="457" y="1548"/>
      <point x="446" y="1548" type="curve" smooth="yes"/>
      <point x="367" y="1547"/>
      <point x="195" y="1546"/>
      <point x="11" y="1538" type="curve" smooth="yes"/>
      <point x="-5" y="1537"/>
      <point x="-13" y="1510"/>
      <point x="-13" y="1494" type="curve" smooth="yes"/>
      <point x="-13" y="1469"/>
      <point x="-3" y="1460"/>
      <point x="11" y="1454" type="curve"/>
      <point x="62" y="1440"/>
      <point x="160" y="1453"/>
      <point x="160" y="1329" type="curve" smooth="yes"/>
    </contour>
    <contour>
      <point x="476" y="164" type="curve"/>
      <point x="476" y="776" type="line"/>
      <point x="510" y="838"/>
      <point x="590" y="869"/>
      <point x="651" y="869" type="curve" smooth="yes"/>
      <point x="841" y="869"/>
      <point x="905" y="722"/>
      <point x="905" y="493" type="curve" smooth="yes"/>
      <point x="905" y="235"/>
      <point x="841" y="76"/>
      <point x="635" y="76" type="curve" smooth="yes"/>
      <point x="572" y="76"/>
      <point x="493" y="135"/>
    </contour>
    <contour>
      <point x="850" y="2000" type="move" name="top"/>
    </contour>
    <contour>
      <point x="597" y="-200" type="move" name="btm"/>
    </contour>
  </outline>
</glyph>
<glyph name="c" format="1">
  <advance width="1087"/>
  <unicode hex="0063"/>
  <outline>
    <contour>
      <point x="62" y="500" type="curve" smooth="yes" name="hr00"/>
      <point x="62" y="176"/>
      <point x="236" y="-29"/>
      <point x="655" y="-29" type="curve" smooth="yes"/>
      <point x="779" y="-29"/>
      <point x="956" y="52"/>
      <point x="1019" y="173" type="curve" smooth="yes"/>
      <point x="1027" y="188"/>
      <point x="1028" y="196"/>
      <point x="1015" y="202" type="curve"/>
      <point x="971" y="223" type="line"/>
      <point x="958" y="226"/>
      <point x="951" y="215"/>
      <point x="945" y="208" type="curve" smooth="yes"/>
      <point x="885" y="141"/>
      <point x="796" y="105"/>
      <point x="681" y="105" type="curve" smooth="yes"/>
      <point x="554" y="105"/>
      <point x="407" y="224"/>
      <point x="407" y="490" type="curve" smooth="yes"/>
      <point x="407" y="825"/>
      <point x="505" y="929"/>
      <point x="616" y="929" type="curve" smooth="yes"/>
      <point x="694" y="929"/>
      <point x="686" y="912"/>
      <point x="686" y="912" type="curve"/>
      <point x="803" y="670" type="line" smooth="yes"/>
      <point x="814" y="646"/>
      <point x="854" y="613"/>
      <point x="900" y="613" type="curve" smooth="yes"/>
      <point x="955" y="613"/>
      <point x="1074" y="670"/>
      <point x="1022" y="824" type="curve" smooth="yes"/>
      <point x="975" y="963"/>
      <point x="859" y="1014"/>
      <point x="654" y="1014" type="curve" smooth="yes"/>
      <point x="333" y="1014"/>
      <point x="62" y="834"/>
    </contour>
    <contour>
      <point x="620" y="2000" type="move" name="top"/>
    </contour>
    <contour>
      <point x="564" y="-200" type="move" name="btm"/>
    </contour>
  </outline>
</glyph>
<glyph name="d" format="1">
  <advance width="1358"/>
  <unicode hex="0064"/>
  <outline>
    <contour>
      <point x="82" y="492" type="curve" name="hr01" smooth="yes"/>
      <point x="82" y="222"/>
      <point x="201" y="-29"/>
      <point x="530" y="-29" type="curve" smooth="yes"/>
      <point x="645" y="-29"/>
      <point x="790" y="15"/>
      <point x="858" y="108" type="curve"/>
      <point x="857" y="37"/>
      <point x="854" y="0"/>
      <point x="934" y="0" type="curve" name="hr02" smooth="yes"/>
      <point x="1278" y="0" type="line" smooth="yes"/>
      <point x="1300" y="0"/>
      <point x="1312" y="26"/>
      <point x="1312" y="41" type="curve" smooth="yes"/>
      <point x="1312" y="71"/>
      <point x="1304" y="75"/>
      <point x="1276" y="78" type="curve" smooth="yes"/>
      <point x="1227" y="83"/>
      <point x="1164" y="89"/>
      <point x="1164" y="175" type="curve" smooth="yes"/>
      <point x="1164" y="1508" type="line" smooth="yes"/>
      <point x="1164" y="1540"/>
      <point x="1145" y="1548"/>
      <point x="1134" y="1548" type="curve" smooth="yes"/>
      <point x="1054" y="1547"/>
      <point x="836" y="1546"/>
      <point x="649" y="1538" type="curve" smooth="yes"/>
      <point x="634" y="1537"/>
      <point x="625" y="1510"/>
      <point x="625" y="1494" type="curve" smooth="yes"/>
      <point x="625" y="1469"/>
      <point x="635" y="1460"/>
      <point x="649" y="1454" type="curve"/>
      <point x="761" y="1446"/>
      <point x="848" y="1425"/>
      <point x="848" y="1329" type="curve" smooth="yes"/>
      <point x="848" y="1105" type="line"/>
      <point x="857" y="948" type="line"/>
      <point x="768" y="1002"/>
      <point x="699" y="1014"/>
      <point x="592" y="1014" type="curve" smooth="yes"/>
      <point x="248" y="1014"/>
      <point x="82" y="761"/>
    </contour>
    <contour>
      <point x="419" y="492" type="curve" smooth="yes"/>
      <point x="419" y="740"/>
      <point x="483" y="909"/>
      <point x="689" y="909" type="curve" smooth="yes"/>
      <point x="752" y="909"/>
      <point x="831" y="850"/>
      <point x="848" y="801" type="curve"/>
      <point x="848" y="209" type="line"/>
      <point x="813" y="147"/>
      <point x="734" y="116"/>
      <point x="673" y="116" type="curve" smooth="yes"/>
      <point x="483" y="116"/>
      <point x="419" y="273"/>
    </contour>
    <contour>
      <point x="676" y="-200" type="move" name="btm"/>
    </contour>
    <contour>
      <point x="408" y="2000" type="move" name="top"/>
    </contour>
  </outline>
</glyph>
<glyph name="e" format="1">
  <advance width="1171"/>
  <unicode hex="0065"/>
  <outline>
    <contour>
      <point x="72" y="502" type="curve" name="hr01" smooth="yes"/>
      <point x="72" y="168"/>
      <point x="249" y="-29"/>
      <point x="645" y="-29" type="curve" smooth="yes"/>
      <point x="856" y="-29"/>
      <point x="994" y="52"/>
      <point x="1059" y="173" type="curve" smooth="yes"/>
      <point x="1067" y="188"/>
      <point x="1068" y="196"/>
      <point x="1055" y="202" type="curve" smooth="yes"/>
      <point x="1011" y="223" type="line"/>
      <point x="998" y="226"/>
      <point x="991" y="215"/>
      <point x="985" y="208" type="curve" smooth="yes"/>
      <point x="923" y="131"/>
      <point x="841" y="105"/>
      <point x="721" y="105" type="curve" smooth="yes"/>
      <point x="581" y="105"/>
      <point x="412" y="200"/>
      <point x="412" y="508" type="curve"/>
      <point x="412" y="509" type="line"/>
      <point x="1106" y="509" type="line"/>
      <point x="1106" y="564"/>
      <point x="1105" y="626"/>
      <point x="1097" y="674" type="curve" smooth="yes"/>
      <point x="1061" y="885"/>
      <point x="938" y="1014"/>
      <point x="629" y="1014" type="curve" smooth="yes"/>
      <point x="332" y="1014"/>
      <point x="72" y="836"/>
    </contour>
    <contour>
      <point x="415" y="601" type="line"/>
      <point x="434" y="838"/>
      <point x="527" y="929"/>
      <point x="626" y="929" type="curve" smooth="yes"/>
      <point x="728" y="929"/>
      <point x="773" y="833"/>
      <point x="773" y="601" type="curve"/>
    </contour>
    <contour>
      <point x="590" y="-200" type="move" name="btm"/>
    </contour>
    <contour>
      <point x="620" y="2000" type="move" name="top"/>
    </contour>
  </outline>
</glyph>
<glyph name="f" format="1">
  <advance width="805"/>
  <unicode hex="0066"/>
  <outline>
    <contour>
      <point x="59" y="41" type="curve" name="hr00" smooth="yes"/>
      <point x="59" y="26"/>
      <point x="70" y="0"/>
      <point x="93" y="0" type="curve" smooth="yes"/>
      <point x="688" y="0" type="line" smooth="yes"/>
      <point x="711" y="0"/>
      <point x="722" y="26"/>
      <point x="722" y="41" type="curve" smooth="yes"/>
      <point x="722" y="71"/>
      <point x="714" y="75"/>
      <point x="686" y="78" type="curve"/>
      <point x="621" y="82"/>
      <point x="524" y="88"/>
      <point x="524" y="165" type="curve" smooth="yes"/>
      <point x="524" y="887" type="line"/>
      <point x="756" y="887" type="line"/>
      <point x="770" y="893"/>
      <point x="780" y="935"/>
      <point x="780" y="960" type="curve" smooth="yes"/>
      <point x="780" y="976"/>
      <point x="772" y="993"/>
      <point x="756" y="994" type="curve"/>
      <point x="524" y="994" type="line"/>
      <point x="524" y="1107" type="line" smooth="yes"/>
      <point x="524" y="1396"/>
      <point x="561" y="1449"/>
      <point x="614" y="1449" type="curve"/>
      <point x="762" y="1278" type="line"/>
      <point x="762" y="1276"/>
      <point x="773" y="1275"/>
      <point x="773" y="1275" type="curve"/>
      <point x="838" y="1274"/>
      <point x="891" y="1334"/>
      <point x="891" y="1416" type="curve" smooth="yes"/>
      <point x="891" y="1494"/>
      <point x="825" y="1563"/>
      <point x="642" y="1563" type="curve" smooth="yes"/>
      <point x="348" y="1563"/>
      <point x="208" y="1331"/>
      <point x="208" y="1076" type="curve" smooth="yes"/>
      <point x="208" y="994" type="line"/>
      <point x="55" y="977" type="line"/>
      <point x="41" y="971"/>
      <point x="30" y="956"/>
      <point x="30" y="931" type="curve" smooth="yes"/>
      <point x="30" y="915"/>
      <point x="38" y="888"/>
      <point x="54" y="887" type="curve"/>
      <point x="208" y="887" type="line"/>
      <point x="208" y="132" type="line" smooth="yes"/>
      <point x="208" y="95"/>
      <point x="141" y="82"/>
      <point x="92" y="78" type="curve"/>
      <point x="66" y="75"/>
      <point x="59" y="62"/>
    </contour>
    <contour>
      <point x="422" y="-200" type="move" name="btm"/>
    </contour>
    <contour>
      <point x="206" y="2322" type="move" name="top"/>
    </contour>
  </outline>
</glyph>
<glyph name="g" format="1">
  <advance width="1182"/>
  <unicode hex="0067"/>
  <outline>
    <contour>
      <point x="58" y="-164" type="curve" smooth="yes" name="hr01"/>
      <point x="58" y="-335"/>
      <point x="218" y="-448"/>
      <point x="569" y="-448" type="curve" smooth="yes"/>
      <point x="961" y="-448"/>
      <point x="1144" y="-281"/>
      <point x="1146" y="-114" type="curve" smooth="yes"/>
      <point x="1148" y="93"/>
      <point x="1056" y="158"/>
      <point x="806" y="182" type="curve" smooth="yes"/>
      <point x="491" y="212" type="line" smooth="yes"/>
      <point x="393" y="221"/>
      <point x="323" y="234"/>
      <point x="323" y="288" type="curve" smooth="yes" name="hr02"/>
      <point x="323" y="324"/>
      <point x="344" y="362"/>
      <point x="374" y="387" type="curve"/>
      <point x="424" y="375"/>
      <point x="482" y="369"/>
      <point x="549" y="369" type="curve" smooth="yes"/>
      <point x="868" y="369"/>
      <point x="985" y="507"/>
      <point x="985" y="694" type="curve" smooth="yes"/>
      <point x="985" y="766"/>
      <point x="967" y="830"/>
      <point x="928" y="881" type="curve"/>
      <point x="956" y="894"/>
      <point x="988" y="900"/>
      <point x="997" y="896" type="curve"/>
      <point x="1090" y="802" type="line"/>
      <point x="1097" y="793"/>
      <point x="1124" y="784"/>
      <point x="1136" y="785" type="curve" smooth="yes"/>
      <point x="1177" y="788"/>
      <point x="1221" y="817"/>
      <point x="1221" y="890" type="curve" smooth="yes"/>
      <point x="1221" y="969"/>
      <point x="1156" y="1014"/>
      <point x="1095" y="1014" type="curve" smooth="yes"/>
      <point x="994" y="1014"/>
      <point x="919" y="973"/>
      <point x="875" y="933" type="curve"/>
      <point x="806" y="984"/>
      <point x="700" y="1014"/>
      <point x="549" y="1014" type="curve" smooth="yes"/>
      <point x="238" y="1014"/>
      <point x="106" y="882"/>
      <point x="106" y="694" type="curve" smooth="yes" name="hr03"/>
      <point x="106" y="578"/>
      <point x="156" y="481"/>
      <point x="268" y="424" type="curve"/>
      <point x="202" y="393"/>
      <point x="112" y="322"/>
      <point x="112" y="223" type="curve" smooth="yes" name="hr04"/>
      <point x="112" y="136"/>
      <point x="130" y="78"/>
      <point x="203" y="42" type="curve"/>
      <point x="124" y="8"/>
      <point x="58" y="-54"/>
    </contour>
    <contour>
      <point x="549" y="454" type="curve" smooth="yes" name="hr06"/>
      <point x="438" y="454"/>
      <point x="404" y="565"/>
      <point x="404" y="690" type="curve" smooth="yes"/>
      <point x="404" y="816"/>
      <point x="439" y="928"/>
      <point x="549" y="928" type="curve" smooth="yes"/>
      <point x="659" y="928"/>
      <point x="705" y="824"/>
      <point x="705" y="698" type="curve" smooth="yes"/>
      <point x="705" y="573"/>
      <point x="659" y="454"/>
    </contour>
    <contour>
      <point x="359" y="3" type="curve" name="hr07"/>
      <point x="364" y="2"/>
      <point x="370" y="1"/>
      <point x="376" y="1" type="curve"/>
      <point x="654" y="-29" type="line" smooth="yes"/>
      <point x="790" y="-44"/>
      <point x="870" y="-69"/>
      <point x="870" y="-139" type="curve" smooth="yes"/>
      <point x="870" y="-313"/>
      <point x="705" y="-352"/>
      <point x="579" y="-352" type="curve" smooth="yes"/>
      <point x="447" y="-352"/>
      <point x="330" y="-317"/>
      <point x="330" y="-155" type="curve" smooth="yes"/>
      <point x="330" y="-82"/>
      <point x="346" y="-31"/>
    </contour>
    <contour>
      <point x="554" y="2000" type="move" name="top"/>
    </contour>
    <contour>
      <point x="625" y="-200" type="move" name="btm"/>
    </contour>
  </outline>
</glyph>
<glyph name="h" format="1">
  <advance width="1393"/>
  <unicode hex="0068"/>
  <outline>
    <contour>
      <point x="38" y="41" type="curve" name="hr00" smooth="yes"/>
      <point x="38" y="26"/>
      <point x="49" y="0"/>
      <point x="72" y="0" type="curve" smooth="yes"/>
      <point x="617" y="0" type="line" smooth="yes"/>
      <point x="639" y="0"/>
      <point x="651" y="26"/>
      <point x="651" y="41" type="curve" smooth="yes"/>
      <point x="651" y="71"/>
      <point x="643" y="75"/>
      <point x="615" y="78" type="curve" smooth="yes"/>
      <point x="566" y="82"/>
      <point x="503" y="88"/>
      <point x="503" y="165" type="curve" smooth="yes"/>
      <point x="503" y="727" type="line"/>
      <point x="550" y="778"/>
      <point x="675" y="852"/>
      <point x="783" y="852" type="curve" smooth="yes"/>
      <point x="902" y="852"/>
      <point x="902" y="764"/>
      <point x="902" y="721" type="curve" smooth="yes"/>
      <point x="902" y="132" type="line" smooth="yes"/>
      <point x="902" y="100"/>
      <point x="838" y="81"/>
      <point x="796" y="78" type="curve"/>
      <point x="769" y="75"/>
      <point x="765" y="62"/>
      <point x="765" y="41" type="curve" smooth="yes"/>
      <point x="765" y="26"/>
      <point x="776" y="0"/>
      <point x="799" y="0" type="curve" smooth="yes"/>
      <point x="1346" y="0" type="line" smooth="yes"/>
      <point x="1369" y="0"/>
      <point x="1380" y="26"/>
      <point x="1380" y="41" type="curve" smooth="yes"/>
      <point x="1380" y="70"/>
      <point x="1369" y="75"/>
      <point x="1347" y="78" type="curve" smooth="yes"/>
      <point x="1297" y="84"/>
      <point x="1210" y="79"/>
      <point x="1210" y="165" type="curve" smooth="yes"/>
      <point x="1210" y="736" type="line" smooth="yes"/>
      <point x="1210" y="968"/>
      <point x="1069" y="1014"/>
      <point x="919" y="1014" type="curve" smooth="yes"/>
      <point x="726" y="1014"/>
      <point x="534" y="890"/>
      <point x="493" y="845" type="curve"/>
      <point x="503" y="992" type="line"/>
      <point x="503" y="1508" type="line"/>
      <point x="500" y="1540"/>
      <point x="484" y="1548"/>
      <point x="473" y="1548" type="curve" smooth="yes"/>
      <point x="392" y="1547"/>
      <point x="228" y="1542"/>
      <point x="38" y="1534" type="curve" smooth="yes"/>
      <point x="22" y="1533"/>
      <point x="14" y="1506"/>
      <point x="14" y="1490" type="curve" smooth="yes"/>
      <point x="14" y="1465"/>
      <point x="24" y="1456"/>
      <point x="38" y="1450" type="curve"/>
      <point x="92" y="1436"/>
      <point x="187" y="1453"/>
      <point x="187" y="1329" type="curve" smooth="yes"/>
      <point x="187" y="132" type="line" smooth="yes"/>
      <point x="187" y="95"/>
      <point x="120" y="82"/>
      <point x="71" y="78" type="curve"/>
      <point x="45" y="75"/>
      <point x="38" y="62"/>
    </contour>
    <contour>
      <point x="685" y="-200" type="move" name="btm"/>
    </contour>
    <contour>
      <point x="685" y="2000" type="move" name="top"/>
    </contour>
  </outline>
</glyph>
<glyph name="k" format="1">
  <advance width="1294"/>
  <unicode hex="006B"/>
  <outline>
    <contour>
      <point x="37" y="41" type="curve" smooth="yes" name="hr00"/>
      <point x="37" y="26"/>
      <point x="48" y="0"/>
      <point x="71" y="0" type="curve" smooth="yes"/>
      <point x="596" y="0" type="line" smooth="yes"/>
      <point x="619" y="0"/>
      <point x="630" y="26"/>
      <point x="630" y="41" type="curve" smooth="yes"/>
      <point x="630" y="71"/>
      <point x="622" y="75"/>
      <point x="594" y="78" type="curve" smooth="yes"/>
      <point x="545" y="82"/>
      <point x="502" y="88"/>
      <point x="502" y="165" type="curve" smooth="yes"/>
      <point x="502" y="374" type="line"/>
      <point x="590" y="452" type="line"/>
      <point x="688" y="355"/>
      <point x="831" y="0"/>
      <point x="943" y="0" type="curve" smooth="yes"/>
      <point x="1269" y="0" type="line" smooth="yes"/>
      <point x="1292" y="0"/>
      <point x="1303" y="26"/>
      <point x="1303" y="41" type="curve" smooth="yes"/>
      <point x="1303" y="70"/>
      <point x="1292" y="75"/>
      <point x="1270" y="78" type="curve" smooth="yes"/>
      <point x="1220" y="85"/>
      <point x="1177" y="143"/>
      <point x="1122" y="198" type="curve" smooth="yes"/>
      <point x="999" y="321"/>
      <point x="878" y="550"/>
      <point x="783" y="621" type="curve"/>
      <point x="1029" y="837" type="line"/>
      <point x="1078" y="876"/>
      <point x="1153" y="906"/>
      <point x="1217" y="906" type="curve" smooth="yes"/>
      <point x="1239" y="906"/>
      <point x="1250" y="925"/>
      <point x="1250" y="949" type="curve" smooth="yes"/>
      <point x="1250" y="964"/>
      <point x="1239" y="994"/>
      <point x="1216" y="994" type="curve" smooth="yes"/>
      <point x="759" y="994" type="line" smooth="yes"/>
      <point x="736" y="994"/>
      <point x="725" y="964"/>
      <point x="725" y="949" type="curve" smooth="yes"/>
      <point x="725" y="928"/>
      <point x="729" y="909"/>
      <point x="756" y="906" type="curve"/>
      <point x="819" y="902"/>
      <point x="921" y="876"/>
      <point x="881" y="842" type="curve"/>
      <point x="502" y="484" type="line"/>
      <point x="502" y="1508" type="line" smooth="yes"/>
      <point x="502" y="1540"/>
      <point x="483" y="1548"/>
      <point x="472" y="1548" type="curve" smooth="yes"/>
      <point x="390" y="1547"/>
      <point x="226" y="1542"/>
      <point x="37" y="1534" type="curve" smooth="yes"/>
      <point x="21" y="1533"/>
      <point x="13" y="1506"/>
      <point x="13" y="1490" type="curve" smooth="yes"/>
      <point x="13" y="1465"/>
      <point x="23" y="1456"/>
      <point x="37" y="1450" type="curve"/>
      <point x="91" y="1436"/>
      <point x="186" y="1453"/>
      <point x="186" y="1329" type="curve" smooth="yes"/>
      <point x="186" y="132" type="line" smooth="yes"/>
      <point x="186" y="95"/>
      <point x="119" y="82"/>
      <point x="70" y="78" type="curve"/>
      <point x="44" y="75"/>
      <point x="37" y="62"/>
    </contour>
    <contour>
      <point x="657" y="2000" type="move" name="top"/>
    </contour>
    <contour>
      <point x="657" y="-200" type="move" name="btm"/>
    </contour>
  </outline>
</glyph>
<glyph name="l" format="1">
  <advance width="705"/>
  <unicode hex="006C"/>
  <outline>
    <contour>
      <point x="56" y="41" type="curve" smooth="yes" name="hr00"/>
      <point x="56" y="26"/>
      <point x="67" y="0"/>
      <point x="90" y="0" type="curve" smooth="yes"/>
      <point x="635" y="0" type="line" smooth="yes"/>
      <point x="658" y="0"/>
      <point x="669" y="26"/>
      <point x="669" y="41" type="curve" smooth="yes"/>
      <point x="669" y="71"/>
      <point x="661" y="75"/>
      <point x="633" y="78" type="curve" smooth="yes"/>
      <point x="584" y="82"/>
      <point x="511" y="88"/>
      <point x="511" y="165" type="curve" smooth="yes"/>
      <point x="511" y="1508" type="line" smooth="yes"/>
      <point x="511" y="1540"/>
      <point x="492" y="1548"/>
      <point x="481" y="1548" type="curve" smooth="yes"/>
      <point x="398" y="1547"/>
      <point x="221" y="1542"/>
      <point x="36" y="1534" type="curve" smooth="yes"/>
      <point x="21" y="1533"/>
      <point x="12" y="1506"/>
      <point x="12" y="1490" type="curve" smooth="yes"/>
      <point x="12" y="1465"/>
      <point x="22" y="1456"/>
      <point x="36" y="1450" type="curve"/>
      <point x="93" y="1436"/>
      <point x="205" y="1453"/>
      <point x="205" y="1329" type="curve"/>
      <point x="205" y="1328" type="line"/>
      <point x="204" y="132" type="line" smooth="yes"/>
      <point x="204" y="95"/>
      <point x="138" y="82"/>
      <point x="89" y="78" type="curve" smooth="yes"/>
      <point x="63" y="75"/>
      <point x="56" y="62"/>
    </contour>
    <contour>
      <point x="333" y="2000" type="move" name="top"/>
    </contour>
    <contour>
      <point x="353" y="-200" type="move" name="btm"/>
    </contour>
  </outline>
</glyph>
<glyph name="m" format="1">
  <advance width="2081"/>
  <unicode hex="006D"/>
  <outline>
    <contour>
      <point x="71" y="41" type="curve" name="hr01" smooth="yes"/>
      <point x="71" y="26"/>
      <point x="82" y="0"/>
      <point x="105" y="0" type="curve" smooth="yes"/>
      <point x="630" y="0" type="line" smooth="yes"/>
      <point x="652" y="0"/>
      <point x="664" y="26"/>
      <point x="664" y="41" type="curve" smooth="yes"/>
      <point x="664" y="71"/>
      <point x="656" y="75"/>
      <point x="628" y="78" type="curve" smooth="yes"/>
      <point x="579" y="82"/>
      <point x="526" y="88"/>
      <point x="526" y="165" type="curve" smooth="yes"/>
      <point x="526" y="737" type="line"/>
      <point x="583" y="788"/>
      <point x="649" y="862"/>
      <point x="778" y="862" type="curve" smooth="yes"/>
      <point x="897" y="862"/>
      <point x="906" y="760"/>
      <point x="906" y="711" type="curve" smooth="yes"/>
      <point x="906" y="132" type="line" smooth="yes"/>
      <point x="906" y="100"/>
      <point x="844" y="81"/>
      <point x="802" y="78" type="curve"/>
      <point x="776" y="75"/>
      <point x="771" y="62"/>
      <point x="771" y="41" type="curve" smooth="yes"/>
      <point x="771" y="26"/>
      <point x="782" y="0"/>
      <point x="805" y="0" type="curve" smooth="yes"/>
      <point x="1322" y="0" type="line" smooth="yes"/>
      <point x="1345" y="0"/>
      <point x="1356" y="26"/>
      <point x="1356" y="41" type="curve" smooth="yes"/>
      <point x="1356" y="70"/>
      <point x="1345" y="75"/>
      <point x="1323" y="78" type="curve" smooth="yes"/>
      <point x="1273" y="84"/>
      <point x="1214" y="79"/>
      <point x="1214" y="165" type="curve" smooth="yes"/>
      <point x="1214" y="716" type="line" smooth="yes"/>
      <point x="1214" y="731"/>
      <point x="1213" y="745"/>
      <point x="1212" y="759" type="curve"/>
      <point x="1272" y="808"/>
      <point x="1358" y="862"/>
      <point x="1462" y="862" type="curve" smooth="yes"/>
      <point x="1581" y="862"/>
      <point x="1581" y="760"/>
      <point x="1581" y="711" type="curve" smooth="yes"/>
      <point x="1581" y="132" type="line" smooth="yes"/>
      <point x="1581" y="100"/>
      <point x="1527" y="81"/>
      <point x="1485" y="78" type="curve"/>
      <point x="1459" y="75"/>
      <point x="1454" y="62"/>
      <point x="1454" y="41" type="curve" smooth="yes"/>
      <point x="1454" y="26"/>
      <point x="1465" y="0"/>
      <point x="1488" y="0" type="curve" smooth="yes"/>
      <point x="2025" y="0" type="line" smooth="yes"/>
      <point x="2048" y="0"/>
      <point x="2059" y="26"/>
      <point x="2059" y="41" type="curve" smooth="yes"/>
      <point x="2059" y="70"/>
      <point x="2048" y="75"/>
      <point x="2026" y="78" type="curve" smooth="yes"/>
      <point x="1976" y="84"/>
      <point x="1899" y="79"/>
      <point x="1899" y="165" type="curve" smooth="yes"/>
      <point x="1899" y="716" type="line" smooth="yes"/>
      <point x="1899" y="964"/>
      <point x="1775" y="1014"/>
      <point x="1627" y="1014" type="curve" smooth="yes"/>
      <point x="1421" y="1014"/>
      <point x="1258" y="909"/>
      <point x="1193" y="860" type="curve"/>
      <point x="1149" y="984"/>
      <point x="1044" y="1014"/>
      <point x="933" y="1014" type="curve" smooth="yes"/>
      <point x="735" y="1014"/>
      <point x="558" y="890"/>
      <point x="516" y="845" type="curve"/>
      <point x="516" y="957" type="line" name="hr02"/>
      <point x="513" y="989"/>
      <point x="497" y="997"/>
      <point x="486" y="997" type="curve" smooth="yes"/>
      <point x="408" y="996"/>
      <point x="245" y="991"/>
      <point x="61" y="983" type="curve" smooth="yes"/>
      <point x="45" y="982"/>
      <point x="37" y="955"/>
      <point x="37" y="939" type="curve" smooth="yes"/>
      <point x="37" y="914"/>
      <point x="47" y="905"/>
      <point x="61" y="899" type="curve"/>
      <point x="111" y="885"/>
      <point x="210" y="902"/>
      <point x="210" y="778" type="curve" smooth="yes"/>
      <point x="210" y="132" type="line" smooth="yes"/>
      <point x="210" y="95"/>
      <point x="153" y="82"/>
      <point x="104" y="78" type="curve"/>
      <point x="78" y="75"/>
      <point x="71" y="62"/>
    </contour>
    <contour>
      <point x="1063" y="-200" type="move" name="btm"/>
    </contour>
    <contour>
      <point x="1063" y="2000" type="move" name="top"/>
    </contour>
  </outline>
</glyph>
<glyph name="n" format="1">
  <advance width="1413"/>
  <unicode hex="006E"/>
  <outline>
    <contour>
      <point x="71" y="41" type="curve" smooth="yes" name="hr01"/>
      <point x="71" y="26"/>
      <point x="82" y="0"/>
      <point x="105" y="0" type="curve" smooth="yes"/>
      <point x="630" y="0" type="line" smooth="yes"/>
      <point x="652" y="0"/>
      <point x="664" y="26"/>
      <point x="664" y="41" type="curve" smooth="yes"/>
      <point x="664" y="71"/>
      <point x="656" y="75"/>
      <point x="628" y="78" type="curve" smooth="yes"/>
      <point x="579" y="83"/>
      <point x="526" y="89"/>
      <point x="526" y="175" type="curve" smooth="yes"/>
      <point x="526" y="737" type="line"/>
      <point x="573" y="788"/>
      <point x="688" y="862"/>
      <point x="796" y="862" type="curve" smooth="yes"/>
      <point x="915" y="862"/>
      <point x="915" y="760"/>
      <point x="915" y="711" type="curve" smooth="yes"/>
      <point x="915" y="142" type="line" smooth="yes"/>
      <point x="915" y="104"/>
      <point x="861" y="82"/>
      <point x="819" y="78" type="curve" smooth="yes"/>
      <point x="792" y="75"/>
      <point x="788" y="62"/>
      <point x="788" y="41" type="curve" smooth="yes"/>
      <point x="788" y="26"/>
      <point x="799" y="0"/>
      <point x="822" y="0" type="curve" smooth="yes"/>
      <point x="1359" y="0" type="line" smooth="yes"/>
      <point x="1382" y="0"/>
      <point x="1393" y="26"/>
      <point x="1393" y="41" type="curve" smooth="yes"/>
      <point x="1393" y="70"/>
      <point x="1382" y="75"/>
      <point x="1360" y="78" type="curve" smooth="yes"/>
      <point x="1310" y="85"/>
      <point x="1233" y="79"/>
      <point x="1233" y="175" type="curve" smooth="yes"/>
      <point x="1233" y="716" type="line" smooth="yes"/>
      <point x="1233" y="964"/>
      <point x="1081" y="1014"/>
      <point x="911" y="1014" type="curve" smooth="yes"/>
      <point x="733" y="1014"/>
      <point x="554" y="890"/>
      <point x="516" y="845" type="curve"/>
      <point x="516" y="957" type="line" name="hr02"/>
      <point x="513" y="989"/>
      <point x="497" y="997"/>
      <point x="486" y="997" type="curve" smooth="yes"/>
      <point x="408" y="996"/>
      <point x="245" y="991"/>
      <point x="61" y="983" type="curve" smooth="yes"/>
      <point x="45" y="982"/>
      <point x="37" y="955"/>
      <point x="37" y="939" type="curve" smooth="yes"/>
      <point x="37" y="914"/>
      <point x="47" y="905"/>
      <point x="61" y="899" type="curve"/>
      <point x="111" y="885"/>
      <point x="210" y="902"/>
      <point x="210" y="778" type="curve" smooth="yes"/>
      <point x="210" y="142" type="line" smooth="yes"/>
      <point x="210" y="98"/>
      <point x="153" y="83"/>
      <point x="104" y="78" type="curve" smooth="yes"/>
      <point x="78" y="75"/>
      <point x="71" y="62"/>
    </contour>
    <contour>
      <point x="765" y="2000" type="move" name="top"/>
    </contour>
    <contour>
      <point x="727" y="-200" type="move" name="btm"/>
    </contour>
  </outline>
</glyph>
<glyph name="o" format="1">
  <advance width="1303"/>
  <unicode hex="006F"/>
  <outline>
    <contour>
      <point x="76" y="492" type="curve" name="hr00" smooth="yes"/>
      <point x="76" y="146"/>
      <point x="301" y="-29"/>
      <point x="650" y="-29" type="curve" smooth="yes"/>
      <point x="1000" y="-29"/>
      <point x="1227" y="146"/>
      <point x="1227" y="492" type="curve" smooth="yes"/>
      <point x="1227" y="838"/>
      <point x="1007" y="1014"/>
      <point x="657" y="1014" type="curve" smooth="yes"/>
      <point x="309" y="1014"/>
      <point x="76" y="838"/>
    </contour>
    <contour>
      <point x="427" y="492" type="curve" smooth="yes"/>
      <point x="427" y="759"/>
      <point x="471" y="918"/>
      <point x="649" y="918" type="curve" smooth="yes"/>
      <point x="826" y="918"/>
      <point x="875" y="760"/>
      <point x="875" y="492" type="curve" smooth="yes"/>
      <point x="875" y="224"/>
      <point x="830" y="66"/>
      <point x="653" y="66" type="curve" smooth="yes"/>
      <point x="475" y="66"/>
      <point x="427" y="224"/>
    </contour>
    <contour>
      <point x="651" y="-200" type="move" name="btm"/>
    </contour>
    <contour>
      <point x="657" y="2000" type="move" name="top"/>
    </contour>
  </outline>
</glyph>
<glyph name="p" format="1">
  <advance width="1348"/>
  <unicode hex="0070"/>
  <outline>
    <contour>
      <point x="186" y="-269" type="line" name="hr01" smooth="yes"/>
      <point x="186" y="-355"/>
      <point x="113" y="-361"/>
      <point x="64" y="-366" type="curve" smooth="yes"/>
      <point x="36" y="-369"/>
      <point x="28" y="-373"/>
      <point x="28" y="-403" type="curve" smooth="yes"/>
      <point x="28" y="-418"/>
      <point x="40" y="-444"/>
      <point x="62" y="-444" type="curve" smooth="yes"/>
      <point x="677" y="-444" type="line" smooth="yes"/>
      <point x="700" y="-444"/>
      <point x="711" y="-418"/>
      <point x="711" y="-403" type="curve" smooth="yes"/>
      <point x="711" y="-382"/>
      <point x="704" y="-369"/>
      <point x="678" y="-366" type="curve"/>
      <point x="599" y="-361"/>
      <point x="502" y="-346"/>
      <point x="502" y="-302" type="curve" smooth="yes"/>
      <point x="502" y="-87" type="line"/>
      <point x="492" y="9" type="line"/>
      <point x="580" y="-21"/>
      <point x="672" y="-29"/>
      <point x="758" y="-29" type="curve" smooth="yes"/>
      <point x="1102" y="-29"/>
      <point x="1268" y="224"/>
      <point x="1268" y="493" type="curve" smooth="yes"/>
      <point x="1268" y="763"/>
      <point x="1149" y="1014"/>
      <point x="820" y="1014" type="curve" smooth="yes"/>
      <point x="704" y="1014"/>
      <point x="560" y="969"/>
      <point x="492" y="876" type="curve"/>
      <point x="492" y="957" type="line" name="hr02"/>
      <point x="489" y="989"/>
      <point x="473" y="997"/>
      <point x="462" y="997" type="curve" smooth="yes"/>
      <point x="384" y="996"/>
      <point x="221" y="991"/>
      <point x="37" y="983" type="curve" smooth="yes"/>
      <point x="21" y="982"/>
      <point x="13" y="955"/>
      <point x="13" y="939" type="curve" smooth="yes"/>
      <point x="13" y="914"/>
      <point x="23" y="905"/>
      <point x="37" y="899" type="curve"/>
      <point x="87" y="885"/>
      <point x="186" y="902"/>
      <point x="186" y="778" type="curve" smooth="yes"/>
    </contour>
    <contour>
      <point x="502" y="164" type="curve"/>
      <point x="502" y="776" type="line" name="hr03"/>
      <point x="536" y="838"/>
      <point x="616" y="869"/>
      <point x="677" y="869" type="curve" smooth="yes"/>
      <point x="867" y="869"/>
      <point x="931" y="712"/>
      <point x="931" y="493" type="curve" smooth="yes"/>
      <point x="931" y="245"/>
      <point x="867" y="76"/>
      <point x="661" y="76" type="curve" smooth="yes"/>
      <point x="598" y="76"/>
      <point x="519" y="125"/>
    </contour>
    <contour>
      <point x="627" y="-200" type="move" name="btm"/>
    </contour>
    <contour>
      <point x="696" y="2000" type="move" name="top"/>
    </contour>
  </outline>
</glyph>
<glyph name="q" format="1">
  <advance width="1327"/>
  <unicode hex="0071"/>
  <outline>
    <contour>
      <point x="87" y="492" type="curve" smooth="yes" name="hr00"/>
      <point x="87" y="222"/>
      <point x="216" y="-29"/>
      <point x="545" y="-29" type="curve" smooth="yes"/>
      <point x="660" y="-29"/>
      <point x="795" y="15"/>
      <point x="862" y="108" type="curve"/>
      <point x="853" y="0" type="line"/>
      <point x="853" y="-302" type="line" smooth="yes"/>
      <point x="853" y="-346"/>
      <point x="741" y="-361"/>
      <point x="667" y="-366" type="curve"/>
      <point x="641" y="-369"/>
      <point x="634" y="-382"/>
      <point x="634" y="-403" type="curve" smooth="yes"/>
      <point x="634" y="-418"/>
      <point x="645" y="-444"/>
      <point x="668" y="-444" type="curve" smooth="yes"/>
      <point x="1293" y="-444" type="line" smooth="yes"/>
      <point x="1316" y="-444"/>
      <point x="1327" y="-418"/>
      <point x="1327" y="-403" type="curve" smooth="yes"/>
      <point x="1327" y="-373"/>
      <point x="1319" y="-369"/>
      <point x="1291" y="-366" type="curve" smooth="yes"/>
      <point x="1238" y="-361"/>
      <point x="1169" y="-355"/>
      <point x="1169" y="-269" type="curve" smooth="yes"/>
      <point x="1169" y="998" type="line" smooth="yes"/>
      <point x="1169" y="1018"/>
      <point x="1149" y="1028"/>
      <point x="1131" y="1028" type="curve" smooth="yes"/>
      <point x="1107" y="1028"/>
      <point x="1092" y="1020"/>
      <point x="1078" y="1008" type="curve" smooth="yes"/>
      <point x="1054" y="987"/>
      <point x="996" y="928"/>
      <point x="931" y="914" type="curve"/>
      <point x="873" y="962"/>
      <point x="782" y="1014"/>
      <point x="597" y="1014" type="curve" smooth="yes"/>
      <point x="253" y="1014"/>
      <point x="87" y="761"/>
    </contour>
    <contour>
      <point x="424" y="492" type="curve" smooth="yes"/>
      <point x="424" y="740"/>
      <point x="488" y="909"/>
      <point x="694" y="909" type="curve" smooth="yes"/>
      <point x="757" y="909"/>
      <point x="836" y="850"/>
      <point x="853" y="801" type="curve"/>
      <point x="853" y="209" type="line"/>
      <point x="818" y="147"/>
      <point x="739" y="116"/>
      <point x="678" y="116" type="curve" smooth="yes"/>
      <point x="488" y="116"/>
      <point x="424" y="273"/>
    </contour>
    <contour>
      <point x="699" y="2000" type="move" name="top"/>
    </contour>
    <contour>
      <point x="682" y="-200" type="move" name="btm"/>
    </contour>
  </outline>
</glyph>
<glyph name="r" format="1">
  <advance width="1065"/>
  <unicode hex="0072"/>
  <outline>
    <contour>
      <point x="59" y="41" type="curve" name="hr01" smooth="yes"/>
      <point x="59" y="26"/>
      <point x="70" y="0"/>
      <point x="93" y="0" type="curve" smooth="yes"/>
      <point x="717" y="0" type="line" smooth="yes"/>
      <point x="740" y="0"/>
      <point x="751" y="26"/>
      <point x="751" y="41" type="curve" smooth="yes"/>
      <point x="751" y="71"/>
      <point x="743" y="75"/>
      <point x="715" y="78" type="curve"/>
      <point x="636" y="82"/>
      <point x="524" y="88"/>
      <point x="524" y="165" type="curve" smooth="yes"/>
      <point x="524" y="641" type="line"/>
      <point x="567" y="747"/>
      <point x="657" y="819"/>
      <point x="752" y="833" type="curve"/>
      <point x="774" y="796"/>
      <point x="871" y="685"/>
      <point x="893" y="660" type="curve"/>
      <point x="898" y="660"/>
      <point x="915" y="649"/>
      <point x="931" y="649" type="curve" smooth="yes"/>
      <point x="992" y="649"/>
      <point x="1055" y="718"/>
      <point x="1055" y="816" type="curve" smooth="yes"/>
      <point x="1055" y="907"/>
      <point x="1003" y="1014"/>
      <point x="839" y="1014" type="curve" smooth="yes"/>
      <point x="676" y="1014"/>
      <point x="554" y="855"/>
      <point x="512" y="783" type="curve"/>
      <point x="512" y="957" type="line" name="hr02"/>
      <point x="509" y="989"/>
      <point x="493" y="997"/>
      <point x="482" y="997" type="curve" smooth="yes"/>
      <point x="401" y="996"/>
      <point x="249" y="995"/>
      <point x="59" y="987" type="curve" smooth="yes"/>
      <point x="44" y="986"/>
      <point x="35" y="959"/>
      <point x="35" y="943" type="curve" smooth="yes"/>
      <point x="35" y="918"/>
      <point x="45" y="909"/>
      <point x="59" y="903" type="curve"/>
      <point x="113" y="889"/>
      <point x="208" y="902"/>
      <point x="208" y="778" type="curve" smooth="yes"/>
      <point x="208" y="132" type="line" smooth="yes"/>
      <point x="208" y="95"/>
      <point x="146" y="82"/>
      <point x="92" y="78" type="curve"/>
      <point x="66" y="75"/>
      <point x="59" y="62"/>
    </contour>
    <contour>
      <point x="357" y="-200" type="move" name="btm"/>
    </contour>
    <contour>
      <point x="544" y="2000" type="move" name="top"/>
    </contour>
  </outline>
</glyph>
<glyph name="s" format="1">
  <advance width="1051"/>
  <unicode hex="0073"/>
  <outline>
    <contour>
      <point x="119" y="24" type="curve" name="hr01" smooth="yes"/>
      <point x="119" y="-8"/>
      <point x="194" y="-21"/>
      <point x="220" y="18" type="curve" smooth="yes"/>
      <point x="229" y="32"/>
      <point x="258" y="48"/>
      <point x="292" y="30" type="curve" name="hr02" smooth="yes"/>
      <point x="328" y="11"/>
      <point x="433" y="-30"/>
      <point x="542" y="-30" type="curve" smooth="yes"/>
      <point x="843" y="-30"/>
      <point x="1012" y="65"/>
      <point x="1012" y="261" type="curve" smooth="yes"/>
      <point x="1012" y="436"/>
      <point x="817" y="545"/>
      <point x="639" y="618" type="curve" smooth="yes"/>
      <point x="504" y="674"/>
      <point x="398" y="726"/>
      <point x="402" y="821" type="curve" smooth="yes"/>
      <point x="406" y="903"/>
      <point x="469" y="928"/>
      <point x="563" y="928" type="curve" smooth="yes"/>
      <point x="748" y="928"/>
      <point x="810" y="798"/>
      <point x="838" y="713" type="curve" smooth="yes"/>
      <point x="848" y="684"/>
      <point x="943" y="679"/>
      <point x="934" y="748" type="curve" smooth="yes"/>
      <point x="924" y="830"/>
      <point x="932" y="974"/>
      <point x="932" y="994" type="curve" smooth="yes"/>
      <point x="932" y="1033"/>
      <point x="846" y="1041"/>
      <point x="828" y="1008" type="curve" smooth="yes"/>
      <point x="818" y="991"/>
      <point x="823" y="969"/>
      <point x="776" y="977" type="curve" smooth="yes"/>
      <point x="746" y="982"/>
      <point x="688" y="1014"/>
      <point x="559" y="1014" type="curve" smooth="yes"/>
      <point x="311" y="1014"/>
      <point x="121" y="896"/>
      <point x="121" y="721" type="curve" smooth="yes"/>
      <point x="121" y="528"/>
      <point x="269" y="447"/>
      <point x="425" y="383" type="curve" smooth="yes"/>
      <point x="581" y="325"/>
      <point x="724" y="289"/>
      <point x="724" y="189" type="curve" smooth="yes"/>
      <point x="724" y="91"/>
      <point x="629" y="55"/>
      <point x="539" y="55" type="curve" smooth="yes"/>
      <point x="457" y="55"/>
      <point x="335" y="93"/>
      <point x="279" y="188" type="curve" smooth="yes"/>
      <point x="224" y="282"/>
      <point x="214" y="318"/>
      <point x="206" y="347" type="curve" smooth="yes"/>
      <point x="198" y="377"/>
      <point x="110" y="383"/>
      <point x="110" y="326" type="curve" smooth="yes"/>
      <point x="110" y="269"/>
      <point x="119" y="56"/>
    </contour>
    <contour>
      <point x="526" y="-200" type="move" name="btm"/>
    </contour>
    <contour>
      <point x="529" y="2000" type="move" name="top"/>
    </contour>
  </outline>
</glyph>
<glyph name="t" format="1">
  <advance width="813"/>
  <unicode hex="0074"/>
  <outline>
    <contour>
      <point x="189" y="223" type="line" name="hr00" smooth="yes"/>
      <point x="189" y="20"/>
      <point x="335" y="-30"/>
      <point x="504" y="-30" type="curve" smooth="yes"/>
      <point x="595" y="-30"/>
      <point x="747" y="28"/>
      <point x="798" y="84" type="curve"/>
      <point x="811" y="93"/>
      <point x="776" y="156"/>
      <point x="764" y="150" type="curve" smooth="yes"/>
      <point x="717" y="125"/>
      <point x="649" y="105"/>
      <point x="603" y="105" type="curve" smooth="yes"/>
      <point x="528" y="105"/>
      <point x="505" y="142"/>
      <point x="505" y="312" type="curve" smooth="yes"/>
      <point x="505" y="887" type="line"/>
      <point x="731" y="887" type="line"/>
      <point x="745" y="893"/>
      <point x="755" y="935"/>
      <point x="755" y="960" type="curve" smooth="yes"/>
      <point x="755" y="976"/>
      <point x="747" y="993"/>
      <point x="731" y="994" type="curve"/>
      <point x="505" y="994" type="line"/>
      <point x="505" y="1277" type="line" smooth="yes"/>
      <point x="505" y="1299"/>
      <point x="463" y="1307"/>
      <point x="426" y="1307" type="curve" smooth="yes"/>
      <point x="396" y="1307"/>
      <point x="364" y="1299"/>
      <point x="357" y="1268" type="curve" smooth="yes"/>
      <point x="326" y="1129"/>
      <point x="254" y="1022"/>
      <point x="208" y="1012" type="curve"/>
      <point x="83" y="975" type="line"/>
      <point x="69" y="969"/>
      <point x="58" y="954"/>
      <point x="58" y="929" type="curve" smooth="yes"/>
      <point x="58" y="913"/>
      <point x="67" y="886"/>
      <point x="82" y="885" type="curve"/>
      <point x="189" y="885" type="line"/>
    </contour>
    <contour>
      <point x="425" y="-200" type="move" name="btm"/>
    </contour>
    <contour>
      <point x="382" y="2169" type="move" name="top"/>
    </contour>
  </outline>
</glyph>
<glyph name="u" format="1">
  <advance width="1386"/>
  <unicode hex="0075"/>
  <outline>
    <contour>
      <point x="185" y="270" type="line" smooth="yes" name="hr00"/>
      <point x="185" y="22"/>
      <point x="330" y="-27"/>
      <point x="521" y="-27" type="curve" smooth="yes"/>
      <point x="667" y="-27"/>
      <point x="820" y="56"/>
      <point x="884" y="147" type="curve"/>
      <point x="883" y="92"/>
      <point x="893" y="-25"/>
      <point x="1026" y="-25" type="curve" smooth="yes"/>
      <point x="1194" y="-25"/>
      <point x="1283" y="17"/>
      <point x="1313" y="37" type="curve" smooth="yes"/>
      <point x="1327" y="46"/>
      <point x="1308" y="140"/>
      <point x="1279" y="126" type="curve" smooth="yes"/>
      <point x="1265" y="119"/>
      <point x="1246" y="118"/>
      <point x="1227" y="118" type="curve" smooth="yes"/>
      <point x="1205" y="118"/>
      <point x="1183" y="128"/>
      <point x="1183" y="222" type="curve" smooth="yes"/>
      <point x="1183" y="958" type="line" smooth="yes"/>
      <point x="1183" y="979"/>
      <point x="1173" y="994"/>
      <point x="1146" y="994" type="curve" smooth="yes"/>
      <point x="723" y="994" type="line" smooth="yes"/>
      <point x="700" y="994"/>
      <point x="689" y="968"/>
      <point x="689" y="953" type="curve" smooth="yes"/>
      <point x="689" y="923"/>
      <point x="697" y="919"/>
      <point x="725" y="916" type="curve"/>
      <point x="789" y="911"/>
      <point x="867" y="905"/>
      <point x="867" y="819" type="curve" smooth="yes"/>
      <point x="867" y="238" type="line"/>
      <point x="802" y="168"/>
      <point x="727" y="127"/>
      <point x="612" y="127" type="curve" smooth="yes"/>
      <point x="530" y="127"/>
      <point x="503" y="223"/>
      <point x="503" y="361" type="curve" smooth="yes"/>
      <point x="503" y="958" type="line" smooth="yes"/>
      <point x="503" y="979"/>
      <point x="494" y="994"/>
      <point x="466" y="994" type="curve" smooth="yes"/>
      <point x="73" y="994" type="line" smooth="yes"/>
      <point x="51" y="994"/>
      <point x="39" y="968"/>
      <point x="39" y="953" type="curve" smooth="yes"/>
      <point x="39" y="923"/>
      <point x="47" y="919"/>
      <point x="75" y="916" type="curve" smooth="yes"/>
      <point x="124" y="911"/>
      <point x="185" y="905"/>
      <point x="185" y="819" type="curve" smooth="yes"/>
    </contour>
    <contour>
      <point x="680" y="2000" type="move" name="top"/>
    </contour>
    <contour>
      <point x="654" y="-200" type="move" name="btm"/>
    </contour>
  </outline>
</glyph>
<glyph name="v" format="1">
  <advance width="1161"/>
  <unicode hex="0076"/>
  <outline>
    <contour>
      <point x="504" y="-9" type="line" name="hr00"/>
      <point x="686" y="-9" type="line"/>
      <point x="1065" y="829" type="line" smooth="yes"/>
      <point x="1097" y="899"/>
      <point x="1138" y="911"/>
      <point x="1187" y="916" type="curve" smooth="yes"/>
      <point x="1215" y="919"/>
      <point x="1223" y="923"/>
      <point x="1223" y="953" type="curve" smooth="yes"/>
      <point x="1223" y="968"/>
      <point x="1211" y="994"/>
      <point x="1189" y="994" type="curve" smooth="yes"/>
      <point x="824" y="994" type="line" smooth="yes"/>
      <point x="801" y="994"/>
      <point x="790" y="968"/>
      <point x="790" y="953" type="curve" smooth="yes"/>
      <point x="790" y="932"/>
      <point x="797" y="919"/>
      <point x="823" y="916" type="curve" smooth="yes"/>
      <point x="872" y="911"/>
      <point x="963" y="903"/>
      <point x="946" y="862" type="curve" smooth="yes"/>
      <point x="695" y="256" type="line"/>
      <point x="437" y="862" type="line" smooth="yes"/>
      <point x="420" y="902"/>
      <point x="475" y="908"/>
      <point x="553" y="916" type="curve" smooth="yes"/>
      <point x="579" y="919"/>
      <point x="586" y="932"/>
      <point x="586" y="953" type="curve" smooth="yes"/>
      <point x="586" y="968"/>
      <point x="575" y="994"/>
      <point x="552" y="994" type="curve" smooth="yes"/>
      <point x="-17" y="994" type="line" smooth="yes"/>
      <point x="-39" y="994"/>
      <point x="-51" y="968"/>
      <point x="-51" y="953" type="curve" smooth="yes"/>
      <point x="-51" y="923"/>
      <point x="-43" y="919"/>
      <point x="-15" y="916" type="curve" smooth="yes"/>
      <point x="34" y="911"/>
      <point x="63" y="898"/>
      <point x="97" y="829" type="curve" smooth="yes"/>
    </contour>
    <contour>
      <point x="610" y="-200" type="move" name="btm"/>
    </contour>
    <contour>
      <point x="605" y="2000" type="move" name="top"/>
    </contour>
  </outline>
</glyph>
<glyph name="w" format="1">
  <advance width="1767"/>
  <unicode hex="0077"/>
  <outline>
    <contour>
      <point x="459" y="-9" type="line" name="hr00"/>
      <point x="653" y="-9" type="line"/>
      <point x="884" y="641" type="line"/>
      <point x="1134" y="-9" type="line"/>
      <point x="1318" y="-9" type="line"/>
      <point x="1645" y="829" type="line" smooth="yes"/>
      <point x="1673" y="901"/>
      <point x="1708" y="911"/>
      <point x="1757" y="916" type="curve" smooth="yes"/>
      <point x="1785" y="919"/>
      <point x="1793" y="923"/>
      <point x="1793" y="953" type="curve" smooth="yes"/>
      <point x="1793" y="968"/>
      <point x="1781" y="994"/>
      <point x="1759" y="994" type="curve" smooth="yes"/>
      <point x="1394" y="994" type="line" smooth="yes"/>
      <point x="1371" y="994"/>
      <point x="1360" y="968"/>
      <point x="1360" y="953" type="curve" smooth="yes"/>
      <point x="1360" y="932"/>
      <point x="1367" y="917"/>
      <point x="1393" y="916" type="curve" smooth="yes"/>
      <point x="1480" y="912"/>
      <point x="1544" y="903"/>
      <point x="1529" y="862" type="curve" smooth="yes"/>
      <point x="1332" y="322" type="line"/>
      <point x="1101" y="966" type="line"/>
      <point x="865" y="966" type="line"/>
      <point x="655" y="306" type="line"/>
      <point x="457" y="862" type="line" smooth="yes"/>
      <point x="442" y="903"/>
      <point x="489" y="912"/>
      <point x="563" y="916" type="curve" smooth="yes"/>
      <point x="589" y="917"/>
      <point x="596" y="932"/>
      <point x="596" y="953" type="curve" smooth="yes"/>
      <point x="596" y="968"/>
      <point x="585" y="994"/>
      <point x="562" y="994" type="curve" smooth="yes"/>
      <point x="7" y="994" type="line" smooth="yes"/>
      <point x="-15" y="994"/>
      <point x="-27" y="968"/>
      <point x="-27" y="953" type="curve" smooth="yes"/>
      <point x="-27" y="923"/>
      <point x="-19" y="919"/>
      <point x="9" y="916" type="curve" smooth="yes"/>
      <point x="58" y="911"/>
      <point x="103" y="901"/>
      <point x="131" y="829" type="curve" smooth="yes"/>
    </contour>
    <contour>
      <point x="953" y="2000" type="move" name="top"/>
    </contour>
    <contour>
      <point x="896" y="-200" type="move" name="btm"/>
    </contour>
  </outline>
</glyph>
<glyph name="x" format="1">
  <advance width="1204"/>
  <unicode hex="0078"/>
  <outline>
    <contour>
      <point x="23" y="41" type="curve" smooth="yes" name="hr00"/>
      <point x="23" y="26"/>
      <point x="34" y="0"/>
      <point x="57" y="0" type="curve" smooth="yes"/>
      <point x="436" y="0" type="line" smooth="yes"/>
      <point x="459" y="0"/>
      <point x="470" y="26"/>
      <point x="470" y="41" type="curve" smooth="yes"/>
      <point x="470" y="62"/>
      <point x="465" y="75"/>
      <point x="439" y="78" type="curve" smooth="yes"/>
      <point x="397" y="82"/>
      <point x="303" y="101"/>
      <point x="343" y="146" type="curve"/>
      <point x="533" y="370" type="line"/>
      <point x="705" y="132" type="line" smooth="yes"/>
      <point x="739" y="86"/>
      <point x="690" y="82"/>
      <point x="649" y="78" type="curve" smooth="yes"/>
      <point x="622" y="75"/>
      <point x="618" y="62"/>
      <point x="618" y="41" type="curve" smooth="yes"/>
      <point x="618" y="26"/>
      <point x="629" y="0"/>
      <point x="652" y="0" type="curve" smooth="yes"/>
      <point x="1189" y="0" type="line" smooth="yes"/>
      <point x="1212" y="0"/>
      <point x="1223" y="26"/>
      <point x="1223" y="41" type="curve" smooth="yes"/>
      <point x="1223" y="70"/>
      <point x="1212" y="75"/>
      <point x="1190" y="78" type="curve" smooth="yes"/>
      <point x="1140" y="85"/>
      <point x="1113" y="117"/>
      <point x="1073" y="165" type="curve" smooth="yes"/>
      <point x="739" y="566" type="line"/>
      <point x="1004" y="827" type="line" smooth="yes"/>
      <point x="1044" y="867"/>
      <point x="1093" y="914"/>
      <point x="1161" y="914" type="curve" smooth="yes"/>
      <point x="1183" y="914"/>
      <point x="1194" y="927"/>
      <point x="1194" y="951" type="curve" smooth="yes"/>
      <point x="1194" y="966"/>
      <point x="1183" y="994"/>
      <point x="1160" y="994" type="curve" smooth="yes"/>
      <point x="807" y="994" type="line" smooth="yes"/>
      <point x="784" y="994"/>
      <point x="773" y="966"/>
      <point x="773" y="951" type="curve" smooth="yes"/>
      <point x="773" y="930"/>
      <point x="778" y="916"/>
      <point x="804" y="914" type="curve" smooth="yes"/>
      <point x="870" y="908"/>
      <point x="921" y="890"/>
      <point x="880" y="846" type="curve"/>
      <point x="687" y="627" type="line"/>
      <point x="537" y="860" type="line"/>
      <point x="499" y="913"/>
      <point x="545" y="910"/>
      <point x="588" y="914" type="curve" smooth="yes"/>
      <point x="615" y="917"/>
      <point x="619" y="930"/>
      <point x="619" y="951" type="curve" smooth="yes"/>
      <point x="619" y="966"/>
      <point x="608" y="994"/>
      <point x="585" y="994" type="curve" smooth="yes"/>
      <point x="46" y="994" type="line" smooth="yes"/>
      <point x="23" y="994"/>
      <point x="12" y="966"/>
      <point x="12" y="951" type="curve" smooth="yes"/>
      <point x="12" y="922"/>
      <point x="23" y="917"/>
      <point x="45" y="914" type="curve" smooth="yes"/>
      <point x="95" y="907"/>
      <point x="121" y="889"/>
      <point x="169" y="827" type="curve" smooth="yes"/>
      <point x="477" y="431" type="line"/>
      <point x="219" y="168" type="line"/>
      <point x="184" y="131"/>
      <point x="124" y="78"/>
      <point x="56" y="78" type="curve" smooth="yes"/>
      <point x="34" y="78"/>
      <point x="23" y="65"/>
    </contour>
    <contour>
      <point x="600" y="2000" type="move" name="top"/>
    </contour>
    <contour>
      <point x="600" y="-200" type="move" name="btm"/>
    </contour>
  </outline>
</glyph>
<glyph name="y" format="1">
  <advance width="1151"/>
  <unicode hex="0079"/>
  <outline>
    <contour>
      <point x="142" y="-228" type="line" name="hr00" smooth="yes"/>
      <point x="87" y="-221"/>
      <point x="22" y="-250"/>
      <point x="22" y="-323" type="curve" smooth="yes"/>
      <point x="22" y="-406"/>
      <point x="107" y="-449"/>
      <point x="214" y="-449" type="curve" smooth="yes"/>
      <point x="442" y="-449"/>
      <point x="613" y="-156"/>
      <point x="753" y="170" type="curve" smooth="yes"/>
      <point x="1035" y="829" type="line" smooth="yes"/>
      <point x="1065" y="900"/>
      <point x="1098" y="911"/>
      <point x="1147" y="916" type="curve" smooth="yes"/>
      <point x="1175" y="919"/>
      <point x="1183" y="923"/>
      <point x="1183" y="953" type="curve" smooth="yes"/>
      <point x="1183" y="968"/>
      <point x="1171" y="994"/>
      <point x="1149" y="994" type="curve" smooth="yes"/>
      <point x="794" y="994" type="line" smooth="yes"/>
      <point x="771" y="994"/>
      <point x="760" y="968"/>
      <point x="760" y="953" type="curve" smooth="yes"/>
      <point x="760" y="932"/>
      <point x="767" y="919"/>
      <point x="793" y="916" type="curve" smooth="yes"/>
      <point x="842" y="911"/>
      <point x="920" y="903"/>
      <point x="904" y="862" type="curve"/>
      <point x="696" y="296" type="line"/>
      <point x="470" y="862" type="line"/>
      <point x="453" y="902"/>
      <point x="527" y="911"/>
      <point x="576" y="916" type="curve" smooth="yes"/>
      <point x="602" y="919"/>
      <point x="609" y="932"/>
      <point x="609" y="953" type="curve" smooth="yes"/>
      <point x="609" y="968"/>
      <point x="598" y="994"/>
      <point x="575" y="994" type="curve" smooth="yes"/>
      <point x="8" y="994" type="line" smooth="yes"/>
      <point x="-14" y="994"/>
      <point x="-25" y="968"/>
      <point x="-25" y="953" type="curve" smooth="yes"/>
      <point x="-25" y="923"/>
      <point x="-17" y="919"/>
      <point x="11" y="916" type="curve" smooth="yes"/>
      <point x="60" y="911"/>
      <point x="100" y="899"/>
      <point x="133" y="829" type="curve" smooth="yes"/>
      <point x="544" y="-39" type="line"/>
      <point x="456" y="-197"/>
      <point x="373" y="-245"/>
      <point x="277" y="-245" type="curve"/>
    </contour>
    <contour>
      <point x="563" y="-200" type="move" name="btm"/>
    </contour>
    <contour>
      <point x="680" y="2000" type="move" name="top"/>
    </contour>
  </outline>
</glyph>
<glyph name="z" format="1">
  <advance width="1075"/>
  <unicode hex="007A"/>
  <outline>
    <contour>
      <point x="36" y="24" type="line" smooth="yes" name="hr00"/>
      <point x="36" y="5"/>
      <point x="44" y="0"/>
      <point x="60" y="0" type="curve" smooth="yes"/>
      <point x="977" y="0" type="line"/>
      <point x="997" y="1"/>
      <point x="1024" y="15"/>
      <point x="1024" y="41" type="curve" smooth="yes"/>
      <point x="1024" y="339" type="line" smooth="yes"/>
      <point x="1024" y="362"/>
      <point x="1008" y="373"/>
      <point x="993" y="373" type="curve" smooth="yes"/>
      <point x="972" y="373"/>
      <point x="909" y="366"/>
      <point x="906" y="340" type="curve" smooth="yes"/>
      <point x="901" y="291"/>
      <point x="826" y="96"/>
      <point x="718" y="93" type="curve" smooth="yes"/>
      <point x="427" y="85" type="line"/>
      <point x="501" y="189" type="line"/>
      <point x="1018" y="913" type="line" smooth="yes"/>
      <point x="1025" y="923"/>
      <point x="1028" y="930"/>
      <point x="1028" y="941" type="curve" smooth="yes"/>
      <point x="1028" y="965" type="line" smooth="yes"/>
      <point x="1028" y="984"/>
      <point x="1010" y="994"/>
      <point x="994" y="994" type="curve" smooth="yes"/>
      <point x="146" y="994" type="line"/>
      <point x="126" y="993"/>
      <point x="99" y="975"/>
      <point x="99" y="951" type="curve" smooth="yes"/>
      <point x="99" y="653" type="line" smooth="yes"/>
      <point x="99" y="630"/>
      <point x="115" y="619"/>
      <point x="130" y="619" type="curve" smooth="yes"/>
      <point x="151" y="619"/>
      <point x="204" y="626"/>
      <point x="207" y="652" type="curve" smooth="yes"/>
      <point x="212" y="701"/>
      <point x="297" y="909"/>
      <point x="415" y="909" type="curve" smooth="yes"/>
      <point x="642" y="909" type="line"/>
      <point x="585" y="838" type="line"/>
      <point x="78" y="123" type="line"/>
      <point x="42" y="69"/>
      <point x="36" y="53"/>
      <point x="36" y="40" type="curve" smooth="yes"/>
    </contour>
    <contour>
      <point x="563" y="2000" type="move" name="top"/>
    </contour>
    <contour>
      <point x="532" y="-200" type="move" name="btm"/>
    </contour>
  </outline>
</glyph>
<glyph name="braceleft" format="1">
  <advance width="1024"/>
  <unicode hex="007B"/>
  <outline>
    <contour>
      <point x="361" y="-29" type="line" smooth="yes" name="hr01"/>
      <point x="361" y="-251"/>
      <point x="598" y="-328"/>
      <point x="778" y="-328" type="curve" smooth="yes"/>
      <point x="951" y="-328" type="line"/>
      <point x="951" y="-221" type="line"/>
      <point x="838" y="-221" type="line" smooth="yes"/>
      <point x="730" y="-221"/>
      <point x="692" y="-128"/>
      <point x="692" y="-52" type="curve" smooth="yes"/>
      <point x="692" y="325" type="line" smooth="yes"/>
      <point x="692" y="488"/>
      <point x="524" y="579"/>
      <point x="340" y="587" type="curve"/>
      <point x="340" y="618" type="line" name="hr02"/>
      <point x="520" y="628"/>
      <point x="692" y="723"/>
      <point x="692" y="883" type="curve" smooth="yes" name="hr03"/>
      <point x="692" y="1260" type="line" smooth="yes"/>
      <point x="692" y="1336"/>
      <point x="728" y="1429"/>
      <point x="838" y="1429" type="curve" smooth="yes"/>
      <point x="951" y="1429" type="line"/>
      <point x="951" y="1536" type="line"/>
      <point x="778" y="1536" type="line" smooth="yes"/>
      <point x="598" y="1536"/>
      <point x="361" y="1459"/>
      <point x="361" y="1237" type="curve" smooth="yes"/>
      <point x="361" y="850" type="line" smooth="yes"/>
      <point x="361" y="741"/>
      <point x="247" y="654"/>
      <point x="142" y="654" type="curve" smooth="yes"/>
      <point x="122" y="654" type="line" name="hr04"/>
      <point x="122" y="554" type="line"/>
      <point x="142" y="554" type="line" smooth="yes"/>
      <point x="247" y="554"/>
      <point x="361" y="467"/>
      <point x="361" y="358" type="curve" smooth="yes" name="hr05"/>
    </contour>
  </outline>
</glyph>
<glyph name="bar" format="1">
  <advance width="795"/>
  <unicode hex="007C"/>
  <outline>
    <contour>
      <point x="320" y="-367" type="line" name="hr00"/>
      <point x="475" y="-367" type="line"/>
      <point x="475" y="1535" type="line"/>
      <point x="320" y="1535" type="line"/>
    </contour>
  </outline>
</glyph>
<glyph name="asciitilde" format="1">
  <advance width="1440"/>
  <unicode hex="007E"/>
  <outline>
    <contour>
      <point x="303" y="418" type="curve" name="hr01"/>
      <point x="342" y="434"/>
      <point x="384" y="538"/>
      <point x="499" y="538" type="curve" name="hr02" smooth="yes"/>
      <point x="642" y="538"/>
      <point x="761" y="395"/>
      <point x="913" y="395" type="curve" name="hr03" smooth="yes"/>
      <point x="1045" y="395"/>
      <point x="1138" y="492"/>
      <point x="1187" y="609" type="curve" smooth="yes"/>
      <point x="1193" y="623"/>
      <point x="1201" y="663"/>
      <point x="1192" y="674" type="curve" smooth="yes"/>
      <point x="1176" y="693"/>
      <point x="1154" y="715"/>
      <point x="1139" y="712" type="curve"/>
      <point x="1100" y="696"/>
      <point x="1052" y="592"/>
      <point x="934" y="592" type="curve" smooth="yes"/>
      <point x="792" y="592"/>
      <point x="678" y="735"/>
      <point x="529" y="735" type="curve" name="hr04" smooth="yes"/>
      <point x="397" y="735"/>
      <point x="307" y="626"/>
      <point x="252" y="518" type="curve" smooth="yes"/>
      <point x="245" y="504"/>
      <point x="241" y="469"/>
      <point x="250" y="456" type="curve" smooth="yes"/>
      <point x="265" y="436"/>
      <point x="288" y="415"/>
    </contour>
  </outline>
</glyph>
<glyph name="cent" format="1">
  <advance width="1239"/>
  <unicode hex="00A2"/>
  <outline>
    <contour>
      <point x="139" y="500" type="curve" name="hr01" smooth="yes"/>
      <point x="139" y="199"/>
      <point x="289" y="1"/>
      <point x="645" y="-25" type="curve"/>
      <point x="645" y="-228" type="line"/>
      <point x="761" y="-228" type="line"/>
      <point x="761" y="-27" type="line"/>
      <point x="882" y="-16"/>
      <point x="1038" y="61"/>
      <point x="1096" y="173" type="curve" smooth="yes"/>
      <point x="1104" y="188"/>
      <point x="1105" y="196"/>
      <point x="1092" y="202" type="curve" smooth="yes"/>
      <point x="1048" y="223" type="line"/>
      <point x="1035" y="226"/>
      <point x="1028" y="215"/>
      <point x="1022" y="208" type="curve" smooth="yes"/>
      <point x="962" y="141"/>
      <point x="873" y="105"/>
      <point x="758" y="105" type="curve" smooth="yes"/>
      <point x="631" y="105"/>
      <point x="484" y="224"/>
      <point x="484" y="490" type="curve" smooth="yes"/>
      <point x="484" y="825"/>
      <point x="582" y="929"/>
      <point x="693" y="929" type="curve" smooth="yes"/>
      <point x="771" y="929"/>
      <point x="763" y="912"/>
      <point x="763" y="912" type="curve"/>
      <point x="880" y="670" type="line" smooth="yes"/>
      <point x="891" y="646"/>
      <point x="931" y="613"/>
      <point x="977" y="613" type="curve" smooth="yes"/>
      <point x="1032" y="613"/>
      <point x="1151" y="670"/>
      <point x="1099" y="824" type="curve" smooth="yes"/>
      <point x="1054" y="955"/>
      <point x="948" y="1008"/>
      <point x="763" y="1013" type="curve"/>
      <point x="763" y="1225" type="line"/>
      <point x="647" y="1225" type="line"/>
      <point x="647" y="1009" type="line" name="hr02"/>
      <point x="364" y="980"/>
      <point x="139" y="804"/>
    </contour>
  </outline>
</glyph>
<glyph name="sterling" format="1">
  <advance width="1413"/>
  <unicode hex="00A3"/>
  <outline>
    <contour>
      <point x="75" y="91" type="curve" name="hr01" smooth="yes"/>
      <point x="75" y="31"/>
      <point x="128" y="0"/>
      <point x="182" y="0" type="curve" smooth="yes"/>
      <point x="308" y="0"/>
      <point x="344" y="46"/>
      <point x="406" y="88" type="curve"/>
      <point x="499" y="78"/>
      <point x="597" y="-16"/>
      <point x="840" y="-16" type="curve" name="hr02" smooth="yes"/>
      <point x="1144" y="-16"/>
      <point x="1365" y="115"/>
      <point x="1351" y="340" type="curve" smooth="yes"/>
      <point x="1345" y="440"/>
      <point x="1272" y="507"/>
      <point x="1177" y="510" type="curve" smooth="yes"/>
      <point x="1086" y="512"/>
      <point x="1025" y="439"/>
      <point x="1024" y="418" type="curve"/>
      <point x="1102" y="216" type="line"/>
      <point x="1068" y="144"/>
      <point x="967" y="101"/>
      <point x="795" y="108" type="curve"/>
      <point x="664" y="115"/>
      <point x="619" y="139"/>
      <point x="525" y="181" type="curve"/>
      <point x="602" y="262"/>
      <point x="648" y="406"/>
      <point x="644" y="603" type="curve" smooth="yes"/>
      <point x="642" y="690" type="line"/>
      <point x="955" y="690" type="line"/>
      <point x="969" y="696"/>
      <point x="979" y="738"/>
      <point x="979" y="763" type="curve" smooth="yes"/>
      <point x="979" y="779"/>
      <point x="971" y="796"/>
      <point x="955" y="797" type="curve"/>
      <point x="640" y="797" type="line" name="hr03"/>
      <point x="639" y="873" type="line" smooth="yes"/>
      <point x="632" y="1233"/>
      <point x="703" y="1357"/>
      <point x="827" y="1357" type="curve" smooth="yes"/>
      <point x="836" y="1357"/>
      <point x="845" y="1356"/>
      <point x="854" y="1356" type="curve"/>
      <point x="1003" y="1100" type="line" smooth="yes"/>
      <point x="1079" y="969"/>
      <point x="1256" y="1013"/>
      <point x="1256" y="1190" type="curve" smooth="yes"/>
      <point x="1256" y="1259"/>
      <point x="1152" y="1448"/>
      <point x="861" y="1448" type="curve" smooth="yes"/>
      <point x="443" y="1448"/>
      <point x="320" y="1208"/>
      <point x="320" y="871" type="curve" smooth="yes"/>
      <point x="320" y="797" type="line"/>
      <point x="182" y="797" type="line"/>
      <point x="168" y="791"/>
      <point x="158" y="769"/>
      <point x="158" y="744" type="curve" smooth="yes"/>
      <point x="158" y="728"/>
      <point x="166" y="691"/>
      <point x="182" y="690" type="curve"/>
      <point x="320" y="690" type="line" name="hr04"/>
      <point x="320" y="493" type="line" smooth="yes"/>
      <point x="320" y="366"/>
      <point x="306" y="248"/>
      <point x="287" y="236" type="curve"/>
      <point x="160" y="229"/>
      <point x="75" y="166"/>
    </contour>
  </outline>
</glyph>
<glyph name="currency" format="1">
  <advance width="1440"/>
  <unicode hex="00A4"/>
  <outline>
    <contour>
      <point x="235" y="213" type="line" name="hr00"/>
      <point x="360" y="97" type="line"/>
      <point x="522" y="261" type="line"/>
      <point x="579" y="229"/>
      <point x="646" y="211"/>
      <point x="719" y="211" type="curve" smooth="yes"/>
      <point x="792" y="211"/>
      <point x="860" y="230"/>
      <point x="918" y="262" type="curve"/>
      <point x="1080" y="97" type="line"/>
      <point x="1205" y="213" type="line"/>
      <point x="1044" y="377" type="line"/>
      <point x="1082" y="434"/>
      <point x="1105" y="502"/>
      <point x="1105" y="575" type="curve" smooth="yes"/>
      <point x="1105" y="648"/>
      <point x="1083" y="716"/>
      <point x="1045" y="773" type="curve"/>
      <point x="1205" y="936" type="line"/>
      <point x="1080" y="1053" type="line"/>
      <point x="918" y="889" type="line"/>
      <point x="862" y="920"/>
      <point x="795" y="939"/>
      <point x="723" y="939" type="curve" smooth="yes"/>
      <point x="649" y="939"/>
      <point x="581" y="920"/>
      <point x="523" y="887" type="curve"/>
      <point x="360" y="1053" type="line"/>
      <point x="235" y="936" type="line"/>
      <point x="396" y="772" type="line"/>
      <point x="357" y="715"/>
      <point x="335" y="647"/>
      <point x="335" y="575" type="curve" smooth="yes"/>
      <point x="335" y="502"/>
      <point x="357" y="434"/>
      <point x="396" y="377" type="curve"/>
    </contour>
    <contour>
      <point x="527" y="575" type="curve" smooth="yes"/>
      <point x="527" y="717"/>
      <point x="615" y="786"/>
      <point x="718" y="786" type="curve" smooth="yes"/>
      <point x="820" y="786"/>
      <point x="912" y="717"/>
      <point x="912" y="575" type="curve" smooth="yes"/>
      <point x="912" y="433"/>
      <point x="823" y="364"/>
      <point x="721" y="364" type="curve" smooth="yes"/>
      <point x="618" y="364"/>
      <point x="527" y="433"/>
    </contour>
  </outline>
</glyph>
<glyph name="yen" format="1">
  <advance width="1499"/>
  <unicode hex="00A5"/>
  <outline>
    <contour>
      <point x="381" y="51" type="curve" smooth="yes" name="hr00"/>
      <point x="381" y="36"/>
      <point x="392" y="0"/>
      <point x="415" y="0" type="curve" smooth="yes"/>
      <point x="1120" y="0" type="line" smooth="yes"/>
      <point x="1142" y="0"/>
      <point x="1154" y="36"/>
      <point x="1154" y="51" type="curve" smooth="yes"/>
      <point x="1154" y="81"/>
      <point x="1136" y="85"/>
      <point x="1108" y="88" type="curve"/>
      <point x="1041" y="93"/>
      <point x="926" y="79"/>
      <point x="926" y="165" type="curve" smooth="yes"/>
      <point x="926" y="347" type="line"/>
      <point x="1321" y="347" type="line"/>
      <point x="1335" y="353"/>
      <point x="1345" y="395"/>
      <point x="1345" y="420" type="curve" smooth="yes"/>
      <point x="1345" y="436"/>
      <point x="1337" y="453"/>
      <point x="1321" y="454" type="curve"/>
      <point x="926" y="454" type="line"/>
      <point x="926" y="587" type="line"/>
      <point x="1321" y="587" type="line"/>
      <point x="1335" y="593"/>
      <point x="1345" y="635"/>
      <point x="1345" y="660" type="curve" smooth="yes"/>
      <point x="1345" y="676"/>
      <point x="1337" y="693"/>
      <point x="1321" y="694" type="curve"/>
      <point x="932" y="694" type="line"/>
      <point x="1331" y="1254" type="line"/>
      <point x="1374" y="1336"/>
      <point x="1432" y="1336"/>
      <point x="1482" y="1341" type="curve" smooth="yes"/>
      <point x="1510" y="1344"/>
      <point x="1518" y="1348"/>
      <point x="1518" y="1378" type="curve" smooth="yes"/>
      <point x="1518" y="1393"/>
      <point x="1506" y="1419"/>
      <point x="1484" y="1419" type="curve" smooth="yes"/>
      <point x="1069" y="1419" type="line" smooth="yes"/>
      <point x="1046" y="1419"/>
      <point x="1035" y="1393"/>
      <point x="1035" y="1378" type="curve" smooth="yes"/>
      <point x="1035" y="1357"/>
      <point x="1042" y="1344"/>
      <point x="1068" y="1341" type="curve"/>
      <point x="1158" y="1336"/>
      <point x="1241" y="1331"/>
      <point x="1216" y="1287" type="curve"/>
      <point x="853" y="768" type="line"/>
      <point x="533" y="1287" type="line"/>
      <point x="508" y="1332"/>
      <point x="581" y="1336"/>
      <point x="671" y="1341" type="curve"/>
      <point x="697" y="1344"/>
      <point x="704" y="1357"/>
      <point x="704" y="1378" type="curve" smooth="yes"/>
      <point x="704" y="1393"/>
      <point x="693" y="1419"/>
      <point x="670" y="1419" type="curve" smooth="yes"/>
      <point x="-15" y="1419" type="line" smooth="yes"/>
      <point x="-37" y="1419"/>
      <point x="-49" y="1393"/>
      <point x="-49" y="1378" type="curve" smooth="yes"/>
      <point x="-49" y="1348"/>
      <point x="-41" y="1344"/>
      <point x="-13" y="1341" type="curve" smooth="yes"/>
      <point x="36" y="1336"/>
      <point x="93" y="1337"/>
      <point x="138" y="1254" type="curve"/>
      <point x="535" y="694" type="line"/>
      <point x="212" y="694" type="line"/>
      <point x="198" y="688"/>
      <point x="188" y="666"/>
      <point x="188" y="641" type="curve" smooth="yes"/>
      <point x="188" y="625"/>
      <point x="196" y="588"/>
      <point x="212" y="587" type="curve"/>
      <point x="589" y="587" type="line"/>
      <point x="589" y="454" type="line"/>
      <point x="212" y="454" type="line"/>
      <point x="198" y="448"/>
      <point x="188" y="426"/>
      <point x="188" y="401" type="curve" smooth="yes"/>
      <point x="188" y="385"/>
      <point x="196" y="348"/>
      <point x="212" y="347" type="curve"/>
      <point x="589" y="347" type="line"/>
      <point x="589" y="152" type="line" smooth="yes"/>
      <point x="589" y="81"/>
      <point x="491" y="93"/>
      <point x="424" y="88" type="curve"/>
      <point x="399" y="85"/>
      <point x="381" y="72"/>
    </contour>
  </outline>
</glyph>
<glyph name="brokenbar" format="1">
  <advance width="795"/>
  <unicode hex="00A6"/>
  <outline>
    <contour>
      <point x="320" y="765" type="line" name="hr00"/>
      <point x="475" y="765" type="line"/>
      <point x="475" y="1535" type="line"/>
      <point x="320" y="1535" type="line"/>
    </contour>
    <contour>
      <point x="320" y="-369" type="line"/>
      <point x="475" y="-369" type="line"/>
      <point x="475" y="401" type="line"/>
      <point x="320" y="401" type="line"/>
    </contour>
  </outline>
</glyph>
<glyph name="section" format="1">
  <advance width="1153"/>
  <unicode hex="00A7"/>
  <outline>
    <contour>
      <point x="227" y="-132" type="curve" name="hr01" smooth="yes"/>
      <point x="227" y="-261"/>
      <point x="364" y="-361"/>
      <point x="572" y="-361" type="curve" smooth="yes"/>
      <point x="801" y="-361"/>
      <point x="945" y="-232"/>
      <point x="945" y="-65" type="curve" smooth="yes"/>
      <point x="945" y="44"/>
      <point x="896" y="126"/>
      <point x="814" y="206" type="curve"/>
      <point x="913" y="247"/>
      <point x="1005" y="351"/>
      <point x="1005" y="479" type="curve" name="hr02" smooth="yes"/>
      <point x="1005" y="598"/>
      <point x="956" y="701"/>
      <point x="839" y="812" type="curve"/>
      <point x="631" y="998"/>
      <point x="466" y="1056"/>
      <point x="466" y="1221" type="curve" smooth="yes"/>
      <point x="466" y="1299"/>
      <point x="511" y="1359"/>
      <point x="600" y="1359" type="curve"/>
      <point x="649" y="1279"/>
      <point x="744" y="1167"/>
      <point x="765" y="1139" type="curve" smooth="yes"/>
      <point x="785" y="1114"/>
      <point x="812" y="1103"/>
      <point x="836" y="1103" type="curve" smooth="yes"/>
      <point x="888" y="1103"/>
      <point x="939" y="1149"/>
      <point x="939" y="1220" type="curve" smooth="yes"/>
      <point x="939" y="1349"/>
      <point x="802" y="1449"/>
      <point x="594" y="1449" type="curve" smooth="yes"/>
      <point x="365" y="1449"/>
      <point x="221" y="1320"/>
      <point x="221" y="1153" type="curve" smooth="yes"/>
      <point x="221" y="1043"/>
      <point x="269" y="962"/>
      <point x="351" y="881" type="curve"/>
      <point x="252" y="841"/>
      <point x="161" y="736"/>
      <point x="161" y="609" type="curve" name="hr03" smooth="yes"/>
      <point x="161" y="490"/>
      <point x="208" y="385"/>
      <point x="327" y="276" type="curve" smooth="yes"/>
      <point x="532" y="87"/>
      <point x="700" y="32"/>
      <point x="700" y="-133" type="curve" smooth="yes"/>
      <point x="700" y="-211"/>
      <point x="655" y="-271"/>
      <point x="566" y="-271" type="curve"/>
      <point x="517" y="-191"/>
      <point x="422" y="-79"/>
      <point x="401" y="-51" type="curve" smooth="yes"/>
      <point x="381" y="-26"/>
      <point x="354" y="-15"/>
      <point x="330" y="-15" type="curve" smooth="yes"/>
      <point x="278" y="-15"/>
      <point x="227" y="-61"/>
    </contour>
    <contour>
      <point x="516" y="446" type="curve" smooth="yes"/>
      <point x="461" y="488"/>
      <point x="401" y="562"/>
      <point x="401" y="666" type="curve" name="hr05" smooth="yes"/>
      <point x="401" y="705"/>
      <point x="417" y="760"/>
      <point x="440" y="804" type="curve"/>
      <point x="500" y="754"/>
      <point x="571" y="702"/>
      <point x="650" y="642" type="curve" smooth="yes"/>
      <point x="705" y="600"/>
      <point x="765" y="526"/>
      <point x="765" y="422" type="curve" smooth="yes"/>
      <point x="765" y="382"/>
      <point x="748" y="327"/>
      <point x="726" y="284" type="curve"/>
      <point x="665" y="333"/>
      <point x="594" y="385"/>
    </contour>
  </outline>
</glyph>
<glyph name="dieresis" format="1">
  <advance width="1024"/>
  <unicode hex="00A8"/>
  <outline>
    <contour>
      <point x="750" y="1180" type="curve" name="hr00" smooth="yes"/>
      <point x="852" y="1180"/>
      <point x="919" y="1263"/>
      <point x="919" y="1363" type="curve" smooth="yes"/>
      <point x="919" y="1464"/>
      <point x="852" y="1547"/>
      <point x="750" y="1547" type="curve" smooth="yes"/>
      <point x="647" y="1547"/>
      <point x="582" y="1464"/>
      <point x="582" y="1363" type="curve" smooth="yes"/>
      <point x="582" y="1263"/>
      <point x="647" y="1180"/>
    </contour>
    <contour>
      <point x="273" y="1180" type="curve" smooth="yes"/>
      <point x="375" y="1180"/>
      <point x="442" y="1263"/>
      <point x="442" y="1363" type="curve" smooth="yes"/>
      <point x="442" y="1464"/>
      <point x="375" y="1547"/>
      <point x="273" y="1547" type="curve" smooth="yes"/>
      <point x="170" y="1547"/>
      <point x="105" y="1464"/>
      <point x="105" y="1363" type="curve" smooth="yes"/>
      <point x="105" y="1263"/>
      <point x="170" y="1180"/>
    </contour>
    <contour>
      <point x="510" y="2000" type="move" name="_top"/>
    </contour>
  </outline>
</glyph>
<glyph name="copyright" format="1">
  <advance width="1929"/>
  <unicode hex="00A9"/>
  <outline>
    <contour>
      <point x="223" y="710" type="curve" smooth="yes" name="hr00"/>
      <point x="223" y="315"/>
      <point x="550" y="-5"/>
      <point x="946" y="-5" type="curve" smooth="yes"/>
      <point x="1341" y="-5"/>
      <point x="1669" y="315"/>
      <point x="1669" y="710" type="curve" smooth="yes"/>
      <point x="1669" y="1106"/>
      <point x="1341" y="1426"/>
      <point x="946" y="1426" type="curve" smooth="yes"/>
      <point x="550" y="1426"/>
      <point x="223" y="1106"/>
    </contour>
    <contour>
      <point x="317" y="710" type="curve" smooth="yes"/>
      <point x="317" y="1054"/>
      <point x="600" y="1344"/>
      <point x="947" y="1344" type="curve" smooth="yes"/>
      <point x="1294" y="1344"/>
      <point x="1577" y="1058"/>
      <point x="1577" y="710" type="curve" smooth="yes"/>
      <point x="1577" y="367"/>
      <point x="1290" y="75"/>
      <point x="947" y="75" type="curve" smooth="yes"/>
      <point x="603" y="75"/>
      <point x="317" y="367"/>
    </contour>
    <contour>
      <point x="607" y="718" type="curve" smooth="yes"/>
      <point x="607" y="450"/>
      <point x="733" y="322"/>
      <point x="978" y="322" type="curve" smooth="yes"/>
      <point x="1122" y="322"/>
      <point x="1223" y="393"/>
      <point x="1259" y="550" type="curve" smooth="yes"/>
      <point x="1261" y="557"/>
      <point x="1260" y="569"/>
      <point x="1246" y="569" type="curve" smooth="yes"/>
      <point x="1189" y="568" type="line" smooth="yes"/>
      <point x="1179" y="568"/>
      <point x="1179" y="558"/>
      <point x="1177" y="551" type="curve" smooth="yes"/>
      <point x="1150" y="427"/>
      <point x="1062" y="394"/>
      <point x="975" y="394" type="curve" smooth="yes"/>
      <point x="884" y="394"/>
      <point x="754" y="452"/>
      <point x="754" y="710" type="curve" smooth="yes"/>
      <point x="754" y="970"/>
      <point x="857" y="1030"/>
      <point x="987" y="1030" type="curve" smooth="yes"/>
      <point x="1033" y="1030"/>
      <point x="1072" y="1001"/>
      <point x="1072" y="1001" type="curve"/>
      <point x="1092" y="978"/>
      <point x="1095" y="939"/>
      <point x="1111" y="904" type="curve" smooth="yes"/>
      <point x="1127" y="869"/>
      <point x="1144" y="830"/>
      <point x="1200" y="830" type="curve" smooth="yes"/>
      <point x="1244" y="830"/>
      <point x="1283" y="894"/>
      <point x="1211" y="1003" type="curve" smooth="yes"/>
      <point x="1156" y="1087"/>
      <point x="1046" y="1104"/>
      <point x="985" y="1104" type="curve" smooth="yes"/>
      <point x="772" y="1104"/>
      <point x="607" y="985"/>
    </contour>
  </outline>
</glyph>
<glyph name="ordfeminine" format="1">
  <advance width="1130"/>
  <unicode hex="00AA"/>
  <outline>
    <contour>
      <point x="406" y="604" type="curve" name="hr00" smooth="yes"/>
      <point x="512" y="604"/>
      <point x="602" y="665"/>
      <point x="664" y="741" type="curve"/>
      <point x="665" y="638"/>
      <point x="697" y="604"/>
      <point x="781" y="604" type="curve" smooth="yes"/>
      <point x="927" y="604"/>
      <point x="1017" y="651"/>
      <point x="1039" y="662" type="curve"/>
      <point x="1051" y="678"/>
      <point x="1037" y="750"/>
      <point x="1013" y="737" type="curve"/>
      <point x="995" y="732"/>
      <point x="972" y="729"/>
      <point x="957" y="729" type="curve" smooth="yes"/>
      <point x="925" y="729"/>
      <point x="912" y="768"/>
      <point x="912" y="821" type="curve" smooth="yes"/>
      <point x="912" y="1187" type="line" smooth="yes"/>
      <point x="912" y="1392"/>
      <point x="772" y="1448"/>
      <point x="545" y="1448" type="curve" smooth="yes"/>
      <point x="480" y="1448"/>
      <point x="285" y="1425"/>
      <point x="218" y="1353" type="curve" smooth="yes"/>
      <point x="134" y="1264"/>
      <point x="193" y="1202"/>
      <point x="228" y="1180" type="curve" smooth="yes"/>
      <point x="276" y="1150"/>
      <point x="331" y="1167"/>
      <point x="346" y="1200" type="curve" smooth="yes"/>
      <point x="362" y="1233"/>
      <point x="420" y="1319"/>
      <point x="439" y="1341" type="curve"/>
      <point x="439" y="1341"/>
      <point x="461" y="1357"/>
      <point x="504" y="1357" type="curve" smooth="yes"/>
      <point x="605" y="1357"/>
      <point x="651" y="1340"/>
      <point x="651" y="1252" type="curve" smooth="yes"/>
      <point x="651" y="1146" type="line"/>
      <point x="613" y="1144"/>
      <point x="522" y="1128"/>
      <point x="424" y="1097" type="curve" smooth="yes"/>
      <point x="237" y="1039"/>
      <point x="130" y="974"/>
      <point x="133" y="831" type="curve" smooth="yes"/>
      <point x="136" y="682"/>
      <point x="265" y="604"/>
    </contour>
    <contour>
      <point x="523" y="740" type="curve" smooth="yes"/>
      <point x="449" y="740"/>
      <point x="408" y="803"/>
      <point x="408" y="853" type="curve" smooth="yes"/>
      <point x="408" y="913"/>
      <point x="427" y="962"/>
      <point x="491" y="1007" type="curve" smooth="yes"/>
      <point x="539" y="1041"/>
      <point x="620" y="1074"/>
      <point x="650" y="1086" type="curve"/>
      <point x="650" y="799" type="line"/>
      <point x="626" y="773"/>
      <point x="583" y="740"/>
    </contour>
  </outline>
</glyph>
<glyph name="logicalnot" format="1">
  <advance width="1440"/>
  <unicode hex="00AC"/>
  <outline>
    <contour>
      <point x="235" y="501" type="line" name="hr00"/>
      <point x="1049" y="501" type="line"/>
      <point x="1049" y="125" type="line"/>
      <point x="1205" y="125" type="line"/>
      <point x="1205" y="647" type="line"/>
      <point x="235" y="647" type="line"/>
    </contour>
  </outline>
</glyph>
<glyph name="uni00AD" format="1">
  <advance width="776"/>
  <unicode hex="00AD"/>
  <outline>
    <contour>
      <point x="75" y="476" type="line" name="hr00"/>
      <point x="701" y="476" type="line"/>
      <point x="701" y="622" type="line"/>
      <point x="75" y="622" type="line"/>
    </contour>
  </outline>
</glyph>
<glyph name="uni00AD" format="1">
  <advance width="776"/>
  <unicode hex="00AD"/>
  <outline>
    <contour>
      <point x="75" y="476" type="line" name="hr00"/>
      <point x="701" y="476" type="line"/>
      <point x="701" y="622" type="line"/>
      <point x="75" y="622" type="line"/>
    </contour>
  </outline>
</glyph>
<glyph name="registered" format="1">
  <advance width="1929"/>
  <unicode hex="00AE"/>
  <outline>
    <contour>
      <point x="223" y="710" type="curve" name="hr00" smooth="yes"/>
      <point x="223" y="315"/>
      <point x="550" y="-5"/>
      <point x="946" y="-5" type="curve" smooth="yes"/>
      <point x="1341" y="-5"/>
      <point x="1669" y="315"/>
      <point x="1669" y="710" type="curve" smooth="yes"/>
      <point x="1669" y="1106"/>
      <point x="1341" y="1426"/>
      <point x="946" y="1426" type="curve" smooth="yes"/>
      <point x="550" y="1426"/>
      <point x="223" y="1106"/>
    </contour>
    <contour>
      <point x="317" y="710" type="curve" smooth="yes"/>
      <point x="317" y="1054"/>
      <point x="600" y="1344"/>
      <point x="947" y="1344" type="curve" smooth="yes"/>
      <point x="1294" y="1344"/>
      <point x="1577" y="1058"/>
      <point x="1577" y="710" type="curve" smooth="yes"/>
      <point x="1577" y="367"/>
      <point x="1290" y="75"/>
      <point x="947" y="75" type="curve" smooth="yes"/>
      <point x="603" y="75"/>
      <point x="317" y="367"/>
    </contour>
    <contour>
      <point x="628" y="356" type="curve" smooth="yes"/>
      <point x="628" y="348"/>
      <point x="633" y="331"/>
      <point x="645" y="331" type="curve" smooth="yes"/>
      <point x="923" y="331" type="line" smooth="yes"/>
      <point x="935" y="331"/>
      <point x="940" y="348"/>
      <point x="940" y="356" type="curve" smooth="yes"/>
      <point x="940" y="371"/>
      <point x="936" y="381"/>
      <point x="921" y="383" type="curve"/>
      <point x="884" y="385"/>
      <point x="842" y="388"/>
      <point x="842" y="433" type="curve" smooth="yes"/>
      <point x="842" y="646" type="line"/>
      <point x="952" y="646" type="line"/>
      <point x="956" y="646" type="line"/>
      <point x="1004" y="578"/>
      <point x="1048" y="459"/>
      <point x="1094" y="371" type="curve"/>
      <point x="1111" y="353"/>
      <point x="1129" y="332"/>
      <point x="1170" y="332" type="curve" smooth="yes"/>
      <point x="1280" y="332" type="line" smooth="yes"/>
      <point x="1293" y="332"/>
      <point x="1301" y="342"/>
      <point x="1301" y="350" type="curve"/>
      <point x="1303" y="367"/>
      <point x="1304" y="380"/>
      <point x="1283" y="382" type="curve" smooth="yes"/>
      <point x="1230" y="387"/>
      <point x="1195" y="467"/>
      <point x="1168" y="508" type="curve" smooth="yes"/>
      <point x="1134" y="559"/>
      <point x="1107" y="620"/>
      <point x="1073" y="669" type="curve"/>
      <point x="1184" y="703"/>
      <point x="1239" y="778"/>
      <point x="1239" y="890" type="curve" smooth="yes"/>
      <point x="1239" y="1044"/>
      <point x="1110" y="1093"/>
      <point x="957" y="1093" type="curve" smooth="yes"/>
      <point x="632" y="1093" type="line" smooth="yes"/>
      <point x="620" y="1093"/>
      <point x="614" y="1085"/>
      <point x="614" y="1077" type="curve" smooth="yes"/>
      <point x="614" y="1061"/>
      <point x="618" y="1059"/>
      <point x="632" y="1057" type="curve"/>
      <point x="664" y="1055"/>
      <point x="707" y="1052"/>
      <point x="707" y="1007" type="curve" smooth="yes"/>
      <point x="707" y="416" type="line" smooth="yes"/>
      <point x="707" y="393"/>
      <point x="678" y="385"/>
      <point x="645" y="383" type="curve"/>
      <point x="631" y="381"/>
      <point x="628" y="366"/>
    </contour>
    <contour>
      <point x="842" y="719" type="line"/>
      <point x="842" y="1012" type="line"/>
      <point x="917" y="1012" type="line" smooth="yes"/>
      <point x="1023" y="1012"/>
      <point x="1103" y="1012"/>
      <point x="1103" y="874" type="curve" smooth="yes"/>
      <point x="1103" y="771"/>
      <point x="1042" y="719"/>
      <point x="913" y="719" type="curve" smooth="yes"/>
    </contour>
  </outline>
</glyph>
<glyph name="macron" format="1">
  <advance width="1024"/>
  <unicode hex="00AF"/>
  <outline>
    <contour>
      <point x="218" y="1282" type="line" name="hr00"/>
      <point x="805" y="1282" type="line"/>
      <point x="805" y="1433" type="line"/>
      <point x="218" y="1433" type="line"/>
    </contour>
    <contour>
      <point x="511" y="2000" type="move" name="_top"/>
    </contour>
  </outline>
</glyph>
<glyph name="degree" format="1">
  <advance width="860"/>
  <unicode hex="00B0"/>
  <outline>
    <contour>
      <point x="429" y="767" type="curve" name="hr00" smooth="yes"/>
      <point x="635" y="767"/>
      <point x="777" y="908"/>
      <point x="777" y="1113" type="curve" smooth="yes"/>
      <point x="777" y="1318"/>
      <point x="639" y="1457"/>
      <point x="433" y="1457" type="curve" smooth="yes"/>
      <point x="227" y="1457"/>
      <point x="83" y="1318"/>
      <point x="83" y="1113" type="curve" smooth="yes"/>
      <point x="83" y="908"/>
      <point x="223" y="767"/>
    </contour>
    <contour>
      <point x="431" y="895" type="curve" smooth="yes"/>
      <point x="318" y="895"/>
      <point x="242" y="967"/>
      <point x="242" y="1113" type="curve" smooth="yes"/>
      <point x="242" y="1259"/>
      <point x="315" y="1329"/>
      <point x="428" y="1329" type="curve" smooth="yes"/>
      <point x="540" y="1329"/>
      <point x="618" y="1259"/>
      <point x="618" y="1113" type="curve" smooth="yes"/>
      <point x="618" y="967"/>
      <point x="543" y="895"/>
    </contour>
  </outline>
</glyph>
<glyph name="plusminus" format="1">
  <advance width="1440"/>
  <unicode hex="00B1"/>
  <outline>
    <contour>
      <point x="270" y="0" type="line" name="hr00"/>
      <point x="1180" y="0" type="line"/>
      <point x="1180" y="146" type="line"/>
      <point x="808" y="146" type="line"/>
      <point x="808" y="501" type="line"/>
      <point x="1210" y="501" type="line"/>
      <point x="1210" y="647" type="line"/>
      <point x="808" y="647" type="line"/>
      <point x="808" y="1062" type="line"/>
      <point x="642" y="1062" type="line"/>
      <point x="642" y="647" type="line"/>
      <point x="240" y="647" type="line"/>
      <point x="240" y="501" type="line"/>
      <point x="642" y="501" type="line"/>
      <point x="642" y="146" type="line"/>
      <point x="270" y="146" type="line"/>
    </contour>
  </outline>
</glyph>
